<?xml version="1.0" encoding="iso-8859-1"?>
<!-- Generator: Adobe Illustrator 16.0.0, SVG Export Plug-In . SVG Version: 6.00 Build 0)  -->
<!DOCTYPE svg PUBLIC "-//W3C//DTD SVG 1.1//EN" "http://www.w3.org/Graphics/SVG/1.1/DTD/svg11.dtd">
<svg xmlns="http://www.w3.org/2000/svg" xmlns:xlink="http://www.w3.org/1999/xlink" version="1.1" id="Capa_1" x="0px" y="0px" width="512px" height="512px" viewBox="0 0 46.136 46.136" style="enable-background:new 0 0 46.136 46.136;" xml:space="preserve">
<g>
	<path d="M45.935,32.097L33.265,9.731c-0.369-0.526-1.184-1.091-1.802-1.257L17.765,4.805c-0.622-0.167-1.264,0.206-1.429,0.827   l-0.341,1.259c-0.867-0.486-1.773-0.969-2.741-1.439c-4.531-2.196-9-3.616-11.379-3.616c-0.862,0-1.438,0.191-1.707,0.569   C0.05,2.567-0.063,2.847,0.042,3.261c0.425,1.67,4.429,4.637,9.74,7.21c1.609,0.78,3.212,1.46,4.719,2.013l-1.834,6.844   c-0.163,0.62-0.081,1.605,0.189,2.189l13.038,22.158c0.27,0.584,0.942,0.794,1.503,0.475l18.203-10.512   C46.153,33.315,46.302,32.624,45.935,32.097z M21.017,12.09c0.266-0.154,0.558-0.221,0.845-0.285   c0.323,0.381,0.546,0.724,0.62,0.991c0.044,0.174,0.031,0.31-0.049,0.416c-0.156,0.224-0.612,0.345-1.273,0.345   c-0.374,0-0.822-0.048-1.299-0.121C20.105,12.898,20.466,12.408,21.017,12.09z M10.013,9.992c-5.779-2.8-9.129-5.57-9.461-6.862   C0.51,2.955,0.525,2.819,0.601,2.715c0.16-0.225,0.615-0.346,1.276-0.346c2.305,0,6.683,1.398,11.146,3.562   c1.028,0.5,1.957,0.997,2.831,1.487l-1.217,4.556C13.161,11.427,11.594,10.759,10.013,9.992z M23.937,17.145   c-1.395,0.804-3.182,0.33-3.989-1.07c-0.388-0.675-0.463-1.438-0.294-2.142c0.553,0.091,1.077,0.151,1.509,0.151   c0.862,0,1.436-0.19,1.705-0.569c0.116-0.165,0.234-0.441,0.129-0.855c-0.068-0.271-0.26-0.584-0.512-0.918   c1.005,0.007,1.986,0.481,2.521,1.411C25.812,14.555,25.331,16.344,23.937,17.145z" fill="#810101"/>
</g>
<g>
</g>
<g>
</g>
<g>
</g>
<g>
</g>
<g>
</g>
<g>
</g>
<g>
</g>
<g>
</g>
<g>
</g>
<g>
</g>
<g>
</g>
<g>
</g>
<g>
</g>
<g>
</g>
<g>
</g>
</svg>
