<?xml version="1.0" encoding="iso-8859-1"?>
<!-- Generator: Adobe Illustrator 16.0.0, SVG Export Plug-In . SVG Version: 6.00 Build 0)  -->
<!DOCTYPE svg PUBLIC "-//W3C//DTD SVG 1.1//EN" "http://www.w3.org/Graphics/SVG/1.1/DTD/svg11.dtd">
<svg xmlns="http://www.w3.org/2000/svg" xmlns:xlink="http://www.w3.org/1999/xlink" version="1.1" id="Capa_1" x="0px" y="0px" width="512px" height="512px" viewBox="0 0 612 612" style="enable-background:new 0 0 612 612;" xml:space="preserve">
<g>
	<path d="M550.4,281.817c-18.385,20.637-36.395,42.868-48.965,73.54c-5.721,14.164-19.322,23.357-34.613,23.357   c-15.383,0-28.984-9.193-34.799-23.45c-14.541-35.646-36.584-59.939-57.971-83.39c-5.346-5.909-10.693-11.819-15.945-17.916   c-0.281,0.094-0.471,0.188-0.75,0.281c-20.824,6.284-36.865,33.862-27.203,56.281c6.566,15.383,52.623,12.476,48.684,45.587   c-3.283,27.108,32.172,34.237,44.742,32.925c12.57-1.501,31.893,20.637,22.137,30.392c-9.66,9.756-27.953,10.131-25.139,35.27   c0.75,7.316,22.889,6.379,22.889,17.447c0,11.162-11.443,23.826-2.627,36.677c1.877,2.813,3.846,4.971,5.91,6.659   c-42.398,39.022-98.961,62.941-160.964,62.941c-131.041,0-237.6-106.559-237.6-237.6c0-39.771,9.85-77.293,27.203-110.311   c-0.094,42.68,22.7,78.137,33.393,88.83c34.894,34.8,85.454,23.825,91.925,52.997c6.566,29.079-34.707,29.173-31.986,51.403   c2.813,22.325,56.562,28.235,44.556,48.777c-15.853,27.296,10.693,29.266,3.002,62.94c-4.127,18.386,22.418,21.95,32.268,7.974   c7.504-10.693,6.003-23.826,21.105-39.865c18.479-19.699,61.347-22.888,56.562-55.438c-8.16-54.029-60.689-62.472-83.577-75.136   c-25.983-14.257-19.604-48.495-25.233-64.816c-7.879-23.169-34.613,6.473-48.871-7.035c-23.45-22.137,4.221-53.467,23.919-52.81   c41.554,1.313,54.311,41.742,69.6,40.334c14.915-1.313,24.577-22.137,27.203-33.205c5.535-24.107-9.38-13.32-15.383-25.89   c-8.067-16.79,28.328-32.83,42.398-45.212c2.158-1.876,3.752-3.658,4.596-5.347c4.223-8.254-1.312-14.539-10.693-20.261   c-18.759-11.351-52.997-20.355-54.591-38.083c-0.939-10.882,19.886-16.134,43.617-17.072c3.939,0.188,7.785,0.563,11.726,0.938   c1.969-11.163,5.158-22.138,9.473-32.643c-11.35-1.501-22.887-2.252-34.613-2.252c-149.52,0-271.18,121.66-271.18,271.18   C14.604,490.34,136.265,612,285.785,612c149.52,0,271.182-121.661,271.182-271.181C556.967,320.558,554.715,300.766,550.4,281.817z    M454.062,0.603C377.51,7.839,325.078,82.016,338.439,157.741c13.568,76.921,84.49,100.598,119.686,186.942   c3.172,7.781,14.127,7.82,17.297,0.038c39.016-95.766,121.975-114.455,121.975-214.106C597.396,54.282,531.916-6.756,454.062,0.603   z M466.781,199.593c-38.096,0-68.979-30.882-68.979-68.978c0-38.095,30.883-68.977,68.979-68.977s68.977,30.882,68.977,68.977   S504.875,199.593,466.781,199.593z" fill="#810101"/>
</g>
<g>
</g>
<g>
</g>
<g>
</g>
<g>
</g>
<g>
</g>
<g>
</g>
<g>
</g>
<g>
</g>
<g>
</g>
<g>
</g>
<g>
</g>
<g>
</g>
<g>
</g>
<g>
</g>
<g>
</g>
</svg>
