<svg xmlns="http://www.w3.org/2000/svg" viewBox="0 0 94.91 84.46"><defs><style>.cls-1{fill:#810101;}.cls-2{fill:#fff;stroke:#810101;stroke-miterlimit:10;stroke-width:3px;}</style></defs><title>Asset 4</title><g id="Layer_2" data-name="Layer 2"><g id="Capa_1" data-name="Capa 1"><path class="cls-1" d="M.71,48.44a1.74,1.74,0,0,1,.25-2C3,44.23,9.14,39.06,20.25,40c8.8.72,25.36,5.56,34.16,4.8,3.9-.34,12.75-4.29,16.26-5.92a1.74,1.74,0,0,1,2.26.76L92.19,75.13a1.73,1.73,0,0,1-.31,2.08c-2,1.94-7.37,6.11-16.57,6.46-9.79.36-29.9-3.7-37.69-4.62-8.41-1-13.17,2.48-15.38,4.85a1.75,1.75,0,0,1-2.83-.36Z"/><path class="cls-2" d="M1.71,29.75a1.76,1.76,0,0,1,.25-2c2.07-2.2,8.18-7.37,19.29-6.46,8.8.71,25.36,5.56,34.16,4.8,3.9-.34,12.75-4.29,16.26-5.92a1.74,1.74,0,0,1,2.26.75L93.19,56.44a1.73,1.73,0,0,1-.31,2.08c-2,1.94-7.37,6.11-16.57,6.45-9.79.37-29.9-3.7-37.69-4.61-8.41-1-13.17,2.48-15.38,4.85a1.75,1.75,0,0,1-2.83-.36Z"/><path class="cls-1" d="M1.71,9.75a1.76,1.76,0,0,1,.25-2C4,5.54,10.14.37,21.25,1.28c8.8.71,25.36,5.56,34.16,4.8,3.9-.34,12.75-4.29,16.26-5.92a1.74,1.74,0,0,1,2.26.75L93.19,36.44a1.73,1.73,0,0,1-.31,2.08c-2,1.94-7.37,6.11-16.57,6.45-9.79.37-29.9-3.7-37.69-4.61-8.41-1-13.17,2.48-15.38,4.85a1.75,1.75,0,0,1-2.83-.36Z"/></g></g></svg>