<?xml version="1.0" encoding="iso-8859-1"?>
<!-- Generator: Adobe Illustrator 18.0.0, SVG Export Plug-In . SVG Version: 6.00 Build 0)  -->
<!DOCTYPE svg PUBLIC "-//W3C//DTD SVG 1.1//EN" "http://www.w3.org/Graphics/SVG/1.1/DTD/svg11.dtd">
<svg xmlns="http://www.w3.org/2000/svg" xmlns:xlink="http://www.w3.org/1999/xlink" version="1.1" id="Capa_1" x="0px" y="0px" viewBox="0 0 490 490" style="enable-background:new 0 0 490 490;" xml:space="preserve" width="512px" height="512px">
<g>
	<g>
		<path d="M390.904,416.122c0,12.271-9.953,22.216-22.218,22.216c-12.27,0-22.221-9.945-22.221-22.216    c0-12.271,9.951-22.219,22.221-22.219C380.951,393.904,390.904,403.851,390.904,416.122z" fill="#810101"/>
		<circle cx="74.292" cy="416.122" r="22.217" fill="#810101"/>
	</g>
	<g>
		<path d="M486.935,59.781c-5.58-8.377-16.896-10.639-25.272-5.057L414.62,86.083c-5.068,3.381-8.115,9.071-8.115,15.165v261.585    H16.142C7.241,362.833,0,370.074,0,378.976v11.976c0,8.902,7.241,16.143,16.142,16.143h20.299c1.566,0,2.957-1,3.455-2.484    c4.975-14.813,18.796-24.767,34.395-24.767c15.6,0,29.422,9.955,34.394,24.767c0.497,1.484,1.888,2.484,3.455,2.484h218.695    c1.565,0,2.958-1,3.454-2.484c4.974-14.813,18.797-24.767,34.397-24.767c15.596,0,29.42,9.955,34.395,24.767    c0.495,1.484,1.887,2.484,3.453,2.484h20.299c8.902,0,16.147-7.24,16.147-16.143l-0.023-279.948l38.924-25.949    C490.257,79.471,492.521,68.156,486.935,59.781z" fill="#810101"/>
		<g>
			<path d="M325.131,56.273H299.96c-1.438,0-2.606,1.165-2.606,2.604l0.002,19.723c-0.014,0.021-0.102,0.098-0.289,0.098h-17.194     c-0.198,0-0.289-0.077-0.297-0.101v-19.72c0-1.439-1.159-2.604-2.595-2.604h-25.185c-7.462,0-13.537,6.076-13.537,13.542v73.334     c0,7.468,6.075,13.544,13.537,13.544h73.335c7.468,0,13.547-6.076,13.547-13.544V69.815     C338.678,62.349,332.599,56.273,325.131,56.273z" fill="#810101"/>
			<path d="M344.049,187.658h-44.433v22.348c0,2.43-1.971,4.4-4.4,4.4h-13.494c-2.432,0-4.4-1.971-4.4-4.4v-22.348h-44.44     c-8.921,0-16.172,7.255-16.172,16.175v111.169c0,8.919,7.251,16.172,16.172,16.172h111.168c8.919,0,16.179-7.253,16.179-16.172     V203.833C360.227,194.913,352.968,187.658,344.049,187.658z" fill="#810101"/>
			<path d="M166.952,187.658h-44.433v22.348c0,2.43-1.971,4.4-4.4,4.4h-13.494c-2.432,0-4.4-1.971-4.4-4.4v-22.348h-44.44     c-8.921,0-16.172,7.255-16.172,16.175v111.169c0,8.919,7.251,16.172,16.172,16.172h111.168c8.919,0,16.179-7.253,16.179-16.172     V203.833C183.131,194.913,175.871,187.658,166.952,187.658z" fill="#810101"/>
		</g>
	</g>
</g>
<g>
</g>
<g>
</g>
<g>
</g>
<g>
</g>
<g>
</g>
<g>
</g>
<g>
</g>
<g>
</g>
<g>
</g>
<g>
</g>
<g>
</g>
<g>
</g>
<g>
</g>
<g>
</g>
<g>
</g>
</svg>
