<?xml version="1.0" encoding="iso-8859-1"?>
<!-- Generator: Adobe Illustrator 18.0.0, SVG Export Plug-In . SVG Version: 6.00 Build 0)  -->
<!DOCTYPE svg PUBLIC "-//W3C//DTD SVG 1.1//EN" "http://www.w3.org/Graphics/SVG/1.1/DTD/svg11.dtd">
<svg xmlns="http://www.w3.org/2000/svg" xmlns:xlink="http://www.w3.org/1999/xlink" version="1.1" id="Capa_1" x="0px" y="0px" viewBox="0 0 251.496 251.496" style="enable-background:new 0 0 251.496 251.496;" xml:space="preserve" width="512px" height="512px">
<path d="M243.996,0H127.5c-4.143,0-7.5,3.358-7.5,7.5v20c0,4.142,3.357,7.5,7.5,7.5h64.246L35,191.746  v-64.245c0-4.142-3.358-7.5-7.5-7.5h-20c-4.143,0-7.5,3.358-7.5,7.5v116.494c0,4.142,3.357,7.5,7.5,7.5h116.496  c4.143,0,7.5-3.358,7.5-7.5v-20c0-4.142-3.357-7.5-7.5-7.5H59.75L216.496,59.749v64.246c0,4.142,3.357,7.5,7.5,7.5h20  c4.143,0,7.5-3.358,7.5-7.5V7.5C251.496,3.358,248.139,0,243.996,0z" fill="#810101"/>
<g>
</g>
<g>
</g>
<g>
</g>
<g>
</g>
<g>
</g>
<g>
</g>
<g>
</g>
<g>
</g>
<g>
</g>
<g>
</g>
<g>
</g>
<g>
</g>
<g>
</g>
<g>
</g>
<g>
</g>
</svg>
