<svg xmlns="http://www.w3.org/2000/svg" viewBox="0 0 142.69 142.69"><defs><style>.cls-1{fill:#dfeffb;}.cls-2{fill:#63b9fa;stroke-linecap:square;}.cls-2,.cls-3,.cls-4{stroke:#0976d4;stroke-width:3px;}.cls-2,.cls-3{stroke-linejoin:round;}.cls-3{fill:#fff;}.cls-3,.cls-4{stroke-linecap:round;}.cls-4{fill:none;}.cls-5{fill:#0976d4;}</style></defs><title>Asset 1</title><g id="Layer_2" data-name="Layer 2"><g id="Layer_1-2" data-name="Layer 1"><circle class="cls-1" cx="71.34" cy="71.34" r="71.34"/><circle class="cls-2" cx="38.35" cy="82.92" r="12"/><circle class="cls-2" cx="99.92" cy="75.84" r="14.46"/><path class="cls-2" d="M32.18,94.92H44.06a13.47,13.47,0,0,1,13.47,13.47v5a0,0,0,0,1,0,0H18.71a0,0,0,0,1,0,0v-5A13.47,13.47,0,0,1,32.18,94.92Z"/><path class="cls-2" d="M92.47,90.3h14.89a16.12,16.12,0,0,1,16.12,16.12v6.24a.78.78,0,0,1-.78.78H77.14a.78.78,0,0,1-.78-.78v-6.24A16.12,16.12,0,0,1,92.47,90.3Z"/><path class="cls-3" d="M100.25,44.9c5.33-3.76,7.54-8.49,7.54-15.21,0-12-11.25-21.64-25.13-21.64-9.16,0-17.17,4.22-21.56,10.52C72.48,20.63,81,29.33,81,39.75a19.27,19.27,0,0,1-3.57,11.11,28.68,28.68,0,0,0,5.21.47A29,29,0,0,0,91.41,50l12.93,6.84L100.25,44.9ZM91.43,50l.25-.08Z"/><path class="cls-3" d="M81,39.75a19.27,19.27,0,0,1-3.57,11.11C66.07,48.8,57.53,40.1,57.53,29.69A19.3,19.3,0,0,1,61.1,18.57C72.48,20.63,81,29.33,81,39.75Z"/><path class="cls-3" d="M61.1,18.57a28.68,28.68,0,0,0-5.21-.47C42,18.1,30.76,27.79,30.76,39.75A20.45,20.45,0,0,0,39.27,56L35.2,67.6l14.31-6.91a28.94,28.94,0,0,0,6.38.7c9.16,0,17.18-4.22,21.56-10.53"/><path class="cls-3" d="M77.45,50.86A19.27,19.27,0,0,0,81,39.75c0-10.42-8.54-19.12-19.92-21.18"/><line class="cls-4" x1="74.94" y1="21.62" x2="95.52" y2="21.62"/><line class="cls-4" x1="95.52" y1="28.7" x2="77.5" y2="28.7"/><line class="cls-4" x1="95.52" y1="36.17" x2="80.67" y2="36.17"/><path class="cls-5" d="M46.68,35.4a2,2,0,0,0-1.13.27,1.17,1.17,0,0,1-1.47-.27h0a1.21,1.21,0,0,1,.22-1.78,4.25,4.25,0,0,1,2.51-.77c2.35,0,3.73,1.37,3.73,3,0,3.16-2.89,3.38-2.94,4.91a.2.2,0,0,1-.19.21H45.48a.21.21,0,0,1-.2-.19c-.24-2.63,2.52-2.51,2.52-4.37A1.11,1.11,0,0,0,46.68,35.4Zm-.09,6.32a1.63,1.63,0,0,1,1.6,1.6,1.66,1.66,0,0,1-1.6,1.73,1.68,1.68,0,0,1-1.73-1.73A1.65,1.65,0,0,1,46.59,41.72Z"/><path class="cls-5" d="M54.85,35.4a2,2,0,0,0-1.12.27,1.17,1.17,0,0,1-1.47-.27h0a1.21,1.21,0,0,1,.21-1.78A4.26,4.26,0,0,1,55,32.85c2.35,0,3.72,1.37,3.72,3,0,3.16-2.88,3.38-2.93,4.91a.21.21,0,0,1-.2.21H53.66a.21.21,0,0,1-.2-.19C53.22,38.19,56,38.31,56,36.45A1.12,1.12,0,0,0,54.85,35.4Zm-.08,6.32a1.63,1.63,0,0,1,1.6,1.6,1.66,1.66,0,0,1-1.6,1.73A1.68,1.68,0,0,1,53,43.32,1.65,1.65,0,0,1,54.77,41.72Z"/><path class="cls-5" d="M63,35.4a2,2,0,0,0-1.12.27,1.19,1.19,0,0,1-1.48-.27h0a1.21,1.21,0,0,1,.22-1.78,4.26,4.26,0,0,1,2.52-.77c2.34,0,3.72,1.37,3.72,3,0,3.16-2.89,3.38-2.93,4.91a.22.22,0,0,1-.2.21H61.84a.22.22,0,0,1-.21-.19c-.24-2.63,2.52-2.51,2.52-4.37A1.11,1.11,0,0,0,63,35.4ZM63,41.72a1.62,1.62,0,0,1,1.59,1.6A1.65,1.65,0,0,1,63,45.05a1.69,1.69,0,0,1-1.74-1.73A1.66,1.66,0,0,1,63,41.72Z"/></g></g></svg>