<svg xmlns="http://www.w3.org/2000/svg" viewBox="0 0 164.22 144.38"><defs><style>.cls-1{fill:#dfeffb;}.cls-2,.cls-5,.cls-6,.cls-7{fill:#fff;}.cls-2,.cls-3,.cls-4,.cls-5,.cls-6,.cls-7{stroke:#0976d4;stroke-width:3px;}.cls-3{fill:#63b9fa;}.cls-3,.cls-4,.cls-5,.cls-6{stroke-linecap:round;}.cls-3,.cls-5,.cls-7{stroke-linejoin:round;}.cls-4{fill:none;}</style></defs><title>Asset 2</title><g id="Layer_2" data-name="Layer 2"><g id="Layer_1-2" data-name="Layer 1"><circle class="cls-1" cx="84.49" cy="73.03" r="71.34"/><rect class="cls-2" x="40.07" y="18.34" width="9.99" height="28.05" transform="translate(-9.44 21.99) rotate(-24.91)"/><path class="cls-3" d="M69,34.51h0A10.09,10.09,0,0,1,79.09,44.6v88.7a0,0,0,0,1,0,0H58.91a0,0,0,0,1,0,0V44.6A10.09,10.09,0,0,1,69,34.51Z" transform="translate(-28.92 36.86) rotate(-24.91)"/><path class="cls-2" d="M16.63,28.72l-4-8.23a6.56,6.56,0,0,0,5.06-.2c2.92-1.36,5.36-3.29,5.7-6.39a.32.32,0,0,1,.61-.1l5.69,12.25c-1.53-3.3-6.15-3.11-9.45-1.58a7.3,7.3,0,0,0-3.57,4Z"/><rect class="cls-2" x="25.53" y="4.44" width="22.52" height="20.18" rx="2.63" ry="2.63" transform="matrix(0.91, -0.42, 0.42, 0.91, -2.7, 16.84)"/><rect class="cls-2" x="4.57" y="17.03" width="10.2" height="20.18" rx="2.16" ry="2.16" transform="translate(-10.52 6.6) rotate(-24.91)"/><line class="cls-4" x1="55.87" y1="47.13" x2="74.08" y2="86.36"/><line class="cls-4" x1="76.14" y1="90.79" x2="79" y2="96.95"/><path class="cls-5" d="M48.82,13.81,44.54,4.5l.57-.28S63.83-4.85,71.8,14.52c0,0-10.74-7.67-22.35-1Z"/><path class="cls-2" d="M141.93,37.62a18.43,18.43,0,0,1-25.38,5.93,18.44,18.44,0,0,1,11.77-34L120.78,21.7a4,4,0,0,0,1.29,5.51l7,4.32a4,4,0,0,0,5.51-1.28l7.45-12A18.42,18.42,0,0,1,141.93,37.62Z"/><line class="cls-6" x1="114.09" y1="47.5" x2="98.75" y2="72.19"/><path class="cls-2" d="M84.2,111.28a19.34,19.34,0,0,0,17.64-9.13,18.43,18.43,0,1,0-31.17.22L78.2,90.25A4,4,0,0,1,83.7,89l7,4.32A4,4,0,0,1,92,98.8l-7.45,12Z"/><path class="cls-7" d="M86.52,74a17.54,17.54,0,0,1,9.38,2.78c5.74,3.56,6.93,7.36,6.93,7.36s1.08-14.57,23.38-37.64a19,19,0,0,1-9.66-3c-5.46-3.39-6.65-7.19-6.65-7.19l-.05.09C99.05,66.66,86.52,74,86.52,74"/><polygon class="cls-2" points="140.88 86.16 128.96 88.59 120.9 79.49 124.76 67.95 136.67 65.53 144.73 74.63 140.88 86.16"/><polygon class="cls-2" points="158.67 113.13 146.76 115.56 138.7 106.45 142.55 94.92 154.47 92.49 162.53 101.59 158.67 113.13"/><circle class="cls-4" cx="132.82" cy="77.06" r="4.62"/><circle class="cls-4" cx="150.61" cy="104.02" r="4.62"/></g></g></svg>