<?xml version="1.0" encoding="iso-8859-1"?>
<!-- Generator: Adobe Illustrator 19.0.0, SVG Export Plug-In . SVG Version: 6.00 Build 0)  -->
<svg version="1.1" id="Layer_1" xmlns="http://www.w3.org/2000/svg" xmlns:xlink="http://www.w3.org/1999/xlink" x="0px" y="0px"
	 viewBox="0 0 488 488" style="enable-background:new 0 0 488 488;" xml:space="preserve">
<g>
	<g>
		<path fill="#0976d4" d="M416.5,71.5C370.4,25.4,309.2,0,244,0S117.6,25.4,71.5,71.5C25.4,117.6,0,178.8,0,244s25.4,126.4,71.5,172.5
			C117.6,462.6,178.8,488,244,488c39.7,0,79-9.7,113.9-28.2c8.8-4.6,12.1-15.5,7.5-24.3c-4.6-8.8-15.5-12.1-24.3-7.5
			c-29.7,15.7-63.2,24-97.1,24c-114.7,0-208-93.3-208-208S129.3,36,244,36s208,93.3,208,208c0,38.6-10.8,60.6-19.9,72.2
			c-9.7,12.5-22.7,19.6-35.7,19.6c-18.1,0-36.4-14.4-36.4-46.6V149.1c0-9.9-8.1-18-18-18c-9.9,0-18,8.1-18,18v7.9
			c-22.4-22.5-53.3-36.4-87.5-36.4C168.4,120.5,113,175.9,113,244s55.4,123.5,123.5,123.5c12.1,0,24-1.7,35.4-5.2
			c9.5-2.8,14.9-12.9,12.1-22.4s-12.9-14.9-22.4-12.1c-8.1,2.4-16.6,3.7-25.1,3.7c-48.2,0-87.5-39.2-87.5-87.5
			c0-48.2,39.2-87.5,87.5-87.5S324,195.7,324,244v45.2c0,54.2,36.4,82.6,72.4,82.6c24.1,0,47.5-12.2,64.1-33.5
			c18-23.1,27.5-55.7,27.5-94.3C488,178.8,462.6,117.6,416.5,71.5z"/>
	</g>
</g>
<g>
</g>
<g>
</g>
<g>
</g>
<g>
</g>
<g>
</g>
<g>
</g>
<g>
</g>
<g>
</g>
<g>
</g>
<g>
</g>
<g>
</g>
<g>
</g>
<g>
</g>
<g>
</g>
<g>
</g>
</svg>
