<?xml version="1.0" encoding="iso-8859-1"?>
<!-- Generator: Adobe Illustrator 19.0.0, SVG Export Plug-In . SVG Version: 6.00 Build 0)  -->
<svg version="1.1" id="Capa_1" xmlns="http://www.w3.org/2000/svg" xmlns:xlink="http://www.w3.org/1999/xlink" x="0px" y="0px"
	 viewBox="0 0 512 512" style="enable-background:new 0 0 512 512;" xml:space="preserve">
<g>
	<g>
		<path fill="#0976d4" d="M256,0C142.108,0,49.449,92.659,49.449,206.55H79.45c0-97.349,79.2-176.549,176.55-176.549s176.55,79.2,176.55,176.549
			h30.001C462.551,92.659,369.892,0,256,0z"/>
	</g>
</g>
<g>
	<g>
		<path fill="#0976d4" d="M417.056,210.728c-2.64-39.812-20.891-78.803-50.082-106.984c-30.871-29.811-70.643-45.032-111.984-42.832
			c-41.852,2.21-76.513,17.871-103.024,46.542c-26.291,28.441-36.741,64.072-44.052,88.113
			c-10.86,35.721-41.842,55.472-58.462,63.753v32.861c11.96-3.37,68.503-22.101,87.713-89.953
			c11.1-39.182,36.591-106.984,119.405-111.364c73.023-3.84,126.445,59.892,130.555,121.855
			c4.08,61.332,57.192,96.354,75.023,105.584c0.27-4.25,0.4-8.54,0.4-12.85v-22.171C444.957,270.661,419.406,246.01,417.056,210.728
			z"/>
	</g>
</g>
<g>
	<g>
		<path fill="#0976d4" d="M363.844,214.278c-1.93-34.731-19.151-66.363-45.472-84.653c-16.931-11.771-37.931-17.331-59.122-15.661
			c-21.611,1.71-41.452,10.82-55.882,25.661c-24.561,25.291-34.911,60.732-44.042,92.004c-0.57,1.95-1.13,3.88-1.7,5.8
			c-12.03,40.932-64.463,77.943-107.604,83.503c0.75,10.11,2.23,20.011,4.38,29.661c27.241-3.77,65.833-19.511,86.723-36.791
			c21.881-18.091,37.541-41.572,45.282-67.913c0.57-1.93,1.14-3.88,1.72-5.85c8.55-29.281,17.391-59.562,36.761-79.503
			c19.301-19.861,52.852-22.621,76.363-6.27c18.861,13.101,31.061,36.231,32.651,61.872c1.17,18.841,6.09,55.782,25.911,91.474
			c17.841,32.121,55.732,62.022,88.213,74.053c3.67-9.23,6.69-18.781,9-28.601C402.356,333.113,367.214,274.911,363.844,214.278z"/>
	</g>
</g>
<g>
	<g>
		<path fill="#0976d4" d="M302.342,199.688c-6.91-13.411-22.171-25.821-40.682-23.311c-24.941,3.39-43.052,31.331-53.842,83.073
			C192.218,334.213,87.313,372.935,63.573,380.655c3.69,9.45,8.07,18.571,13.05,27.281c17.071-5.85,53.832-19.991,83.243-39.572
			c43.052-28.651,69.063-63.232,77.313-102.794c9.42-45.162,22.361-58.632,28.511-59.462c3.6-0.49,7.97,3.41,9.98,7.31
			c0.27,0.53,27.161,53.982,5.33,119.045c-18.241,54.402-72.233,104.334-145.796,140.545c9.49,6.86,19.591,12.93,30.201,18.111
			c75.533-39.092,123.955-89.224,144.046-149.116C335.253,265.06,303.692,202.318,302.342,199.688z"/>
	</g>
</g>
<g>
	<g>
		<path fill="#0976d4" d="M329.483,385.055l-13.031,7.43l-13.061,7.38c1.23,2.18,27.181,47.092,80.493,67.793c9-7.11,17.401-14.951,25.111-23.431
			C356.354,430.927,329.753,385.525,329.483,385.055z"/>
	</g>
</g>
<g>
	<g>
		<path fill="#0976d4" d="M348.124,329.353l-12.451,8.36l-12.461,8.35c0.53,0.79,13.211,19.621,32.331,38.612
			c23.991,23.841,47.182,37.311,69.063,40.122c5.73-8.08,10.89-16.601,15.431-25.481
			C402.436,397.135,359.964,346.974,348.124,329.353z"/>
	</g>
</g>
<g>
	<g>
		<path fill="#0976d4" d="M299.512,445.667l-11.52-12.61l-11.02,13.06c-13.23,15.671-44.102,33.651-54.882,39.252l6.91,13.321l6.38,12.29l0.53,1.02
			c0.17-0.09,0.71-0.37,1.56-0.82c6.62-3.55,32.161-17.661,51.052-34.281c8.25,7.53,20.281,17.381,33.381,24.361
			c11.38-3.82,22.321-8.62,32.721-14.291C333.573,475.359,299.692,445.857,299.512,445.667z"/>
	</g>
</g>
<g>
	<g>
		<path fill="#0976d4" d="M245.17,295.202c-18.751,44.632-48.942,80.453-89.724,106.484c-27.141,17.321-57.152,26.601-64.023,28.591
			c6.64,8.74,13.961,16.931,21.881,24.501c10.89-3.46,32.481-11.51,57.172-27.101c32.021-20.221,75.773-57.602,102.354-120.855
			L245.17,295.202z"/>
	</g>
</g>
<g>
</g>
<g>
</g>
<g>
</g>
<g>
</g>
<g>
</g>
<g>
</g>
<g>
</g>
<g>
</g>
<g>
</g>
<g>
</g>
<g>
</g>
<g>
</g>
<g>
</g>
<g>
</g>
<g>
</g>
</svg>
