<?xml version="1.0" encoding="iso-8859-1"?>
<!-- Generator: Adobe Illustrator 18.1.1, SVG Export Plug-In . SVG Version: 6.00 Build 0)  -->
<svg version="1.1" id="Capa_1" xmlns="http://www.w3.org/2000/svg" xmlns:xlink="http://www.w3.org/1999/xlink" x="0px" y="0px"
	 viewBox="0 0 116.313 116.313" style="enable-background:new 0 0 116.313 116.313;" xml:space="preserve">
<g>
	<g>
		<path style="fill:lightgrey;" d="M58.156,0C33.745,0,13.958,19.787,13.958,44.206c0,34.114,44.199,72.107,44.199,72.107
			s44.199-39.546,44.199-72.107C102.355,19.787,82.564,0,58.156,0z M58.156,10.085c17.984,0,32.568,14.573,32.568,32.568
			c0,7.712-2.691,14.788-7.172,20.36c-1.063-1.489-2.613-2.691-4.313-3.053l-9.13-1.929l-1.886-3.847
			c-0.089-0.197-0.251-0.336-0.44-0.433c1.65-2.126,2.978-4.635,3.93-7.165c1.632-0.594,3.271-2.033,3.743-3.933
			c0.63-2.516-0.032-4.756-1.589-5.737v-1.772c1.417-4.287,2.162-11.295-4.298-15.078c-2.899-1.678-5.297-1.797-7.1-1.195
			c-0.286-0.741,0.551-1.804,0.551-1.804c-1.489-0.054-2.273,0.748-2.595,1.188c-1.99-0.909-4.592-1.299-7.92-0.608
			c-10.686,2.237-12.05,16.234-10.096,19.301c-1.525,0.991-2.176,3.214-1.55,5.701c0.476,1.9,2.129,3.357,3.761,3.951
			c0.941,2.53,2.251,5.039,3.894,7.158c-0.179,0.097-0.333,0.229-0.426,0.426l-1.882,3.847L37.07,59.96
			c-1.696,0.369-3.242,1.568-4.305,3.053c-4.481-5.579-7.176-12.648-7.176-20.36C25.589,24.669,40.169,10.085,58.156,10.085z
			 M44.718,36.311v-0.834c0.222-2.054,2.154-5.937,12.823-2.444c3.668,1.202,5.941-0.701,7.086-3.235
			c3.622,0.404,6.041,4.52,6.964,7.057v2.011c0.136-0.075,0.268-0.122,0.408-0.147c-0.011,0.014-0.004,0.054-0.011,0.061
			c0.029,0.039,0.079,0.014,0.154-0.047c0.086,0,0.172-0.014,0.247,0c0.88,0.251,1.27,1.754,0.862,3.375
			c-0.394,1.568-2.387,2.652-3.246,2.491c-1.371,4.166-4.348,9.709-8.668,11.638c-0.998,0.444-2.054,0.694-3.189,0.694
			c-1.145,0-2.219-0.251-3.217-0.691c-4.316-1.9-7.233-7.369-8.614-11.642c-0.866,0.186-2.874-0.905-3.271-2.491
			c-0.404-1.621-0.018-3.124,0.862-3.375c0.261-0.075,0.53,0,0.802,0.132V36.44c0.004-0.014,0.007-0.014,0.011-0.025
			C44.725,36.393,44.721,36.347,44.718,36.311z M67.508,57.491l0.58,1.188l0.168,0.347l-0.97,0.555l-6.413,3.711l-1.421-2.91
			l3.106-1.793l1.349-0.791l1.356-0.791l1.564-0.895L67.508,57.491z M49.478,56.116l1.564,0.902l1.356,0.791l1.353,0.787
			l3.099,1.793l-1.417,2.906l-6.413-3.708l-0.97-0.558l0.168-0.351l0.583-1.181L49.478,56.116z M55.347,65.679
			c0.165,0.089,0.347,0.132,0.53,0.132c0.104,0,0.204-0.018,0.301-0.043c0.279-0.075,0.512-0.283,0.637-0.544l1.338-2.738
			l1.338,2.738c0.129,0.261,0.358,0.469,0.633,0.544c0.104,0.025,0.2,0.043,0.304,0.043c0.183,0,0.372-0.043,0.526-0.132
			l9.187-5.322c0.064-0.039,0.1-0.086,0.154-0.129l8.5,1.789c1.31,0.279,2.609,1.349,3.35,2.609
			c-5.955,6.496-14.484,10.597-23.996,10.597s-18.041-4.101-23.996-10.597c0.741-1.26,2.033-2.323,3.346-2.609l8.5-1.789
			c0.054,0.043,0.093,0.089,0.154,0.129L55.347,65.679z"/>
	</g>
</g>
<g>
</g>
<g>
</g>
<g>
</g>
<g>
</g>
<g>
</g>
<g>
</g>
<g>
</g>
<g>
</g>
<g>
</g>
<g>
</g>
<g>
</g>
<g>
</g>
<g>
</g>
<g>
</g>
<g>
</g>
</svg>
