<svg xmlns="http://www.w3.org/2000/svg" viewBox="0 0 122.82 240.57"><defs><style>.cls-1,.cls-2,.cls-3,.cls-4,.cls-5,.cls-8{fill:none;}.cls-1,.cls-2,.cls-4,.cls-8{stroke:#0976d4;}.cls-1,.cls-4,.cls-5,.cls-8{stroke-miterlimit:10;}.cls-1,.cls-2,.cls-3,.cls-5{stroke-width:3px;}.cls-2,.cls-3{stroke-linejoin:round;}.cls-3{stroke:#71b9f4;}.cls-4{stroke-width:6px;}.cls-5{stroke:#63b9fa;}.cls-6{fill:#0976d4;}.cls-7{fill:#63b9fa;}.cls-8{stroke-width:2px;}</style></defs><title>Asset 33</title><g id="Layer_2" data-name="Layer 2"><g id="Layer_1-2" data-name="Layer 1"><path class="cls-1" d="M32.37,228.74V209.39c3,.65,6,1.09,6,1.09v18.26"/><path class="cls-1" d="M86.33,228.72l-.14-18.67s3.09-.54,6.18-1.23v19.94"/><rect class="cls-1" x="29.46" y="227.23" width="11.84" height="11.84" rx="2.2" ry="2.2"/><rect class="cls-1" x="83.36" y="227.23" width="11.84" height="11.84" rx="2.2" ry="2.2"/><rect class="cls-2" x="1.72" y="17.67" width="119.37" height="178.25"/><path class="cls-3" d="M1.5,195.92H121.32S105,212.09,60.72,212.09C17.39,212.09,1.5,195.92,1.5,195.92Z"/><path class="cls-3" d="M1.5,17.67H121.32S105,1.5,60.72,1.5C17.39,1.5,1.5,17.67,1.5,17.67Z"/><circle class="cls-4" cx="61.74" cy="72.69" r="21.65"/><circle class="cls-5" cx="61.71" cy="76.4" r="3.66"/><path class="cls-6" d="M62,60.24c-3.22,0-6.48,1.33-11.76,4.4a22.15,22.15,0,0,1,10.21-2.75,15,15,0,0,1,10.47,3.94l1.85-2.37c-4.69-2-7.72-3.22-10.77-3.22Z"/><polygon class="cls-7" points="61.71 76.4 58.63 74.43 53.57 60.24 61.71 72.74 61.71 76.4"/><circle class="cls-1" cx="60.67" cy="166.93" r="12.12"/><path class="cls-7" d="M58.07,168.07h-4a.3.3,0,0,0-.3.3v1.1a.29.29,0,0,0,.3.3h4a.29.29,0,0,0,.3-.3v-1.1a.3.3,0,0,0-.3-.3Z"/><path class="cls-6" d="M61.23,145.48H60.12a.3.3,0,0,0-.3.3v4a.3.3,0,0,0,.3.3h1.11a.3.3,0,0,0,.3-.3v-4a.3.3,0,0,0-.3-.3Z"/><path class="cls-6" d="M42.23,168.07h-4a.3.3,0,0,0-.3.3v1.1a.29.29,0,0,0,.3.3h4a.29.29,0,0,0,.3-.3v-1.1a.3.3,0,0,0-.3-.3Z"/><path class="cls-6" d="M83.13,168.07h-4a.31.31,0,0,0-.3.3v1.1a.3.3,0,0,0,.3.3h4a.3.3,0,0,0,.3-.3v-1.1a.31.31,0,0,0-.3-.3Z"/><path class="cls-7" d="M78.83,153.56h0m-1.91-2.21a.31.31,0,0,0-.22.09l-2.84,2.84a.3.3,0,0,0,0,.43l.78.78a.32.32,0,0,0,.42,0l2.85-2.85a.31.31,0,0,0,0-.42l-.78-.78a.3.3,0,0,0-.21-.09Z"/><path class="cls-7" d="M46.3,153.56h0m-1.91-2.21a.3.3,0,0,0-.21.09l-.78.78a.29.29,0,0,0,0,.42l2.85,2.85a.32.32,0,0,0,.42,0l.78-.78a.3.3,0,0,0,0-.43l-2.85-2.84a.27.27,0,0,0-.21-.09Z"/><line class="cls-8" x1="30.91" y1="231.56" x2="39.48" y2="231.56"/><line class="cls-8" x1="30.91" y1="234.81" x2="39.84" y2="234.81"/><line class="cls-8" x1="84.81" y1="231.52" x2="93.38" y2="231.52"/><line class="cls-8" x1="84.81" y1="234.77" x2="93.75" y2="234.77"/><path class="cls-7" d="M49.73,202.37H45.36a.29.29,0,0,0-.3.3v2.66a.29.29,0,0,0,.3.3h4.37a.3.3,0,0,0,.3-.3v-2.66a.3.3,0,0,0-.3-.3Z"/><path class="cls-7" d="M70.24,202.37H65.87a.29.29,0,0,0-.3.3v2.66a.29.29,0,0,0,.3.3h4.37a.29.29,0,0,0,.3-.3v-2.66a.29.29,0,0,0-.3-.3Z"/><circle class="cls-2" cx="51.47" cy="204" r="2.1"/><circle class="cls-2" cx="71.93" cy="204" r="2.1"/></g></g></svg>