<svg xmlns="http://www.w3.org/2000/svg" viewBox="0 0 101.04 197.39"><defs><style>.cls-1,.cls-2,.cls-3,.cls-4,.cls-5,.cls-8{fill:none;}.cls-1,.cls-2,.cls-4,.cls-8{stroke:#0976d4;}.cls-1,.cls-4,.cls-5,.cls-8{stroke-miterlimit:10;}.cls-1,.cls-2,.cls-3,.cls-5{stroke-width:3px;}.cls-2,.cls-3{stroke-linejoin:round;}.cls-3{stroke:#71b9f4;}.cls-4{stroke-width:6px;}.cls-5{stroke:#63b9fa;}.cls-6{fill:#0976d4;}.cls-7{fill:#63b9fa;}.cls-8{stroke-width:2px;}</style></defs><title>Asset 13</title><g id="Layer_2" data-name="Layer 2"><g id="Layer_1-2" data-name="Layer 1"><path class="cls-1" d="M26.76,187.44V171.61c2.46.53,4.92.89,4.92.89v14.94"/><path class="cls-1" d="M70.92,187.43l-.12-15.28s2.52-.44,5-1v16.32"/><rect class="cls-1" x="24.38" y="186.2" width="9.69" height="9.69" rx="2.2" ry="2.2"/><rect class="cls-1" x="68.48" y="186.2" width="9.69" height="9.69" rx="2.2" ry="2.2"/><rect class="cls-2" x="1.68" y="14.73" width="97.68" height="145.85"/><path class="cls-3" d="M1.5,160.58h98S86.17,173.81,50,173.81C14.51,173.81,1.5,160.58,1.5,160.58Z"/><path class="cls-3" d="M1.5,14.73h98S86.17,1.5,50,1.5C14.51,1.5,1.5,14.73,1.5,14.73Z"/><circle class="cls-4" cx="50.79" cy="59.75" r="17.71"/><circle class="cls-5" cx="50.77" cy="62.79" r="3"/><path class="cls-6" d="M51,49.56c-2.64,0-5.3,1.09-9.63,3.61a18,18,0,0,1,8.36-2.25,12.33,12.33,0,0,1,8.57,3.22l1.51-1.94C56,50.54,53.48,49.56,51,49.56Z"/><polygon class="cls-7" points="50.77 62.79 48.24 61.18 44.11 49.56 50.77 59.79 50.77 62.79"/><circle class="cls-1" cx="49.92" cy="136.87" r="9.92"/><path class="cls-7" d="M47.74,137.8H44.55a.3.3,0,0,0-.3.3v.79a.3.3,0,0,0,.3.3h3.19a.3.3,0,0,0,.3-.3v-.79a.3.3,0,0,0-.3-.3Z"/><path class="cls-6" d="M50.32,119.31h-.8a.3.3,0,0,0-.3.3v3.18a.3.3,0,0,0,.3.3h.8a.3.3,0,0,0,.3-.3v-3.18a.3.3,0,0,0-.3-.3Z"/><path class="cls-6" d="M34.77,137.8H31.59a.29.29,0,0,0-.3.3v.79a.29.29,0,0,0,.3.3h3.18a.29.29,0,0,0,.3-.3v-.79a.29.29,0,0,0-.3-.3Z"/><path class="cls-6" d="M68.24,137.8H65.05a.3.3,0,0,0-.3.3v.79a.3.3,0,0,0,.3.3h3.19a.3.3,0,0,0,.3-.3v-.79a.3.3,0,0,0-.3-.3Z"/><path class="cls-7" d="M65.12,126.35h0m-1.91-2.21a.29.29,0,0,0-.21.09l-2.25,2.25a.29.29,0,0,0,0,.42l.56.56a.29.29,0,0,0,.42,0L64,125.21a.29.29,0,0,0,0-.42l-.56-.56a.29.29,0,0,0-.21-.09Z"/><path class="cls-7" d="M38.51,126.35h0m-1.91-2.21a.27.27,0,0,0-.21.09l-.57.56a.31.31,0,0,0,0,.42l2.26,2.25a.27.27,0,0,0,.21.09.29.29,0,0,0,.21-.09l.56-.56a.29.29,0,0,0,0-.42l-2.25-2.25a.3.3,0,0,0-.21-.09Z"/><line class="cls-8" x1="25.56" y1="189.75" x2="32.58" y2="189.75"/><line class="cls-8" x1="25.56" y1="192.41" x2="32.88" y2="192.41"/><line class="cls-8" x1="69.67" y1="189.72" x2="76.68" y2="189.72"/><line class="cls-8" x1="69.67" y1="192.38" x2="76.98" y2="192.38"/><path class="cls-7" d="M40.91,165.86H37.44a.3.3,0,0,0-.3.3v2.07a.29.29,0,0,0,.3.3h3.47a.3.3,0,0,0,.3-.3v-2.07a.31.31,0,0,0-.3-.3Z"/><path class="cls-7" d="M57.69,165.86H54.23a.3.3,0,0,0-.3.3v2.07a.29.29,0,0,0,.3.3h3.46a.29.29,0,0,0,.3-.3v-2.07a.3.3,0,0,0-.3-.3Z"/><circle class="cls-2" cx="42.39" cy="167.2" r="1.72"/><circle class="cls-2" cx="59.13" cy="167.2" r="1.72"/></g></g></svg>