<svg xmlns="http://www.w3.org/2000/svg" viewBox="0 0 174.23 151.28"><defs><style>.cls-1,.cls-2{fill:none;stroke-linecap:round;stroke-linejoin:round;stroke-width:3px;}.cls-1{stroke:#0976d4;}.cls-2{stroke:#63b9fa;}</style></defs><title>Asset 21</title><g id="Layer_2" data-name="Layer 2"><g id="Layer_1-2" data-name="Layer 1"><rect class="cls-1" x="5.82" y="137.32" width="162.9" height="12.46"/><path class="cls-1" d="M101.82,38V57.23A4.86,4.86,0,0,1,97,62.09H94.45v75.24H80.17V62.09h-2.5a4.85,4.85,0,0,1-4.86-4.86V38a4.88,4.88,0,0,1,4.86-4.88H97A4.88,4.88,0,0,1,101.82,38Z"/><rect class="cls-1" x="82.17" y="42.45" width="10.29" height="10.29" rx="0.94" ry="0.94"/><path class="cls-1" d="M25.61,137.32v-20s-10.23-2-13.7-6c-6.76-7.67-7.85-20.93-7.85-20.93S16.49,92.26,22.87,98c4.49,4,6.3,14.42,6.3,14.42s1.21-8,5.48-11.41c6.39-5,18.22-4.28,18.22-4.28s-3,14.86-9.72,18.8c-4.35,2.57-10.92,1.4-10.92,1.4s-.3,6.68-.19,10.17A36.26,36.26,0,0,0,34,137.32Z"/><path class="cls-1" d="M151.18,137.32v-20s10.23-2,13.7-6c6.76-7.67,7.85-20.93,7.85-20.93S160.3,92.26,153.92,98c-4.5,4-6.3,14.42-6.3,14.42s-1.21-8-5.48-11.41c-6.39-5-18.22-4.28-18.22-4.28s3,14.86,9.72,18.8c4.35,2.57,10.92,1.4,10.92,1.4s.3,6.68.18,10.17a36.05,36.05,0,0,1-1.92,10.26Z"/><path class="cls-2" d="M27.28,12.45,19.15,2.8A2.69,2.69,0,0,0,15,2.86h0A2.69,2.69,0,0,0,15.92,7Z"/><path class="cls-2" d="M43.5,21.92l-7.36-8.73a2.44,2.44,0,0,0-3.77.05h0a2.44,2.44,0,0,0,.85,3.7Z"/><path class="cls-2" d="M61.34,33.08l-5.66-6.72a1.88,1.88,0,0,0-2.9,0h0a1.88,1.88,0,0,0,.65,2.85Z"/><path class="cls-2" d="M144.78,12.11l8.13-9.65a2.7,2.7,0,0,1,4.17.06h0a2.69,2.69,0,0,1-.94,4.09Z"/><path class="cls-2" d="M128.56,21.58l7.36-8.73a2.44,2.44,0,0,1,3.77.05h0a2.44,2.44,0,0,1-.85,3.7Z"/><path class="cls-2" d="M110.72,32.74,116.38,26a1.87,1.87,0,0,1,2.9,0h0a1.88,1.88,0,0,1-.65,2.85Z"/><path class="cls-2" d="M146.46,80.17l8.14,9.65a2.69,2.69,0,0,0,4.16-.06h0a2.69,2.69,0,0,0-.94-4.09Z"/><path class="cls-2" d="M130.25,70.7l7.35,8.73a2.44,2.44,0,0,0,3.77-.05h0a2.43,2.43,0,0,0-.85-3.7Z"/><path class="cls-2" d="M112.41,59.54l5.66,6.72a1.88,1.88,0,0,0,2.9,0h0a1.88,1.88,0,0,0-.65-2.85Z"/><path class="cls-2" d="M29.8,79.82l-8.14,9.66a2.69,2.69,0,0,1-4.16-.06h0a2.69,2.69,0,0,1,.93-4.09Z"/><path class="cls-2" d="M46,70.36l-7.36,8.73a2.43,2.43,0,0,1-3.76,0h0a2.43,2.43,0,0,1,.84-3.7Z"/><path class="cls-2" d="M63.85,59.2l-5.66,6.72a1.88,1.88,0,0,1-2.9,0h0A1.87,1.87,0,0,1,55.94,63Z"/><path class="cls-2" d="M156.47,46.89l12.18-3.34A2.68,2.68,0,0,1,172,46h0A2.69,2.69,0,0,1,169,48.8Z"/><path class="cls-2" d="M133.17,46.82l11-3A2.44,2.44,0,0,1,147.25,46h0a2.43,2.43,0,0,1-2.79,2.56Z"/><path class="cls-2" d="M112.55,46.66,121,44.33A1.88,1.88,0,0,1,123.39,46h0a1.87,1.87,0,0,1-2.15,2Z"/><path class="cls-2" d="M17.08,46.89,4.9,43.55A2.68,2.68,0,0,0,1.51,46h0A2.69,2.69,0,0,0,4.6,48.8Z"/><path class="cls-2" d="M40.38,46.82l-11-3A2.44,2.44,0,0,0,26.3,46h0a2.43,2.43,0,0,0,2.79,2.56Z"/><path class="cls-2" d="M61,46.66l-8.47-2.33A1.88,1.88,0,0,0,50.16,46h0a1.87,1.87,0,0,0,2.15,2Z"/><path class="cls-1" d="M152.9,112.32s5.88-4.07,13.17-14.36"/><path class="cls-1" d="M23.5,111.19s-5.88-4.07-13.17-14.36"/></g></g></svg>