<svg xmlns="http://www.w3.org/2000/svg" viewBox="0 0 1490.83 1490.83"><defs><style>.cls-1,.cls-2,.cls-3{fill:none;}.cls-1{stroke:#0976d4;}.cls-1,.cls-2{stroke-linecap:round;stroke-linejoin:round;stroke-width:16px;}.cls-2{stroke:#63b9fa;}</style></defs><title>Asset 27</title><g id="Layer_2" data-name="Layer 2"><g id="Layer_1-2" data-name="Layer 1"><rect class="cls-1" x="306.27" y="1041.84" width="866.41" height="66.28"/><path class="cls-1" d="M816.87,513.39V615.86A25.86,25.86,0,0,1,791,641.74H777.68v400.13H701.74V641.74H688.43a25.86,25.86,0,0,1-25.87-25.88V513.39a26,26,0,0,1,25.87-26H791A26,26,0,0,1,816.87,513.39Z"/><rect class="cls-1" x="712.34" y="537.25" width="54.73" height="54.73" rx="0.94" ry="0.94"/><path class="cls-1" d="M411.54,1041.84V935.55s-54.4-10.73-72.85-31.65c-36-40.81-41.8-111.32-41.8-111.32S363,802.21,397,832.5c23.89,21.3,33.52,76.71,33.52,76.71s6.42-42.76,29.14-60.68c34-26.79,96.89-22.76,96.89-22.76s-16.19,79-51.72,100c-23.14,13.66-58,7.42-58,7.42s-1.61,35.55-1,54.1A192,192,0,0,0,456,1041.84Z"/><path class="cls-1" d="M1079.38,1041.84V935.55s54.41-10.73,72.86-31.65c36-40.81,41.79-111.32,41.79-111.32s-66.11,9.63-100.08,39.92c-23.89,21.3-33.51,76.71-33.51,76.71s-6.43-42.76-29.14-60.68c-34-26.79-96.89-22.76-96.89-22.76s16.19,79,51.72,100c23.13,13.66,58,7.42,58,7.42s1.62,35.55,1,54.1a191.62,191.62,0,0,1-10.25,54.56Z"/><path class="cls-2" d="M420.44,377.72l-43.26-51.36a14.3,14.3,0,0,0-22.15.34h0a14.29,14.29,0,0,0,5,21.74Z"/><path class="cls-2" d="M506.68,428.06l-39.13-46.44a12.93,12.93,0,0,0-20,.3h0a12.93,12.93,0,0,0,4.5,19.67Z"/><path class="cls-2" d="M601.57,487.42l-30.12-35.74a10,10,0,0,0-15.41.23h0a10,10,0,0,0,3.46,15.14Z"/><path class="cls-2" d="M1045.34,375.91l43.27-51.36a14.29,14.29,0,0,1,22.14.34h0a14.3,14.3,0,0,1-5,21.75Z"/><path class="cls-2" d="M959.1,426.25l39.13-46.44a12.93,12.93,0,0,1,20,.3h0a12.93,12.93,0,0,1-4.5,19.67Z"/><path class="cls-2" d="M864.21,485.61l30.12-35.74a10,10,0,0,1,15.41.24h0a10,10,0,0,1-3.46,15.13Z"/><path class="cls-2" d="M1054.3,737.86l43.27,51.36a14.31,14.31,0,0,0,22.15-.34h0a14.31,14.31,0,0,0-5-21.75Z"/><path class="cls-2" d="M968.07,687.51,1007.2,734a12.93,12.93,0,0,0,20-.3h0a12.94,12.94,0,0,0-4.5-19.67Z"/><path class="cls-2" d="M873.18,628.15l30.11,35.75a10,10,0,0,0,15.42-.24h0a10,10,0,0,0-3.47-15.13Z"/><path class="cls-2" d="M433.8,736.05l-43.27,51.36a14.31,14.31,0,0,1-22.15-.34h0a14.3,14.3,0,0,1,5-21.75Z"/><path class="cls-2" d="M520,685.7,480.9,732.15a12.93,12.93,0,0,1-20-.3h0a12.93,12.93,0,0,1,4.5-19.67Z"/><path class="cls-2" d="M614.92,626.34,584.8,662.09a10,10,0,0,1-15.41-.24h0a10,10,0,0,1,3.46-15.13Z"/><path class="cls-2" d="M1107.55,560.87l64.76-17.78a14.31,14.31,0,0,1,18.06,12.84h0A14.3,14.3,0,0,1,1173.93,571Z"/><path class="cls-2" d="M983.6,560.49l58.57-16.08A12.93,12.93,0,0,1,1058.49,556h0a12.93,12.93,0,0,1-14.86,13.65Z"/><path class="cls-2" d="M873.94,559.66,919,547.29a10,10,0,0,1,12.57,8.93h0a10,10,0,0,1-11.44,10.5Z"/><path class="cls-2" d="M366.15,560.87l-64.76-17.78a14.3,14.3,0,0,0-18.05,12.84h0A14.29,14.29,0,0,0,299.77,571Z"/><path class="cls-2" d="M490.1,560.49l-58.57-16.08A12.93,12.93,0,0,0,415.21,556h0a12.93,12.93,0,0,0,14.86,13.65Z"/><path class="cls-2" d="M599.76,559.66l-45.07-12.37a10,10,0,0,0-12.56,8.93h0a9.94,9.94,0,0,0,11.43,10.5Z"/><path class="cls-1" d="M1088.55,908.89s31.28-21.66,70-76.37"/><path class="cls-1" d="M400.3,902.85s-31.27-21.66-70-76.37"/><rect class="cls-3" width="1490.83" height="1490.83"/></g></g></svg>