<svg xmlns="http://www.w3.org/2000/svg" viewBox="0 0 120.96 263.62"><defs><style>.cls-1,.cls-2{fill:none;stroke-linejoin:round;stroke-width:3px;}.cls-1{stroke:#71b9f4;}.cls-2{stroke:#0976d4;}.cls-3{fill:#0976d4;}</style></defs><title>Asset 28</title><g id="Layer_2" data-name="Layer 2"><g id="Layer_1-2" data-name="Layer 1"><path class="cls-1" d="M1.5,119.3s14.24,2.93,59,2.93c45.25,0,59-2.93,59-2.93"/><path class="cls-1" d="M1.5,107.69s14.24,2.94,59,2.94c45.25,0,59-2.94,59-2.94"/><path class="cls-2" d="M55.43,224.15c1.66.09,3.34.14,5,.14,32.57,0,59-16.74,59-31.53"/><path class="cls-2" d="M1.5,192.76c0,12.05,17.54,25.4,41.65,29.92"/><path class="cls-2" d="M119.46,192.76V105.83a5.31,5.31,0,0,0-4.85-5.34h-.39"/><path class="cls-2" d="M6.43,100.49h0a5.3,5.3,0,0,0-4.91,5.34v87.86"/><path class="cls-2" d="M4.33,100.25l1.22.13.46.06h.07l.34,0h0c7.34.86,23.66,2.22,54.05,2.22,30.69,0,46.88-1.35,54.12-2.22h0"/><rect class="cls-1" x="44.53" y="128.81" width="35.35" height="20.44"/><rect class="cls-1" x="44.53" y="83.08" width="35.35" height="13.59"/><path class="cls-2" d="M119.46,46.45c0-19.4-26.41-35.11-59-35.11-19.27,0-36.37,5.49-47.14,14a34,34,0,0,0-9,10.29A22.44,22.44,0,0,0,1.5,46.45"/><path class="cls-2" d="M119.46,46.45V95.82a4.54,4.54,0,0,1-3.31,4.4s-2.84.42-2.87.43"/><path class="cls-2" d="M6.43,100.49l-1.57-.25H4.8a4.53,4.53,0,0,1-3.3-4.4V46.45"/><path class="cls-2" d="M37.61,244.16c-4.24.44-9.32,1-12.73,1.6h-.07c-9.43,1.73-17.08,3.87-17.08,7.37,0,5.84,25.25,9,54.15,9s52.34-4.29,52.34-9.58c0-1.67-4.62-3.76-8.7-5.13"/><path class="cls-2" d="M98.45,246.51c-.55-.11-1.12-.22-1.71-.32h0a203,203,0,0,0-34.85-2.65H59.76"/><path class="cls-2" d="M27.72,245.28c-5.51,1.33-11.32,4.22-11.32,6,0,4.42,21.38,7.68,45.48,7.68,15.38,0,28.89-1.46,36.67-3.66h0c4.41-1.25,7-2.74,7-4.33a1.31,1.31,0,0,0,0-.39h0"/><polyline class="cls-2" points="34.86 257.27 43.15 222.68 55.43 224.15 63.2 258.98"/><path class="cls-2" d="M26.67,219V241.5c-1.59.82-1.06,4.08-1.06,4.08l-8.08,3,3.7-31.85Z"/><polyline class="cls-2" points="105.52 250.99 105.47 250.6 100.69 214.88 98.11 216.78 98.45 246.63 98.55 255.32 98.55 255.32 98.56 255.32"/><path class="cls-2" d="M96.47,219l-1.74,2.39a3.91,3.91,0,0,0-1,2.54L93,244.72"/><polyline class="cls-2" points="63.04 243.55 63.04 237.62 66.25 224.75"/><polyline class="cls-2" points="84.42 244.54 84.42 239.07 80.58 222.68 74.47 223.24 74.44 223.25"/><line class="cls-2" x1="63.88" y1="224.22" x2="63.75" y2="224.75"/><polyline class="cls-2" points="46.01 223.03 41.72 252.58 55.43 252.58 52.25 223.77"/><path class="cls-3" d="M71.23,0H48.89a1.63,1.63,0,0,0-1.63,1.64v.81a1.63,1.63,0,0,0,1.63,1.64H71.23a1.63,1.63,0,0,0,1.64-1.64V1.64A1.63,1.63,0,0,0,71.23,0Z"/><rect class="cls-2" x="51.72" y="3.18" width="16.68" height="8.32"/></g></g></svg>