<svg xmlns="http://www.w3.org/2000/svg" viewBox="0 0 97.36 211.18"><defs><style>.cls-1,.cls-2{fill:none;stroke-linejoin:round;stroke-width:3px;}.cls-1{stroke:#71b9f4;}.cls-2{stroke:#0976d4;}.cls-3{fill:#0976d4;}</style></defs><title>Asset 8</title><g id="Layer_2" data-name="Layer 2"><g id="Layer_1-2" data-name="Layer 1"><path class="cls-1" d="M1.5,95.43s11.39,2.35,47.18,2.35c36.2,0,47.18-2.35,47.18-2.35"/><path class="cls-1" d="M1.5,86.15s11.39,2.34,47.18,2.34c36.2,0,47.18-2.34,47.18-2.34"/><path class="cls-2" d="M44.64,179.3c1.33.08,2.68.11,4,.11,26.05,0,47.18-13.38,47.18-25.22"/><path class="cls-2" d="M1.5,154.19c0,9.65,14,20.32,33.32,23.94"/><path class="cls-2" d="M95.86,154.19V84.66A4.24,4.24,0,0,0,92,80.39h-.31"/><path class="cls-2" d="M5.44,80.38h0A4.24,4.24,0,0,0,1.5,84.66v70.28"/><path class="cls-2" d="M3.76,80.19l1,.11.37,0h0l.27,0h0c5.87.7,18.93,1.78,43.24,1.78,24.55,0,37.5-1.08,43.29-1.77h0"/><rect class="cls-1" x="35.92" y="103.04" width="28.28" height="16.35"/><rect class="cls-1" x="35.92" y="66.46" width="28.28" height="10.87"/><path class="cls-2" d="M95.86,37.15c0-15.51-21.13-28.08-47.18-28.08-15.41,0-29.1,4.4-37.7,11.2a27.12,27.12,0,0,0-7.2,8.24A18,18,0,0,0,1.5,37.15"/><path class="cls-2" d="M95.86,37.15v39.5a3.62,3.62,0,0,1-2.65,3.52l-2.29.34"/><path class="cls-2" d="M5.44,80.38l-1.25-.19H4.14A3.62,3.62,0,0,1,1.5,76.65V37.15"/><path class="cls-2" d="M30.39,195.31c-3.39.35-7.46.78-10.18,1.28h-.07C12.6,198,6.49,199.7,6.49,202.49c0,4.67,20.19,7.19,43.31,7.19s41.87-3.43,41.87-7.67c0-1.33-3.69-3-7-4.1"/><path class="cls-2" d="M79.05,197.19l-1.36-.26h0a162.7,162.7,0,0,0-27.88-2.11H48.1"/><path class="cls-2" d="M22.47,196.2c-4.4,1.07-9,3.38-9,4.83,0,3.53,17.1,6.14,36.38,6.14,12.3,0,23.11-1.17,29.33-2.93h0c3.53-1,5.57-2.19,5.57-3.47a1.15,1.15,0,0,0,0-.31h0"/><polyline class="cls-2" points="28.18 205.79 34.82 178.13 44.64 179.31 50.86 207.16"/><path class="cls-2" d="M21.64,175.15v18c-1.28.65-.85,3.26-.85,3.26l-6.47,2.44,3-25.48Z"/><polyline class="cls-2" points="84.71 200.77 84.67 200.46 80.85 171.89 78.78 173.41 79.05 197.29 79.13 204.24 79.13 204.24 79.14 204.24"/><path class="cls-2" d="M77.47,175.21l-1.39,1.91a3.13,3.13,0,0,0-.83,2l-.53,16.61"/><polyline class="cls-2" points="50.73 194.82 50.73 190.08 53.3 179.78"/><polyline class="cls-2" points="67.83 195.61 67.83 191.24 64.76 178.13 59.87 178.58 59.85 178.58"/><line class="cls-2" x1="51.4" y1="179.36" x2="51.3" y2="179.78"/><polyline class="cls-2" points="37.11 178.41 33.67 202.05 44.64 202.05 42.1 179"/><path class="cls-3" d="M57,0H39.74a1.64,1.64,0,1,0,0,3.27H57A1.64,1.64,0,1,0,57,0Z"/><rect class="cls-2" x="41.68" y="2.54" width="13.34" height="6.66"/></g></g></svg>