<svg xmlns="http://www.w3.org/2000/svg" viewBox="0 0 170.71 114.32"><defs><style>.cls-1,.cls-2,.cls-3{fill:none;stroke-linejoin:round;stroke-width:3px;}.cls-1{stroke:#71b9f4;}.cls-2,.cls-3{stroke:#0976d4;}.cls-3{stroke-linecap:round;}</style></defs><title>Asset 24</title><g id="Layer_2" data-name="Layer 2"><g id="Layer_1-2" data-name="Layer 1"><path class="cls-1" d="M108.31,74.31C104.2,84,96.29,89.8,90.65,87.4c-.23-.1-.45-.21-.66-.32-5.08-2.87-6-12.24-2.1-21.49C92,56,99.9,50.1,105.55,52.5S112.42,64.67,108.31,74.31Z"/><path class="cls-1" d="M88,85.32h0c5.55,1.44,12.82-4.3,16.71-13.4,3.35-7.83,3.15-15.75-.07-19.73l-.08-.11"/><path class="cls-1" d="M101.81,51.71c2,4.25,2,10.89-.56,17.58-3.09,8.07-8.84,13.67-14,14.16h0"/><path class="cls-1" d="M98.71,53c1.44,4.3,1,10.44-1.62,16.54S90.37,80.2,86.27,82.14"/><path class="cls-1" d="M105.55,52.5C99.9,50.1,92,56,87.89,65.59c-4,9.25-3,18.62,2.1,21.49L79.43,82.61h0c-5.63-2.41-6.88-12.18-2.76-21.81C80.41,52,87.33,46.37,92.78,47.27l2.77,1.13h0Z"/><ellipse class="cls-2" cx="151.34" cy="88.9" rx="22.03" ry="12.89" transform="translate(10.27 193.34) rotate(-66.94)"/><path class="cls-2" d="M166,94.55c-5.69,13.15-17.12,21-25.53,17.42a11.28,11.28,0,0,1-4.78-3.89c-4.2-5.83-4.49-16.18-.09-26.31,3.47-8,9.06-14,14.8-16.72,3.68-1.73,7.44-2.08,10.72-.7C169.55,67.88,171.74,81.4,166,94.55Z"/><line class="cls-2" x1="159.38" y1="63.46" x2="159.38" y2="63.46"/><path class="cls-2" d="M139.57,106.76h0c6.44,1.66,14.88-5,19.39-15.58,3.88-9.09,3.65-18.29-.08-22.92l-.1-.12"/><path class="cls-2" d="M155.81,68.07C158,73,157.9,80.55,155,88.14c-3.59,9.36-10.26,15.87-16.22,16.44h0"/><path class="cls-2" d="M152.05,69.18c1.67,5,1.14,12.14-1.88,19.22s-7.79,12.4-12.55,14.66"/><path class="cls-2" d="M149.74,70.51h0A31.91,31.91,0,0,1,147,85.73c-2.53,6-6.3,10.64-10.25,13.33"/><line class="cls-2" x1="140.33" y1="111.79" x2="140.33" y2="111.79"/><path class="cls-2" d="M161.15,64.35l-8.05-2.72a2.66,2.66,0,0,0-1-.14A16.08,16.08,0,0,0,146.25,63c-5.92,2.75-11.68,8.9-15.26,17.06-4.54,10.33-4.24,20.9.09,26.85a11.7,11.7,0,0,0,2.77,2.76,2.75,2.75,0,0,0,.88.42l5,1.48"/><ellipse class="cls-2" cx="69.66" cy="52.63" rx="11.44" ry="6.3" transform="translate(-10.75 86.65) rotate(-60)"/><path class="cls-2" d="M75.3,55.68c-3.8,6.59-10.41,9.9-14.75,7.4a6.32,6.32,0,0,1-2.08-2A6.5,6.5,0,0,1,57.85,60c-1.56-3.45-1-8.62,1.73-13.38A17.1,17.1,0,0,1,68,39a9.7,9.7,0,0,1,2-.54,8.51,8.51,0,0,1,1.59,0,6.16,6.16,0,0,1,2.75.82C78.67,41.72,79.11,49.09,75.3,55.68Z"/><path class="cls-2" d="M66.69,30.67l-.08-.27A5,5,0,0,0,65,27.85l-.44-.32a8.57,8.57,0,0,0-3.41-1h0l-.43,0h0a9.14,9.14,0,0,0-2.08.09l-.16,0a11.7,11.7,0,0,0-2.5.76c-4,1.69-8.1,5.71-11,11.35-3.6,7.07-4.3,14.77-2.27,19.89a11.9,11.9,0,0,0,.82,1.68A10.8,10.8,0,0,0,45.8,63a7.92,7.92,0,0,0,1.91,1.31,4.09,4.09,0,0,0,.47.19"/><path class="cls-2" d="M56.21,60.85h0a16.9,16.9,0,0,1-5.8,3.06s0,0,0,0c-2.74.77-5,.81-7.26-.63L42.74,63s-.68-.48-1-.75a8.82,8.82,0,0,1-1.3-1.36,9.11,9.11,0,0,1-.69-1,11.09,11.09,0,0,1-.9-1.79c-2.23-5.48-1.46-13.7,2.49-21.26,3.14-6,7.61-10.33,12-12.13a13.15,13.15,0,0,1,2.92-.84l.8-.09a10.58,10.58,0,0,1,1.49,0h.06l.44.05a8.41,8.41,0,0,1,3.45,1.25,9.7,9.7,0,0,1,3.18,3.45h0A16.58,16.58,0,0,1,67.64,36"/><path class="cls-2" d="M60.69,24a15.67,15.67,0,0,0-1.38-3h0a11.38,11.38,0,0,0-3.95-4,11,11,0,0,0-4.28-1.45l-.55-.06h-.08a14.27,14.27,0,0,0-1.85,0l-1,.11a16.43,16.43,0,0,0-3.63,1c-5.49,2.09-11,7.06-14.95,14-4.9,8.76-5.86,18.28-3.09,24.62a12.82,12.82,0,0,0,1.12,2.07,10.19,10.19,0,0,0,.86,1.18A10.93,10.93,0,0,0,29.53,60a12.78,12.78,0,0,0,1.22.86h0l.4.23a11.65,11.65,0,0,0,8.6.93h0l.29-.07h0"/><line class="cls-2" x1="61.88" y1="26" x2="61.88" y2="26"/><path class="cls-2" d="M41.83,62.94l1.29.34a16.74,16.74,0,0,1-4.59-1.57l0,0a9.89,9.89,0,0,1-3.1-3.17,12.57,12.57,0,0,1-.93-1.83c-2.34-5.61-1.53-14,2.6-21.76,3.29-6.16,8-10.56,12.61-12.4a13.68,13.68,0,0,1,3.06-.87,11.33,11.33,0,0,1,2.39-.09,8.11,8.11,0,0,1,1.31.19,9.1,9.1,0,0,1,2.83,1.14,9.49,9.49,0,0,1,2,1.72"/><path class="cls-2" d="M37.16,60.89a8.82,8.82,0,0,1-2.84-1.14,9.88,9.88,0,0,1-3.13-3.2,12.61,12.61,0,0,1-.94-1.83c-2.34-5.61-1.53-14,2.61-21.76,3.29-6.16,8-10.56,12.6-12.4a13.83,13.83,0,0,1,3.06-.87,11.42,11.42,0,0,1,2.4-.09,11,11,0,0,1,4,1,7.69,7.69,0,0,1,1.9,1.26"/><path class="cls-2" d="M71.2,37.05c-.2-.15-2.83-1.54-3-1.67a7.21,7.21,0,0,0-1.35-.55c-4.28-1.37-10.09,1.91-13.56,7.92-3.3,5.71-3.41,12-.57,15.21.45.5.56.92,1.14,1.26a6.38,6.38,0,0,0,1.56.63h0"/><line class="cls-2" x1="53.6" y1="58.26" x2="53.6" y2="58.26"/><path class="cls-3" d="M53.25,58.72a27.55,27.55,0,0,1-2.47-1.28c-4.34-2.51-4.77-9.88-1-16.48s10.41-9.89,14.76-7.39a6.2,6.2,0,0,1,1.53,1.26,7.34,7.34,0,0,1,.59.76"/><path class="cls-2" d="M74.33,39.21c-.32-.3-2.5-1.8-2.89-2-4.34-2.5-10.95.81-14.75,7.39s-3.37,14,1,16.48a5.77,5.77,0,0,0,1.22.53"/><path class="cls-2" d="M73.57,42.24c1.53,2.52,1,7.25-1.6,11.73s-6.4,7.32-9.36,7.25"/><line class="cls-2" x1="19.99" y1="47.54" x2="1.43" y2="38.48"/><line class="cls-2" x1="30.08" y1="18.67" x2="12.42" y2="10.38"/><path class="cls-2" d="M52.41,15.39l-2.93-4.75a4.55,4.55,0,0,0-1.86-1.7L33.76,2a4,4,0,0,0-1.82-.45c-3.84,0-17.67,1.11-25.56,18.07C-.86,35.15,1.72,45.85,3.1,48.9a4.07,4.07,0,0,0,1.59,1.8L24.52,61.19a4.2,4.2,0,0,0,3.32.47l2.55-.72"/><path class="cls-2" d="M27.84,61.66,20.7,49.33a5.35,5.35,0,0,1-.4-4.47L29.2,20a3.33,3.33,0,0,1,2.29-2.1l19.39-5"/><path class="cls-2" d="M135.79,110.45h-5.18a.57.57,0,0,1-.55-.38L124.3,95.4a1.57,1.57,0,0,1,0-1.15L134.6,67.07a1.53,1.53,0,0,1,.78-.86L155.74,56.1a.87.87,0,0,1,1,.18L165.43,64,165,67.1"/><path class="cls-2" d="M130.2,110.45l-9-5a1.52,1.52,0,0,1-.66-.69L112.76,88.8a1.63,1.63,0,0,1,0-1.3L123.07,62a1.56,1.56,0,0,1,.7-.8L144.07,50a1.58,1.58,0,0,1,1.55,0l10.75,6"/><line class="cls-2" x1="117.18" y1="97.88" x2="111.71" y2="94.23"/><line class="cls-2" x1="139.57" y1="52.08" x2="135.03" y2="50.41"/><line class="cls-2" x1="140.93" y1="72.9" x2="140.93" y2="72.89"/><line class="cls-2" x1="143.22" y1="62.32" x2="143.22" y2="62.31"/><path class="cls-2" d="M113.87,95.67l-.36-.19a6.19,6.19,0,0,1-1.06-.76h0c-5.1-4.41-4.16-16.38,2.43-27.79,5.8-10.06,14.18-16.53,20.45-16.4h0"/><line class="cls-2" x1="134.48" y1="84.71" x2="134.47" y2="84.72"/></g></g></svg>