<svg xmlns="http://www.w3.org/2000/svg" viewBox="0 0 203.39 136.01"><defs><style>.cls-1,.cls-2{fill:none;stroke-linejoin:round;stroke-width:3px;}.cls-1{stroke:#71b9f4;}.cls-2{stroke:#0976d4;}</style></defs><title>Asset 4</title><g id="Layer_2" data-name="Layer 2"><g id="Layer_1-2" data-name="Layer 1"><path class="cls-1" d="M129.12,88.5C124.21,100,114.76,107,108,104.14c-.27-.12-.53-.25-.79-.39-6.06-3.43-7.23-14.62-2.51-25.67,4.91-11.51,14.36-18.51,21.1-15.64S134,77,129.12,88.5Z"/><path class="cls-1" d="M104.8,101.66h0c6.63,1.71,15.33-5.14,20-16,4-9.36,3.76-18.82-.09-23.58l-.1-.12"/><path class="cls-1" d="M121.35,61.5c2.45,5.07,2.39,13-.67,21C117,92.14,110.12,98.83,104,99.41h0"/><path class="cls-1" d="M117.65,63c1.72,5.14,1.17,12.48-1.94,19.76s-8,12.76-12.93,15.08"/><path class="cls-1" d="M125.82,62.44c-6.74-2.87-16.19,4.13-21.1,15.64-4.72,11-3.55,22.24,2.51,25.67L94.62,98.41h0c-6.73-2.88-8.22-14.55-3.3-26,4.48-10.5,12.74-17.25,19.26-16.17l3.31,1.35h0Z"/><ellipse class="cls-2" cx="180.54" cy="105.93" rx="26.33" ry="15.4" transform="translate(12.37 230.56) rotate(-66.94)"/><path class="cls-2" d="M198.09,112.68c-6.8,15.71-20.46,25-30.5,20.81a13.36,13.36,0,0,1-5.72-4.64c-5-7-5.36-19.34-.11-31.44,4.15-9.56,10.83-16.76,17.68-20,4.41-2.07,8.89-2.49,12.82-.84C202.29,80.81,204.91,97,198.09,112.68Z"/><line class="cls-2" x1="190.15" y1="75.54" x2="190.14" y2="75.53"/><path class="cls-2" d="M166.48,127.27h0c7.7,2,17.78-6,23.18-18.61,4.63-10.87,4.36-21.86-.1-27.39l-.12-.14"/><path class="cls-2" d="M185.88,81c2.64,5.9,2.49,14.91-1,24-4.28,11.19-12.25,19-19.37,19.64h0"/><path class="cls-2" d="M181.39,82.37c2,6,1.35,14.5-2.25,23s-9.31,14.82-15,17.51"/><path class="cls-2" d="M178.62,84h0a38.15,38.15,0,0,1-3.22,18.19c-3,7.1-7.52,12.71-12.25,15.92"/><line class="cls-2" x1="167.39" y1="133.28" x2="167.38" y2="133.28"/><path class="cls-2" d="M192.26,76.6l-9.62-3.25a3.33,3.33,0,0,0-1.21-.18,19.47,19.47,0,0,0-7,1.86c-7.07,3.29-14,10.63-18.24,20.39-5.42,12.34-5.06,25,.11,32.08a15,15,0,0,0,3.3,3.3,3.44,3.44,0,0,0,1.06.5l6,1.76"/><ellipse class="cls-2" cx="82.94" cy="62.6" rx="13.67" ry="7.53" transform="translate(-12.74 103.13) rotate(-60)"/><path class="cls-2" d="M89.68,66.24c-4.55,7.88-12.44,11.83-17.62,8.83a7.36,7.36,0,0,1-2.49-2.35,9.64,9.64,0,0,1-.75-1.34c-1.85-4.12-1.21-10.3,2.07-16,2.62-4.52,6.34-7.76,10-9.11a11.81,11.81,0,0,1,2.43-.64,10.24,10.24,0,0,1,1.91-.07,7.58,7.58,0,0,1,3.28,1C93.71,49.55,94.23,58.37,89.68,66.24Z"/><path class="cls-2" d="M78.59,34.45l-.9-1.23a10.33,10.33,0,0,0-1.88-1.62,10.3,10.3,0,0,0-4.07-1.2h0c-.17,0-.35,0-.52-.06h0a11.67,11.67,0,0,0-2.49.1l-.18,0a12.94,12.94,0,0,0-3,.91c-4.82,2-9.68,6.82-13.1,13.55-4.29,8.45-5.13,17.65-2.71,23.78a14.85,14.85,0,0,0,1,2A13.08,13.08,0,0,0,53.43,74a9.36,9.36,0,0,0,2.28,1.57,12.65,12.65,0,0,0,4.19.54"/><path class="cls-2" d="M66.87,72.41h0a20.61,20.61,0,0,1-6.93,3.66h0c-3.27.91-6,1-8.67-.76L50.78,75s-.82-.56-1.19-.89a11.7,11.7,0,0,1-2.38-2.84,13.36,13.36,0,0,1-1.07-2.14c-2.67-6.55-1.75-16.37,3-25.41,3.76-7.19,9.1-12.33,14.38-14.49a15.07,15.07,0,0,1,3.49-1c.32,0,.63-.08,1-.11a11.75,11.75,0,0,1,1.78,0h.07l.53.06a10,10,0,0,1,4.12,1.49,11.47,11.47,0,0,1,3.8,4.13h0a19.9,19.9,0,0,1,2.29,8.87"/><path class="cls-2" d="M72.22,28.33a18,18,0,0,0-1.65-3.61h0a13.65,13.65,0,0,0-4.72-4.77,13,13,0,0,0-5.12-1.74c-.22,0-.43-.05-.65-.06H60a16.31,16.31,0,0,0-2.21,0c-.4,0-.78.07-1.18.12a19.33,19.33,0,0,0-4.34,1.17c-6.56,2.49-13.19,8.43-17.85,16.76C28.54,46.66,27.4,58,30.71,65.6A15.44,15.44,0,0,0,32,68.08a13.45,13.45,0,0,0,3,3.29,13.68,13.68,0,0,0,1.46,1h0l.48.27c2.79,1.66,6.42,2,10.28,1.12h0l.34-.09h0"/><path class="cls-2" d="M58.36,15.88l-.06-.17"/><path class="cls-2" d="M52.07,75.71a11.78,11.78,0,0,1-4-1.51h0a8.48,8.48,0,0,1-.93-.52c-.36-.23-.7-.48-1-.74a12,12,0,0,1-2.55-3,13.36,13.36,0,0,1-1.07-2.14c-2.67-6.55-1.74-16.37,3-25.41,3.76-7.19,9.1-12.34,14.38-14.48a15.29,15.29,0,0,1,3.49-1,13.35,13.35,0,0,1,2.74-.11,10.18,10.18,0,0,1,1.91.33,10,10,0,0,1,2.8,1.23"/><line class="cls-2" x1="73.65" y1="30.77" x2="73.64" y2="30.77"/><path class="cls-2" d="M48.09,74h0a10.55,10.55,0,0,1-3.94-1.48s0,0,0,0a11.7,11.7,0,0,1-3.7-3.8,14.89,14.89,0,0,1-1.12-2.18c-2.79-6.7-1.83-16.76,3.11-26,3.93-7.36,9.53-12.62,15.06-14.82a16.5,16.5,0,0,1,3.66-1A13.79,13.79,0,0,1,64,24.52a11.5,11.5,0,0,1,1.56.23,10.55,10.55,0,0,1,3.38,1.37,11,11,0,0,1,2.42,2.05"/><path class="cls-2" d="M44.11,72.47a10.49,10.49,0,0,1-3.39-1.38A11.61,11.61,0,0,1,37,67.27a14.52,14.52,0,0,1-1.12-2.19C33.06,58.39,34,48.33,39,39.09,42.9,31.73,48.49,26.47,54,24.27a16.85,16.85,0,0,1,3.65-1,14.6,14.6,0,0,1,2.87-.11,10.84,10.84,0,0,1,4.94,1.6l.05,0"/><path class="cls-2" d="M82.94,43.14c-.24-.19-2.2-1-2.46-1.19-.46-.26-.46-.47-1-.63-5.11-1.64-12.06,2.28-16.2,9.46-3.94,6.83-4.08,14.35-.68,18.18.53.6.67,1.11,1.37,1.51a7.64,7.64,0,0,0,1.85.75h0"/><line class="cls-2" x1="63.75" y1="69.32" x2="63.75" y2="69.32"/><path class="cls-2" d="M61.81,69a6.68,6.68,0,0,1-1.42-.63c-5.19-3-5.71-11.8-1.16-19.68s12.44-11.82,17.63-8.83a7.56,7.56,0,0,1,1.83,1.5,10.45,10.45,0,0,1,.7.91"/><path class="cls-2" d="M88.52,46.55c-.38-.35-3-2.14-3.45-2.41-5.19-3-13.08,1-17.63,8.83s-4,16.69,1.17,19.68a6.51,6.51,0,0,0,1.46.63"/><path class="cls-2" d="M87.61,50.18c1.84,3,1.18,8.66-1.91,14s-7.65,8.75-11.18,8.66"/><line class="cls-2" x1="23.59" y1="56.51" x2="1.41" y2="45.69"/><line class="cls-2" x1="35.64" y1="22.02" x2="14.54" y2="12.11"/><path class="cls-2" d="M62.33,18.1l-3.51-5.68a5.47,5.47,0,0,0-2.21-2L40,2a4.93,4.93,0,0,0-2.17-.53c-4.59,0-21.11,1.33-30.53,21.59-8.66,18.62-5.58,31.4-3.93,35a4.91,4.91,0,0,0,1.9,2.16L29,72.82a5,5,0,0,0,4,.56L36,72.52"/><path class="cls-2" d="M33,73.38,24.45,58.65A6.4,6.4,0,0,1,24,53.3L34.59,23.6a4,4,0,0,1,2.75-2.5l23.17-6"/><path class="cls-2" d="M162,131.67h-6.2a.71.71,0,0,1-.66-.44l-6.87-17.54a1.85,1.85,0,0,1,0-1.37l12.31-32.47a2,2,0,0,1,.94-1L185.8,66.74A1,1,0,0,1,187,67l10.38,9.18-.5,3.75"/><path class="cls-2" d="M155.28,131.67l-10.79-6a1.92,1.92,0,0,1-.79-.83l-9.26-19a1.94,1.94,0,0,1-.05-1.55l12.36-30.47a1.92,1.92,0,0,1,.85-1L171.85,59.4a1.92,1.92,0,0,1,1.86,0l12.83,7.17"/><line class="cls-2" x1="139.72" y1="116.66" x2="133.18" y2="112.29"/><line class="cls-2" x1="166.48" y1="61.94" x2="161.04" y2="59.94"/><line class="cls-2" x1="168.1" y1="86.81" x2="168.1" y2="86.8"/><line class="cls-2" x1="170.83" y1="74.17" x2="170.83" y2="74.16"/><path class="cls-2" d="M135.77,114l-.44-.23a8.72,8.72,0,0,1-1.26-.9h0c-6.1-5.28-5-19.58,2.9-33.21,6.93-12,16.94-19.75,24.44-19.6h0"/><line class="cls-2" x1="160.39" y1="100.93" x2="160.38" y2="100.93"/></g></g></svg>