<svg xmlns="http://www.w3.org/2000/svg" xmlns:xlink="http://www.w3.org/1999/xlink" viewBox="0 0 140.78 204.89"><defs><style>.cls-1,.cls-4{fill:#63b9fa;}.cls-1,.cls-2,.cls-6,.cls-7{stroke:#0976d4;}.cls-1,.cls-2,.cls-3,.cls-6,.cls-7{stroke-linejoin:round;stroke-width:3px;}.cls-2,.cls-3,.cls-7{fill:none;}.cls-3{stroke:#63b9fa;}.cls-3,.cls-7{stroke-linecap:round;}.cls-5{clip-path:url(#clip-path);}.cls-6{fill:#fffffa;}</style><clipPath id="clip-path"><ellipse id="_Ellipse_" data-name="&lt;Ellipse&gt;" class="cls-1" cx="70.39" cy="195.39" rx="68.89" ry="8.01"/></clipPath></defs><title>Asset 3</title><g id="Layer_2" data-name="Layer 2"><g id="Layer_1-2" data-name="Layer 1"><path class="cls-2" d="M60.2,28.53,53.62,4.76C57.08,2.82,63.87,1.5,71.68,1.5,79,1.5,85.43,2.67,89.06,4.41h0l-6.3,24.1"/><path class="cls-2" d="M82.82,28.24c0,1.38-5.3,2.49-11.34,2.49s-11.36-1.11-11.36-2.49,5.32-2.49,11.36-2.49S82.82,26.87,82.82,28.24Z"/><path class="cls-3" d="M71.47,34.43h0a1.61,1.61,0,0,1-1.61-1.61V28.24h3.23v4.58A1.62,1.62,0,0,1,71.47,34.43Z"/><path class="cls-2" d="M76.09,28.24c0,.56-2.16,1-4.62,1s-4.62-.45-4.62-1,2.17-1,4.62-1S76.09,27.68,76.09,28.24Z"/><path class="cls-3" d="M71.15,81.26h.64a2.4,2.4,0,0,1,2.4,2.4v1.08a0,0,0,0,1,0,0H68.75a0,0,0,0,1,0,0V83.66A2.4,2.4,0,0,1,71.15,81.26Z"/><path class="cls-2" d="M87.53,114.4h.08l-3.9-22.6c-1.33-7.06-4.9-6.87-7.87-7.06h-10c-3.52,0-7,.89-8.25,7.52l-4,22.14h1.07"/><ellipse id="_Ellipse_2" data-name="&lt;Ellipse&gt;" class="cls-4" cx="70.39" cy="195.39" rx="68.89" ry="8.01"/><g class="cls-5"><ellipse class="cls-6" cx="68.87" cy="188.93" rx="66.81" ry="7.18"/></g><ellipse id="_Ellipse_3" data-name="&lt;Ellipse&gt;" class="cls-2" cx="70.39" cy="195.39" rx="68.89" ry="8.01"/><path class="cls-2" d="M2.06,194.36C10.43,153.74,38,130.88,44.9,125.69l.72-.55h0l1.28-3.92c2.3-6.63,8.62-7.53,15-7.53H80.11c5.41.19,11.91,0,14.32,7.07l1.58,5a1.57,1.57,0,0,0,.53.76c8.22,6.33,34.25,29,42.27,67.92"/><line class="cls-3" x1="71.48" y1="32.52" x2="71.48" y2="80.51"/><path class="cls-7" d="M45.16,138s-18.7,14.48-28.06,42.84"/></g></g></svg>