<svg xmlns="http://www.w3.org/2000/svg" xmlns:xlink="http://www.w3.org/1999/xlink" viewBox="0 0 157.67 229.65"><defs><style>.cls-1,.cls-4{fill:#63b9fa;}.cls-1,.cls-2,.cls-6,.cls-7{stroke:#0976d4;}.cls-1,.cls-2,.cls-3,.cls-6,.cls-7{stroke-linejoin:round;stroke-width:3px;}.cls-2,.cls-3,.cls-7{fill:none;}.cls-3{stroke:#63b9fa;}.cls-3,.cls-7{stroke-linecap:round;}.cls-5{clip-path:url(#clip-path);}.cls-6{fill:#fffffa;}</style><clipPath id="clip-path"><ellipse id="_Ellipse_" data-name="&lt;Ellipse&gt;" class="cls-1" cx="78.83" cy="219.16" rx="77.33" ry="8.99"/></clipPath></defs><title>Asset 23</title><g id="Layer_2" data-name="Layer 2"><g id="Layer_1-2" data-name="Layer 1"><path class="cls-2" d="M67.4,31.84,60,5.16C63.89,3,71.52,1.5,80.28,1.5c8.23,0,15.44,1.31,19.51,3.27h0L92.72,31.82"/><path class="cls-2" d="M92.79,31.52c0,1.54-6,2.8-12.73,2.8s-12.75-1.26-12.75-2.8,6-2.8,12.75-2.8S92.79,30,92.79,31.52Z"/><path class="cls-3" d="M80.05,38.47h0a1.81,1.81,0,0,1-1.81-1.81V31.52h3.63v5.14A1.81,1.81,0,0,1,80.05,38.47Z"/><path class="cls-2" d="M85.24,31.52c0,.63-2.43,1.14-5.19,1.14s-5.19-.51-5.19-1.14,2.43-1.14,5.19-1.14S85.24,30.89,85.24,31.52Z"/><path class="cls-3" d="M79.4,91h1.31a2.4,2.4,0,0,1,2.4,2.4v1.51a0,0,0,0,1,0,0H77a0,0,0,0,1,0,0V93.44A2.4,2.4,0,0,1,79.4,91Z"/><path class="cls-2" d="M98.08,128.24h.09l-4.38-25.37c-1.49-7.93-5.5-7.71-8.83-7.93H73.74c-3.95,0-7.85,1-9.27,8.45L60,128.24h1.21"/><ellipse id="_Ellipse_2" data-name="&lt;Ellipse&gt;" class="cls-4" cx="78.83" cy="219.16" rx="77.33" ry="8.99"/><g class="cls-5"><ellipse class="cls-6" cx="77.13" cy="211.91" rx="75" ry="8.06"/></g><ellipse id="_Ellipse_3" data-name="&lt;Ellipse&gt;" class="cls-2" cx="78.83" cy="219.16" rx="77.33" ry="8.99"/><path class="cls-2" d="M2.13,218c9.4-45.6,40.34-71.26,48.1-77.09l.8-.62h0l1.44-4.41c2.57-7.44,9.68-8.45,16.86-8.45H89.75c6.07.21,13.36,0,16.07,7.93L107.6,141a1.75,1.75,0,0,0,.59.85c9.23,7.11,38.45,32.6,47.45,76.25"/><line class="cls-3" x1="80.06" y1="36.32" x2="80.06" y2="90.2"/><path class="cls-7" d="M50.51,154.75S29.52,171,19,202.84"/></g></g></svg>