<svg xmlns="http://www.w3.org/2000/svg" viewBox="0 0 220.34 237.77"><defs><style>.cls-1,.cls-2{fill:none;stroke-linejoin:round;stroke-width:3px;}.cls-1{stroke:#0976d4;}.cls-2{stroke:#63b9fa;stroke-linecap:round;}</style></defs><title>Asset 22</title><g id="Layer_2" data-name="Layer 2"><g id="Layer_1-2" data-name="Layer 1"><rect class="cls-1" x="158.45" y="12.11" width="40.29" height="8.56" rx="3.5" ry="3.5" transform="translate(53.3 -111.92) rotate(40.44)"/><path class="cls-1" d="M188.83,30.73l-7,7.3a16.29,16.29,0,0,1-25.2-20.53l6.48-8.68"/><path class="cls-1" d="M183.55,26.25l-5.93,7a9.81,9.81,0,0,1-15.18-12.37l5.62-7.83"/><rect class="cls-1" x="6.86" y="13.37" width="40.29" height="8.56" rx="3.5" ry="3.5" transform="matrix(-0.76, 0.65, -0.65, -0.76, 59, 13.57)"/><path class="cls-1" d="M42.48,10.08,49,18.76a16.29,16.29,0,0,1-25.2,20.53l-7-7.3"/><path class="cls-1" d="M36.69,14.84l6,7.6A9.24,9.24,0,0,1,28.35,34.09l-6.24-6.82"/><path class="cls-2" d="M160.7,46.72l-46.27,54.09-8.06-9.2,45.21-52.86a15.88,15.88,0,0,0,9.12,8Z"/><path class="cls-2" d="M44.33,47.92l61.5,73.64,9.6-8.42L53.27,39.85a16,16,0,0,1-3.6,4.86A15.37,15.37,0,0,1,44.33,47.92Z"/><path class="cls-1" d="M126.49,149.71a7.63,7.63,0,0,0,.76-2.44,4,4,0,0,0-4-4,3.68,3.68,0,0,0-.89.1.45.45,0,0,1-.46-.15l-14.57-17.3,12-10.14L133.86,133a.47.47,0,0,1,0,.52,4,4,0,0,0,3.58,5.89,7.46,7.46,0,0,0,2.07-.41"/><path class="cls-1" d="M122.3,147.62h33.25a0,0,0,0,1,0,0v.77a3.44,3.44,0,0,1-3.44,3.44H125.74a3.44,3.44,0,0,1-3.44-3.44v-.77A0,0,0,0,1,122.3,147.62Z" transform="translate(-63.61 123.3) rotate(-39.71)"/><path class="cls-1" d="M216.4,183.39l-41.23-49.64a18.4,18.4,0,0,0-25.93-2.4l-31.52,26.18a18.41,18.41,0,0,0-2.4,25.92l41.83,50.37,5.17,2.45h0L160.59,231l-40.45-48.7a16.06,16.06,0,0,1,2.09-22.62l28.39-23.57a16.05,16.05,0,0,1,22.61,2.09l39.88,48,5.73,3.16h0Z"/><polyline class="cls-1" points="130.75 157.66 179.41 216.25 181.31 222.16 175.92 219.29 126.68 160.01"/><polyline class="cls-1" points="150.06 140.65 199.03 199.61 201.21 205.91 195.66 202.79 146.98 144.18"/><circle class="cls-2" cx="119.18" cy="124.65" r="1.83"/><circle class="cls-2" cx="90.06" cy="124.27" r="1.83"/><path class="cls-1" d="M8.46,158.44h0a60.71,60.71,0,0,0,1,58.15h0"/><path class="cls-1" d="M9.4,216.6h0a71.5,71.5,0,0,0,24,5c25.22,0,35.6-13.83,35.6-13.83h0c5.09-5.25,14.31-17.85,21-27.23h0c4.55-6.43,7.91-11.35,7.91-11.35a5,5,0,0,0-.63-7.1l-5.1-4.28-4.1-3.44-.32-.2A9.27,9.27,0,0,1,86,152.66a3.2,3.2,0,0,1-.25-.27A10,10,0,0,1,85.13,140a9.75,9.75,0,0,1,.92-1.1l.27-.32.14-.17L98.8,123.67,88.54,111.45,77.17,125l-2.75,3.27a9.39,9.39,0,0,1-1.57,1.87,9.28,9.28,0,0,1-1.36,1.07,10,10,0,0,1-11.56-.48c-.2-.16-.4-.32-.59-.5h0l-1.56-1.31-7.83-6.57a5.05,5.05,0,0,0-7.11.62s-6.76,6.32-14.43,13.91h0c-7.47,7.39-15.81,16-19.61,21.1l-.31.44h0"/><line class="cls-1" x1="89.99" y1="180.51" x2="89.98" y2="180.51"/><path class="cls-1" d="M78.26,149.71s-27.62,42.62-41.72,35.18"/></g></g></svg>