<svg xmlns="http://www.w3.org/2000/svg" viewBox="0 0 180.58 194.56"><defs><style>.cls-1,.cls-2{fill:none;stroke-linejoin:round;stroke-width:3px;}.cls-1{stroke:#0976d4;}.cls-2{stroke:#63b9fa;stroke-linecap:round;}</style></defs><title>Asset 2</title><g id="Layer_2" data-name="Layer 2"><g id="Layer_1-2" data-name="Layer 1"><rect class="cls-1" x="129.73" y="9.91" width="32.92" height="6.99" rx="3.5" ry="3.5" transform="translate(43.62 -91.62) rotate(40.44)"/><path class="cls-1" d="M154.56,25.12l-5.72,6a13.31,13.31,0,0,1-20.59-16.78l5.3-7.09"/><path class="cls-1" d="M150.25,21.46l-4.85,5.72A8,8,0,0,1,133,17.07l4.59-6.39"/><rect class="cls-1" x="5.88" y="10.94" width="32.92" height="6.99" rx="3.5" ry="3.5" transform="translate(48.7 10.93) rotate(139.56)"/><path class="cls-1" d="M35,8.25l5.3,7.09A13.31,13.31,0,0,1,19.69,32.12l-5.72-6"/><path class="cls-1" d="M30.25,12.14l4.86,6.21a7.55,7.55,0,0,1-11.68,9.51l-5.09-5.57"/><path class="cls-2" d="M131.58,38.18,93.77,82.38l-6.58-7.52,36.94-43.19a13,13,0,0,0,7.45,6.51Z"/><path class="cls-2" d="M36.49,39.16,86.74,99.33l7.85-6.88L43.8,32.57a13.14,13.14,0,0,1-2.94,4A12.35,12.35,0,0,1,36.49,39.16Z"/><path class="cls-1" d="M103.63,122.34a6.22,6.22,0,0,0,.62-2,3.29,3.29,0,0,0-3.29-3.29,3.55,3.55,0,0,0-.73.08.37.37,0,0,1-.37-.12L88,102.88l9.84-8.29,11.86,14.07a.36.36,0,0,1,0,.42,3.3,3.3,0,0,0,2.92,4.82,6,6,0,0,0,1.7-.34"/><path class="cls-1" d="M100.2,120.62h27.16a0,0,0,0,1,0,0v0a3.44,3.44,0,0,1-3.44,3.44H103.64a3.44,3.44,0,0,1-3.44-3.44v0a0,0,0,0,1,0,0Z" transform="translate(-51.92 100.92) rotate(-39.71)"/><path class="cls-1" d="M177.08,149.85,143.4,109.3a15,15,0,0,0-21.18-2L96.46,128.72a15,15,0,0,0-2,21.19l34.18,41.15,4.22,2h0l-1.41-4.35L98.44,148.92a13.11,13.11,0,0,1,1.71-18.48l23.19-19.26a13.12,13.12,0,0,1,18.48,1.71l32.58,39.24,4.68,2.58h0Z"/><polyline class="cls-1" points="107.1 128.83 146.86 176.7 148.42 181.53 144.01 179.19 103.78 130.75"/><polyline class="cls-1" points="122.89 114.94 162.9 163.11 164.68 168.25 160.14 165.71 120.36 117.81"/><circle class="cls-2" cx="97.65" cy="101.86" r="1.49"/><circle class="cls-2" cx="73.86" cy="101.55" r="1.49"/><path class="cls-1" d="M7.19,129.46h0A49.63,49.63,0,0,0,8,177H8"/><path class="cls-1" d="M8,177H8a58.25,58.25,0,0,0,19.62,4.06c20.61,0,29.08-11.3,29.09-11.3h0c4.16-4.29,11.69-14.58,17.12-22.25h0c3.72-5.25,6.46-9.27,6.46-9.27a4.1,4.1,0,0,0-.51-5.8l-4.17-3.5-3.35-2.81L72,126a8.4,8.4,0,0,1-1.44-1.21l-.2-.22a8.13,8.13,0,0,1-.5-10.15,7.33,7.33,0,0,1,.76-.91l.22-.26.11-.13,10.08-12-8.38-10-9.29,11.09-2.25,2.67a7.82,7.82,0,0,1-1.28,1.53,7.16,7.16,0,0,1-1.12.87,8,8,0,0,1-4.44,1.32,8.12,8.12,0,0,1-5-1.71c-.16-.13-.33-.26-.48-.4h0l-1.27-1.07L41.07,100a4.11,4.11,0,0,0-5.81.51s-5.52,5.16-11.79,11.36h0c-6.11,6-12.92,13.06-16,17.24l-.25.35h0"/><line class="cls-1" x1="73.8" y1="147.5" x2="73.79" y2="147.5"/><path class="cls-1" d="M64.22,122.34s-22.57,34.82-34.09,28.74"/></g></g></svg>