<svg xmlns="http://www.w3.org/2000/svg" viewBox="0 0 205.63 154.35"><defs><style>.cls-1,.cls-2,.cls-3,.cls-4{fill:none;stroke-width:3px;}.cls-1,.cls-4{stroke:#0976d4;}.cls-1,.cls-3,.cls-4{stroke-miterlimit:10;}.cls-2,.cls-3{stroke:#63b9fa;}.cls-2,.cls-4{stroke-linecap:round;}.cls-2{stroke-linejoin:round;}</style></defs><title>Asset 31</title><g id="Layer_2" data-name="Layer 2"><g id="Layer_1-2" data-name="Layer 1"><rect class="cls-1" x="143.49" y="122.54" width="24.51" height="14.04" rx="6.84" ry="6.84" transform="translate(-37.43 68.53) rotate(-22.22)"/><rect class="cls-1" x="175.99" y="95.78" width="23.9" height="11.9" rx="5.95" ry="5.95" transform="translate(5.87 213.63) rotate(-60)"/><path class="cls-1" d="M185.48,63.18A5.2,5.2,0,0,1,186,63a7,7,0,0,1,2.23-.37,7,7,0,0,1,6.66,4.79l3.33,9.93a7,7,0,0,1-.54,5.69"/><path class="cls-1" d="M18.12,85.08l1.27,8.59c.49,3.33-1.48,6.75-4.49,7.58h0c-3.12.87-6-1.38-6.41-5l-1-9.19a6,6,0,0,1,4.74-6.66h0A5.2,5.2,0,0,1,18.12,85.08Z"/><rect class="cls-1" x="28.64" y="117.91" width="24.51" height="14.04" rx="6.84" ry="6.84" transform="translate(8.46 252.32) rotate(-147.58)"/><rect class="cls-1" x="74.83" y="132.74" width="24.51" height="14.04" rx="6.84" ry="6.84" transform="translate(159.23 287.77) rotate(-174.06)"/><path class="cls-1" d="M10.91,67.18a7.14,7.14,0,0,1,.74-4.3l4.9-9.25A7,7,0,0,1,21.78,50"/><path class="cls-1" d="M25.59,96.6a33.15,33.15,0,0,1-4.7-16.75"/><path class="cls-1" d="M162.88,113.89A92.17,92.17,0,0,1,138.39,125"/><path class="cls-1" d="M73,126.49a128.63,128.63,0,0,0,29.83,3.43c1.44,0,2.87,0,4.29-.07h0"/><path class="cls-1" d="M32.65,105.71c7.35,7.44,17.8,13.62,30.25,17.87"/><polyline class="cls-2" points="184.72 81.73 184.72 85.78 199.18 88.46 199.18 85.04 197.71 83.01 184.72 64.98 184.72 68.58 184.72 79.85"/><line class="cls-2" x1="184.72" y1="68.58" x2="199.18" y2="88.46"/><polygon class="cls-2" points="67.49 105.7 72.25 106.85 72.98 126.49 63.16 141.68 58.56 140.45 67.49 105.7"/><line class="cls-2" x1="72.25" y1="106.85" x2="63.16" y2="141.67"/><polygon class="cls-2" points="32.24 85.84 34.62 88.5 32.65 105.7 18.86 114.26 16.38 111.51 32.24 85.84"/><line class="cls-2" x1="34.62" y1="88.5" x2="18.86" y2="114.26"/><polyline class="cls-2" points="5.82 76.44 20.89 76.44 20.89 61.25"/><polyline class="cls-2" points="12.07 70.14 20.89 61.25 20.89 57.36 20.89 57.02 10.91 67.18 5.82 72.36 5.82 76.44 12.07 70.14"/><line class="cls-2" x1="164.87" y1="95.9" x2="177.73" y2="124.99"/><path class="cls-1" d="M174.66,50.26a30.76,30.76,0,0,0-2.07-8.53,36.27,36.27,0,0,0-4-7.33A44.63,44.63,0,0,0,163.2,28a55.1,55.1,0,0,0-6.69-5.58,67.82,67.82,0,0,0-7.88-4.83,79.78,79.78,0,0,0-9.07-4.05c-2.36-.9-4.81-1.7-7.33-2.41-1-.29-2-.55-3-.81a103.37,103.37,0,0,0-12-2.21h0q-3.1-.39-6.3-.6h-.12c-.84-.06-1.69-.1-2.54-.13-1.57-.07-3.15-.11-4.75-.11h-.46a108.77,108.77,0,0,0-13.17.83c-1.52.19-3,.41-4.49.65a100.3,100.3,0,0,0-10.22,2.28,88.81,88.81,0,0,0-12.25,4.37A72,72,0,0,0,52.66,21h0c-8.52,5.55-14.83,12.51-18,20.27a32,32,0,0,0-1.75,5.67,29.54,29.54,0,0,0-.63,5.71V53a30.22,30.22,0,0,0,1,7.83c.07.28.15.56.23.83a34.19,34.19,0,0,0,3.41,7.67,41.31,41.31,0,0,0,5,6.67,51.8,51.8,0,0,0,6.29,5.84,64.48,64.48,0,0,0,7.49,5.06,75.27,75.27,0,0,0,8.67,4.31,87.3,87.3,0,0,0,9.93,3.51,100.34,100.34,0,0,0,11.4,2.57h0a106,106,0,0,0,11.2,1.24c.69,0,1.39.08,2.09.1h0c1.5.07,3,.1,4.53.1a109.15,109.15,0,0,0,11.7-.62h0c1.13-.11,2.24-.25,3.34-.4a99,99,0,0,0,16.32-3.64c12.65-4,23.19-10.31,30.25-18.08A40.6,40.6,0,0,0,171,67.84a32.34,32.34,0,0,0,2.83-7.16q.33-1.24.54-2.49a29.47,29.47,0,0,0,.46-5.16C174.79,52.1,174.74,51.18,174.66,50.26Zm-56.75-13a15.92,15.92,0,0,1,6.19,5.9M86.33,57.47a25.46,25.46,0,0,0,9.17,4"/><path class="cls-1" d="M156.51,22.45c-10.69,15.19-31.75,16.73-36,16.56l-2.57-1.74A28.17,28.17,0,0,0,107.7,34a34.69,34.69,0,0,0-12.52.6,23.56,23.56,0,0,0-10.6,5.36A11.09,11.09,0,0,0,80.72,48a9.94,9.94,0,0,0,.09,1.34,9.07,9.07,0,0,0,.38,1.6h0a13.43,13.43,0,0,0,5.14,6.56"/><path class="cls-1" d="M95.5,61.46a32.93,32.93,0,0,0,7.23.84h.32a33.94,33.94,0,0,0,8-.95h0a26.58,26.58,0,0,0,5.94-2.2,16.85,16.85,0,0,0,6.82-6,9.82,9.82,0,0,0,.66-1.24,9.54,9.54,0,0,0-.42-8.77"/><path class="cls-1" d="M172.91,105.76c7.5-7.55,11.81-16.42,11.81-25.91"/><polygon class="cls-2" points="164.87 95.9 162.87 113.89 177.73 124.99 180.62 122.27 167.37 93.91 164.87 95.9"/><path class="cls-1" d="M30.68,33.61C12.64,46.26,1.5,63.63,1.5,82.8c0,38.69,45.36,70.05,101.32,70.05s101.31-31.36,101.31-70c0-12.17-4.49-23.63-12.39-33.6a72.91,72.91,0,0,0-5.61-6.28,84.26,84.26,0,0,0-11.23-9.35"/><polyline class="cls-1" points="20.89 79.85 20.89 76.44 20.89 61.25 20.89 57.36"/><polyline class="cls-1" points="184.72 79.85 184.72 68.58 184.72 64.98 184.72 63.56 184.72 58.46"/><path class="cls-3" d="M82.79,8.71l1-4.85A1.71,1.71,0,0,1,85.56,2.3l12.81-.8a2,2,0,0,1,1.76.78l3.05,5H99.37L97.89,4.37A1.94,1.94,0,0,0,96,3.4l-7.27.34A1.71,1.71,0,0,0,87,5.36L86.6,8Z"/><line class="cls-3" x1="111.83" y1="117.53" x2="110.77" y2="138.53"/><path class="cls-3" d="M136.1,103.12h.05l1.21,10.49a4.74,4.74,0,0,1-4,5.39l-16.19,2.49a4.73,4.73,0,0,1-5.39-4L109,107.29h0"/><path class="cls-3" d="M138.29,125l.64,6c.4,2.58-1.74,5.05-4.79,5.52l-5.21.8"/><path class="cls-3" d="M113.39,107.6l18.76-2.89L133,112a3.27,3.27,0,0,1-2.73,3.72l-11.18,1.72a3.26,3.26,0,0,1-3.72-2.73Z"/><line class="cls-3" x1="137.36" y1="113.6" x2="138.93" y2="130.95"/><polygon class="cls-2" points="124.45 148.11 121.42 138.1 123.21 124.96 124.45 148.11"/><polyline class="cls-2" points="123.2 124.78 128.24 124.09 129.48 147.65 124.61 148.34"/><path class="cls-2" d="M109,107.29l-1.87,22.15a2.17,2.17,0,0,0,.09.8l1.6,5.35c.39,2.58,3.18,4.29,6.22,3.82l6.13-.83"/><path class="cls-1" d="M184.52,53.81a32.69,32.69,0,0,0-2.17-8.47,40.91,40.91,0,0,0-7.45-11.77,56.34,56.34,0,0,0-8.37-7.67h0a86.58,86.58,0,0,0-26-13,111.69,111.69,0,0,0-10.92-2.87,121.82,121.82,0,0,0-12.32-2h0c-2.11-.23-4.23-.41-6.4-.54h-.12c-.84,0-1.67-.09-2.52-.12-1.7-.07-3.42-.11-5.15-.11h-.32c-4.51,0-8.94.23-13.25.66-1.16.11-2.32.24-3.46.39h0q-6.15.78-12,2.11C55.48,14.71,40.05,23,30.68,33.61A38.58,38.58,0,0,0,21.78,50a31.55,31.55,0,0,0-.89,7.4c0,21.6,22.38,40,53.74,47a121.6,121.6,0,0,0,12.15,2.08,131.88,131.88,0,0,0,14,.94l2.08,0q3.14,0,6.23-.14a125.16,125.16,0,0,0,27.06-4.17c28.65-7.8,48.62-25.35,48.62-45.76A32.35,32.35,0,0,0,184.52,53.81ZM117.91,37.27a15.92,15.92,0,0,1,6.19,5.9M86.33,57.47a25.46,25.46,0,0,0,9.17,4"/><path class="cls-4" d="M101.31,62.3c-7.07,27,5.82,35.84,5.82,35.84"/><path class="cls-4" d="M117,59.14s4.39,27.57,38.7,25"/><path class="cls-4" d="M125.21,49.71s18.06,17,49.45.55"/><path class="cls-1" d="M110.44,34.44s12.86-12.79,6.78-26.3"/><path class="cls-1" d="M99.17,33.57s-3.12-18.6-24-22.51"/><path class="cls-1" d="M84.58,39.91S69,26.36,39,33.57"/><path class="cls-1" d="M81.19,50.91s-32-4.79-45.7,15.82"/><path class="cls-1" d="M89.07,59.14s-25.76,9.52-24.72,32.1"/></g></g></svg>