<svg xmlns="http://www.w3.org/2000/svg" viewBox="0 0 141.21 195.05"><defs><style>.cls-1,.cls-2{fill:none;stroke-linecap:round;stroke-linejoin:round;stroke-width:3px;}.cls-1{stroke:#0976d4;}.cls-2{stroke:#63b9fa;}</style></defs><title>Asset 15</title><g id="Layer_2" data-name="Layer 2"><g id="Layer_1-2" data-name="Layer 1"><path class="cls-1" d="M101.67,144.12l21-70.66a11.55,11.55,0,0,1,5.64-6.92,10.61,10.61,0,0,1,2.14-.89A16.75,16.75,0,0,0,139,55.41a17.21,17.21,0,0,0-3.18-15.75l-3.71,12.47L122,54.48l-7.18-7.69,3.83-12.9a16.75,16.75,0,0,0-12,11.53,17,17,0,0,0,2,14,6.74,6.74,0,0,1,.55.84,11.69,11.69,0,0,1,1.27,9.51l-21,70.57a16.79,16.79,0,0,0-14.54,12,17.18,17.18,0,0,0,11.38,21.26,16.77,16.77,0,0,0,21.05-11.27A17.2,17.2,0,0,0,101.67,144.12Zm-8.58,21.79-8.44-2.6-2-8.63,6.4-6,8.44,2.6,2,8.63Z"/><path class="cls-1" d="M130.44,65.65a10.61,10.61,0,0,0-2.14.89A14.22,14.22,0,0,0,130.44,65.65Z"/><polygon class="cls-1" points="89.01 148.65 82.61 154.68 84.65 163.31 93.09 165.91 99.49 159.88 97.45 151.25 89.01 148.65"/><polygon class="cls-2" points="100.51 135.72 94.7 133.93 114.15 69.72 119.96 71.52 100.51 135.72"/><rect class="cls-2" x="23.16" y="87.86" width="6.25" height="33.87" transform="translate(-15.4 5.12) rotate(-8.61)"/><path class="cls-1" d="M9.44,33.17l-.92.39c-.22.09-1,.46-1.25.59-4.91,2.07-3.46,6-3.16,7.76.6,3.3,6.64,29.66,11.55,55.41,3.14,16.43,5.82,32.62,6.34,42.42a144.81,144.81,0,0,0,1.7,18,38.55,38.55,0,0,0,3.39,10.66c2.42,4.9,5.31,8.08,7,10.86a16.7,16.7,0,0,1,2,7.16c-.07,2.16-1.69,4.17-1.26,5.06s2.92,2.49,4,2c2.53-1.15,3.31-8,2.8-10.71-1.45-7.63-5.41-12.53-6.62-16.91a45,45,0,0,1-.54-20.17c1.62-7.48.29-10.37-.31-13.74-.51-2.86-3.17-19.9-5.46-34.57-1.52-9.8-2.88-18.54-3.31-21.29a.93.93,0,0,1,.77-1l7.32-1.31a.4.4,0,0,0,.32-.4c0-1.25-.38-5.7-2.61-5.66-2.59,0-3.34-1.32-3.57-2.37-.85-3.77-3.25-19.54-4.61-28.75-.05-.28-.09-.59-.13-.86-.42-2.81-.74-4.89-.83-5.64a.69.69,0,0,0-.3-.44A10.61,10.61,0,0,1,18.15,26v0a17.75,17.75,0,0,1-2.31-6c-1.26-6.07,1.87-11.66,3.28-13.8a.62.62,0,0,0-.54-1,16,16,0,0,0-2.9.25A16.92,16.92,0,0,0,1.92,22.23c0,.05,0,.12,0,.17"/><path class="cls-1" d="M22.2,1.62l-2-.1A19.65,19.65,0,0,0,14.38,2,17.21,17.21,0,0,0,1.75,21.56c.06.41.15.82.25,1.22a16.83,16.83,0,0,0,5.72,9l.14.11c.45.37.73.62,1.23,1"/><polyline class="cls-1" points="15.84 19.96 19.85 12.52 30.03 9.88"/><polyline class="cls-1" points="21.7 1.6 23.33 1.73 38.48 3.14 38.51 3.27"/><path class="cls-1" d="M21.7,29.59l2.92,3.77a10.15,10.15,0,0,1,1.55,2.88L35,61.77l4,1.12,3.31,12.57L40.8,77l2.81,11.34L52.78,86,39.13,29.65s-2.69.61-3.84-1.28c-.51-.84-1.39-2.87,0-4.59l5.55-8.66"/><polyline class="cls-1" points="19.11 26.04 19.14 26.09 25.38 14.86 30.91 13.43"/><polygon class="cls-1" points="53.93 95.34 48 96.88 45.75 87.79 51.68 86.26 53.93 95.34"/><path class="cls-1" d="M74.28,185.62l-.94.24a1.55,1.55,0,0,1-1.9-1.13L61.13,143.15l4-1L75.42,183.7A1.59,1.59,0,0,1,74.28,185.62Z"/><polygon class="cls-1" points="58.17 104.27 49.19 106.68 47.8 101.18 56.79 98.77 58.17 104.27"/><polygon class="cls-1" points="65.94 141.31 60.01 142.84 51.92 110.14 57.85 108.61 65.94 141.31"/><path class="cls-2" d="M45.79,6.66,30.84,10.53a.62.62,0,0,1-.76-.46l-.93-3.73a.64.64,0,0,1,.46-.77l15-3.87a.62.62,0,0,1,.76.46l.93,3.73A.64.64,0,0,1,45.79,6.66Z"/><path class="cls-2" d="M47.46,13.4,32.52,17.27a.64.64,0,0,1-.77-.46l-.93-3.73a.64.64,0,0,1,.47-.77L46.23,8.44A.63.63,0,0,1,47,8.9l.92,3.72A.65.65,0,0,1,47.46,13.4Z"/><polygon class="cls-2" points="59.46 98.05 45.55 101.65 44.58 97.77 58.5 94.16 59.46 98.05"/><polygon class="cls-2" points="61.87 107.55 47.95 111.16 46.99 107.27 60.91 103.67 61.87 107.55"/><ellipse class="cls-2" cx="32.16" cy="34.47" rx="2.81" ry="2.79" transform="translate(-13.91 44.46) rotate(-59.22)"/><polyline class="cls-1" points="10.86 39.32 16.3 71.35 25.52 75.38"/><polygon class="cls-1" points="73.1 35.6 58.01 35.6 50.47 48.67 58.01 61.74 73.1 61.74 80.65 48.67 73.1 35.6"/><polygon class="cls-1" points="68.92 42.85 62.2 42.85 58.84 48.67 62.2 54.49 68.92 54.49 72.28 48.67 68.92 42.85"/><polygon class="cls-1" points="94.79 69.72 83.3 69.72 77.56 79.67 83.3 89.62 94.79 89.62 100.53 79.67 94.79 69.72"/><polygon class="cls-1" points="91.42 75.55 86.66 75.55 84.28 79.67 86.66 83.8 91.42 83.8 93.8 79.67 91.42 75.55"/></g></g></svg>