<svg xmlns="http://www.w3.org/2000/svg" viewBox="0 0 176.72 244.4"><defs><style>.cls-1,.cls-2{fill:none;stroke-linecap:round;stroke-linejoin:round;stroke-width:3px;}.cls-1{stroke:#0976d4;}.cls-2{stroke:#63b9fa;}</style></defs><title>Asset 35</title><g id="Layer_2" data-name="Layer 2"><g id="Layer_1-2" data-name="Layer 1"><path class="cls-1" d="M127.41,180.77,153.8,92a14.43,14.43,0,0,1,7.08-8.69,13,13,0,0,1,2.7-1.12,21.08,21.08,0,0,0,10.75-12.88,21.58,21.58,0,0,0-4-19.79l-4.66,15.68L152.91,68.1l-9-9.67,4.82-16.22A21.1,21.1,0,0,0,133.56,56.7,21.41,21.41,0,0,0,136,74.3a6.8,6.8,0,0,1,.69,1,14.68,14.68,0,0,1,1.6,12L112,176a21.1,21.1,0,0,0-18.28,15A21.59,21.59,0,0,0,108,217.76a21.07,21.07,0,0,0,26.46-14.16A21.63,21.63,0,0,0,127.41,180.77Zm-10.78,27.39L106,204.9l-2.57-10.85,8-7.58,10.61,3.26,2.57,10.85Z"/><path class="cls-1" d="M163.58,82.14a13,13,0,0,0-2.7,1.12A18.73,18.73,0,0,0,163.58,82.14Z"/><polygon class="cls-1" points="111.5 186.47 103.45 194.05 106.02 204.9 116.63 208.16 124.67 200.58 122.1 189.73 111.5 186.47"/><polygon class="cls-2" points="125.95 170.21 118.65 167.96 143.09 87.26 150.4 89.51 125.95 170.21"/><rect class="cls-2" x="28.72" y="110.05" width="7.86" height="42.58" transform="translate(-19.3 6.37) rotate(-8.61)"/><path class="cls-1" d="M11.48,41.31l-1.16.49c-.28.12-1.2.58-1.57.73-6.17,2.61-4.35,7.6-4,9.76C5.53,56.44,13.12,89.57,19.3,122c3.95,20.65,7.32,41,8,53.31a181,181,0,0,0,2.14,22.58,48.25,48.25,0,0,0,4.26,13.4c3,6.16,6.67,10.15,8.74,13.65a21,21,0,0,1,2.57,9c-.09,2.71-2.13,5.24-1.59,6.35.61,1.27,3.68,3.13,5,2.55,3.18-1.45,4.17-10.07,3.52-13.47-1.82-9.59-6.8-15.75-8.32-21.25a56.39,56.39,0,0,1-.68-25.35c2-9.4.36-13-.39-17.27-.63-3.6-4-25-6.86-43.45C33.71,109.68,32,98.69,31.47,95.23a1.16,1.16,0,0,1,1-1.31l9.21-1.66a.47.47,0,0,0,.39-.49c-.05-1.57-.47-7.17-3.27-7.12-3.25,0-4.2-1.67-4.49-3-1.07-4.74-4.08-24.56-5.8-36.14-.06-.36-.1-.73-.16-1.07-.53-3.54-.92-6.16-1-7.1a.8.8,0,0,0-.37-.55,13.35,13.35,0,0,1-4.46-4.55v0a22.55,22.55,0,0,1-2.9-7.52C18,17.08,21.87,10.05,23.65,7.36A.78.78,0,0,0,23,6.15a19,19,0,0,0-3.65.32C9.09,8.31,1.67,17.82,2,27.55c0,.07,0,.16,0,.23"/><path class="cls-1" d="M27.52,1.65,25,1.53a24.61,24.61,0,0,0-7.3.6A21.64,21.64,0,0,0,1.82,26.71a13.12,13.12,0,0,0,.31,1.54A21.07,21.07,0,0,0,9.32,39.61a1.1,1.1,0,0,0,.18.14c.56.47.91.78,1.54,1.26"/><polyline class="cls-1" points="19.52 24.71 24.57 15.35 37.36 12.04"/><polyline class="cls-1" points="26.89 1.62 28.94 1.78 47.98 3.56 48.02 3.73"/><path class="cls-1" d="M26.89,36.81l3.67,4.74a12.67,12.67,0,0,1,1.95,3.62L43.62,77.26l5,1.41,4.16,15.79-1.87,2,3.54,14.24,11.53-3L48.79,36.89s-3.37.76-4.82-1.61c-.64-1.06-1.74-3.61,0-5.77l7-10.89"/><polyline class="cls-1" points="23.64 32.35 23.67 32.41 31.51 18.29 38.47 16.49"/><polygon class="cls-1" points="67.41 119.46 59.95 121.39 57.12 109.97 64.57 108.04 67.41 119.46"/><path class="cls-1" d="M93,232.94l-1.17.3a2,2,0,0,1-2.39-1.42l-13-52.27,5-1.3,13,52.27A2,2,0,0,1,93,232.94Z"/><polygon class="cls-1" points="72.73 130.67 61.44 133.71 59.7 126.8 71 123.76 72.73 130.67"/><polygon class="cls-1" points="82.5 177.24 75.05 179.17 64.87 138.06 72.33 136.14 82.5 177.24"/><path class="cls-2" d="M57.17,8,38.39,12.85a.8.8,0,0,1-1-.58L36.26,7.59a.81.81,0,0,1,.58-1L55.62,1.75a.8.8,0,0,1,1,.58L57.75,7A.82.82,0,0,1,57.17,8Z"/><path class="cls-2" d="M59.27,16.46,40.49,21.32a.8.8,0,0,1-1-.58l-1.16-4.68a.81.81,0,0,1,.58-1l18.78-4.86a.8.8,0,0,1,1,.58l1.16,4.68A.81.81,0,0,1,59.27,16.46Z"/><polygon class="cls-2" points="74.36 122.86 56.86 127.39 55.65 122.5 73.14 117.97 74.36 122.86"/><polygon class="cls-2" points="77.39 134.81 59.89 139.34 58.68 134.45 76.17 129.92 77.39 134.81"/><ellipse class="cls-2" cx="40.04" cy="42.94" rx="3.54" ry="3.5" transform="translate(-17.34 55.36) rotate(-59.22)"/><polyline class="cls-1" points="13.27 49.03 20.1 89.3 31.7 94.36"/><polygon class="cls-1" points="91.5 44.37 72.53 44.37 63.05 60.8 72.53 77.22 91.5 77.22 100.98 60.8 91.5 44.37"/><polygon class="cls-1" points="86.24 53.48 77.8 53.48 73.57 60.8 77.8 68.11 86.24 68.11 90.47 60.8 86.24 53.48"/><polygon class="cls-1" points="118.76 87.26 104.32 87.26 97.1 99.76 104.32 112.27 118.76 112.27 125.98 99.76 118.76 87.26"/><polygon class="cls-1" points="114.53 94.58 108.55 94.58 105.55 99.76 108.55 104.95 114.53 104.95 117.52 99.76 114.53 94.58"/></g></g></svg>