<svg xmlns="http://www.w3.org/2000/svg" viewBox="0 0 192.2 129.58"><defs><style>.cls-1,.cls-2,.cls-3,.cls-7{fill:none;stroke-width:3px;}.cls-1{stroke:#63b9fa;}.cls-1,.cls-3,.cls-7{stroke-linecap:round;}.cls-1,.cls-3{stroke-linejoin:round;}.cls-2,.cls-3,.cls-7{stroke:#0976d4;}.cls-2,.cls-7{stroke-miterlimit:10;}.cls-4{fill:#63b9fa;}.cls-5{fill:#0976d4;}.cls-6{fill:#fff;}</style></defs><title>Asset 16</title><g id="Layer_2" data-name="Layer 2"><g id="Layer_1-2" data-name="Layer 1"><polyline class="cls-1" points="189.34 91.11 189.35 91.09 185.23 89.43 180.9 87.69 176.56 85.94"/><polyline class="cls-1" points="174.52 127.91 174.51 127.93 170.39 126.27 166.06 124.52 161.73 122.78"/><polyline class="cls-1" points="154.65 113.4 154.41 113.31 140.28 107.62"/><polyline class="cls-1" points="153.53 83.2 164.73 87.71 164.97 87.8"/><path class="cls-1" d="M189.34,91.11l.19,0c2.39,1,1,10-3.08,20.17S177.08,129,174.69,128l-.17-.09"/><path class="cls-1" d="M183,88.53c.79.32,1.17,1.5,1.18,3.29,0,3.7-1.5,10-4.26,16.88s-6,12.47-8.63,15.12c-1.25,1.28-2.34,1.87-3.13,1.55"/><path class="cls-1" d="M176.56,85.94c.8.32,1.17,1.52,1.17,3.35,0,3.71-1.5,10-4.25,16.82s-6,12.4-8.59,15.06c-1.27,1.32-2.37,1.93-3.16,1.61"/><path class="cls-1" d="M165,87.67s0,.08,0,.14A65.05,65.05,0,0,1,161,101.1a63.91,63.91,0,0,1-6.38,12.3.25.25,0,0,1-.08.12"/><line class="cls-1" x1="176.56" y1="85.94" x2="164.73" y2="87.7"/><line class="cls-1" x1="161.73" y1="122.78" x2="154.41" y2="113.31"/><polyline class="cls-1" points="2.6 56.27 2.59 56.29 6.55 58.3 10.71 60.42 14.88 62.54"/><polyline class="cls-1" points="20.58 20.91 20.59 20.89 24.55 22.91 28.71 25.02 32.88 27.14"/><polyline class="cls-1" points="47.52 41.37 44.31 39.74 44.28 39.72 39.34 37.21 39.1 37.1"/><polyline class="cls-1" points="26.59 61.7 26.83 61.81 27.26 62.03 27.31 62.06 35.71 66.33 35.76 66.36 42.05 69.55"/><path class="cls-1" d="M2.6,56.27l-.18-.07c-2.3-1.17-.14-10,4.83-19.82S18.12,19.63,20.42,20.8a.91.91,0,0,1,.16.11"/><path class="cls-1" d="M8.69,59.39c-.76-.38-1-1.59-.88-3.37.29-3.69,2.37-9.86,5.72-16.45s7.1-11.89,9.91-14.3c1.36-1.17,2.49-1.66,3.25-1.28"/><path class="cls-1" d="M14.88,62.54c-.77-.39-1-1.62-.87-3.44.3-3.7,2.37-9.83,5.7-16.39s7.07-11.82,9.87-14.25c1.38-1.2,2.53-1.71,3.3-1.32"/><path class="cls-1" d="M26.56,61.83l0-.14A65.42,65.42,0,0,1,31.67,48.8a64.39,64.39,0,0,1,7.44-11.7A.24.24,0,0,1,39.2,37"/><line class="cls-1" x1="14.88" y1="62.54" x2="26.83" y2="61.81"/><line class="cls-1" x1="32.88" y1="27.14" x2="39.33" y2="37.21"/><path class="cls-2" d="M150.57,54.81a45.91,45.91,0,0,1,3.57,17.77c0,27.82-21.51,50.38-55.93,50.38-30.89,0-55.93-22.56-55.93-50.38a46.13,46.13,0,0,1,5.5-21.84"/><path class="cls-3" d="M48.18,53.32h0l1.1,11.79h0s.82,11.05,1.37,14.7c0,.08.06.3.06.3C56.24,98,75.35,110.85,98.16,110.85c18,0,38.86-6.45,46.57-26.51,0,0,4.71-25.55,4.71-25.55"/><path class="cls-2" d="M99.53,1.5c-28.73,0-52,20-52,44.69s23.28,44.69,52,44.69,52-20,52-44.69S128.25,1.5,99.53,1.5Zm.21,82.17c-24.85,0-45-16.78-45-37.48s20.15-37.48,45-37.48,45,16.78,45,37.48S124.58,83.67,99.74,83.67Z"/><path class="cls-2" d="M144.73,46.19c0,20.7-20.15,37.48-45,37.48s-45-16.78-45-37.48,20.15-37.48,45-37.48S144.73,25.49,144.73,46.19Z"/><path class="cls-2" d="M144.73,46.19c0,20.7-20.15,37.48-45,37.48s-45-16.78-45-37.48,20.15-37.48,45-37.48S144.73,25.49,144.73,46.19Z"/><line class="cls-2" x1="50.18" y1="60.32" x2="50.18" y2="60.32"/><ellipse class="cls-2" cx="101.45" cy="39.4" rx="5.85" ry="7.17" transform="translate(25.58 117.43) rotate(-67.03)"/><ellipse class="cls-4" cx="101.34" cy="39.4" rx="3.15" ry="3.86" transform="translate(25.52 117.32) rotate(-67.03)"/><rect class="cls-4" x="60.86" y="51.09" width="61.26" height="12.52" rx="0.4" ry="0.4" transform="translate(29.64 -31.16) rotate(22.97)"/><rect class="cls-3" x="60.28" y="45.71" width="42.84" height="14.99" rx="0.4" ry="0.4" transform="translate(27.25 -27.67) rotate(22.97)"/><rect class="cls-4" x="94.07" y="17.78" width="30.46" height="6.23" rx="0.4" ry="0.4" transform="translate(16.82 -41) rotate(22.97)"/><rect class="cls-4" x="69.7" y="25.2" width="16.53" height="6.23" rx="0.4" ry="0.4" transform="translate(17.23 -28.19) rotate(22.97)"/><rect class="cls-5" x="67.18" y="43.09" width="3.71" height="9.38" rx="0.4" ry="0.4" transform="translate(24.12 -23.15) rotate(22.97)"/><rect class="cls-5" x="73.71" y="45.85" width="3.71" height="9.38" rx="0.4" ry="0.4" transform="translate(25.72 -25.48) rotate(22.97)"/><rect class="cls-5" x="80.19" y="48.6" width="3.71" height="9.38" rx="0.4" ry="0.4" transform="translate(27.31 -27.8) rotate(22.97)"/><rect class="cls-5" x="86.68" y="51.35" width="3.71" height="9.38" rx="0.4" ry="0.4" transform="translate(28.9 -30.11) rotate(22.97)"/><rect class="cls-5" x="93.18" y="54.11" width="3.71" height="9.38" rx="0.4" ry="0.4" transform="translate(30.48 -32.43) rotate(22.97)"/><rect class="cls-6" x="99.68" y="56.86" width="3.71" height="9.38" rx="0.4" ry="0.4" transform="translate(32.08 -34.75) rotate(22.97)"/><rect class="cls-6" x="106.03" y="59.56" width="3.71" height="9.38" rx="0.4" ry="0.4" transform="translate(33.63 -37.01) rotate(22.97)"/><rect class="cls-6" x="112.37" y="62.24" width="3.71" height="9.38" rx="0.4" ry="0.4" transform="translate(35.18 -39.27) rotate(22.97)"/><path class="cls-5" d="M122.5,70.72l3.19,2.59a.1.1,0,0,0,.16,0l.92-2.63a.1.1,0,0,0-.1-.13l-4.11,0A.1.1,0,0,0,122.5,70.72Z"/><path class="cls-5" d="M97.49,70.79l-2.79,3a.1.1,0,0,0,0,.16l2.57,1.09a.1.1,0,0,0,.14-.08l.22-4.11A.1.1,0,0,0,97.49,70.79Z"/><line class="cls-7" x1="119.12" y1="39.19" x2="138.73" y2="47.51"/><line class="cls-7" x1="116.39" y1="42.03" x2="139.02" y2="51.63"/></g></g></svg>