<svg xmlns="http://www.w3.org/2000/svg" viewBox="0 0 206.46 141"><defs><style>.cls-1,.cls-2{fill:none;stroke-linecap:round;stroke-linejoin:round;stroke-width:3px;}.cls-1{stroke:#0976d4;}.cls-2{stroke:#63b9fa;}</style></defs><title>Asset 5</title><g id="Layer_2" data-name="Layer 2"><g id="Layer_1-2" data-name="Layer 1"><path class="cls-1" d="M83.8,61.6v9.31a6.28,6.28,0,0,1-6.28,6.28L57.4,76.62"/><path class="cls-1" d="M57.4,115.34h0l92.34.62H150"/><path class="cls-1" d="M150,77.24h-.22l-20.18,0a6.28,6.28,0,0,1-6.28-6.28V61.6h-.2"/><path class="cls-1" d="M123.28,61.6c0-.08,0-.3,0-.38-.43-3.11-9.24-5.47-19.77-5.47C93.4,55.75,84.9,58,83.91,61a2.32,2.32,0,0,0-.11.64"/><path class="cls-1" d="M141.79,15.47V12a2,2,0,0,0-.49-1.34c-4.69-5.42-19.65-9.13-37.37-9.13-16.24,0-30.16,4.34-36,9.08a2.47,2.47,0,0,0-.89,1.93v4.61"/><polyline class="cls-2" points="66.18 40.67 61.25 37.68 75.05 26.67 95.9 27.64 120.86 24.76 135.54 32.66 147.45 33.96 142.93 39.76"/><path class="cls-2" d="M147.45,34V20.48S141,10.4,120.86,10.27c0,0-25.21-7.31-45.75,2l-.06,14.38"/><path class="cls-2" d="M75.11,12.29S65.11,16,61.54,24.16c-.54,1.24-.29,13.52-.29,13.52"/><line class="cls-2" x1="120.86" y1="10.27" x2="120.86" y2="24.76"/><path class="cls-1" d="M83.72,61.1C75.08,59.52,69.23,56.87,69.23,54c0-4.81,15.55-8.71,34.73-8.71s34.72,3.9,34.72,8.71c0,3.11-5.63,5.7-15.38,7.25"/><path class="cls-1" d="M70,51.93a5.57,5.57,0,0,1-1.47-1.87,2.22,2.22,0,0,1-.1-.67c0-4.81,15.9-8.72,35.51-8.72s35.51,3.91,35.51,8.72a2.56,2.56,0,0,1-.52,1.48,9.1,9.1,0,0,1-1.07,1.21"/><path class="cls-1" d="M68.43,49.39c-1.31-1-2.25-2.08-2.25-3.16,0-5.31,17.18-9.63,38.37-9.63s38.38,4.32,38.38,9.63c0,1.49-1.33,2.88-3.71,4.13"/><path class="cls-1" d="M66.18,46.23V37a1.15,1.15,0,0,1,.37-.85c5.62-5,20.29-8.53,37.5-8.53,18.9,0,34.74,4.28,38.88,10V45.8"/><path class="cls-1" d="M191,133.84h3.5a2.08,2.08,0,0,0,1.35-.49C201.25,128.66,205,113.71,205,96c0-16.24-4.34-30.16-9.08-36a2.51,2.51,0,0,0-1.93-.89h-4.6"/><polyline class="cls-2" points="165.79 58.23 168.78 53.3 179.79 67.1 178.83 87.95 181.7 112.91 173.81 127.59 172.5 139.5 166.7 134.98"/><path class="cls-2" d="M172.5,139.5H186s10.09-6.43,10.21-26.59c0,0,7.31-25.21-2-45.75l-14.39-.06"/><path class="cls-2" d="M194.18,67.16s-3.74-10-11.88-13.57c-1.23-.54-13.52-.29-13.52-.29"/><line class="cls-2" x1="196.19" y1="112.91" x2="181.7" y2="112.91"/><path class="cls-1" d="M145.1,77.23c1.58-8.64,4.5-16,7.39-16,4.81,0,8.71,15.55,8.71,34.73s-3.9,34.73-8.71,34.73c-3,0-5.59-5.41-7.15-14.8"/><path class="cls-1" d="M154.54,62.05a5.47,5.47,0,0,1,1.87-1.47,2.18,2.18,0,0,1,.67-.1c4.81,0,8.71,15.9,8.71,35.51s-3.9,35.51-8.71,35.51a2.57,2.57,0,0,1-1.49-.52,9.68,9.68,0,0,1-1.21-1.07"/><path class="cls-1" d="M157.08,60.48c1-1.31,2.07-2.25,3.15-2.25,5.32,0,9.63,17.18,9.63,38.38S165.55,135,160.23,135c-1.48,0-2.88-1.33-4.13-3.71"/><path class="cls-1" d="M160.23,58.23h9.21a1.11,1.11,0,0,1,.85.38c5,5.61,8.54,20.28,8.54,37.49,0,18.9-4.29,34.74-10.05,38.88h-8.12"/><path class="cls-1" d="M17.12,59.11H12.51a2.51,2.51,0,0,0-1.93.89C5.84,65.82,1.5,79.74,1.5,96c0,17.73,3.71,32.68,9.13,37.37a2,2,0,0,0,1.34.49h3.5"/><polyline class="cls-2" points="40.67 58.23 37.68 53.3 26.67 67.1 27.64 87.95 24.76 112.91 32.66 127.59 33.96 139.5 39.76 134.98"/><path class="cls-2" d="M34,139.5H20.48s-10.08-6.43-10.21-26.59c0,0-7.31-25.21,2-45.75l14.38-.06"/><path class="cls-2" d="M12.29,67.16s3.73-10,11.87-13.57c1.24-.54,13.52-.29,13.52-.29"/><line class="cls-2" x1="10.27" y1="112.91" x2="24.76" y2="112.91"/><path class="cls-1" d="M61.22,115.35c-1.55,9.75-4.14,15.39-7.25,15.39-4.81,0-8.71-15.55-8.71-34.73S49.16,61.28,54,61.28c2.9,0,5.67,6.68,7.25,15.32"/><path class="cls-1" d="M52.08,129.91A8.44,8.44,0,0,1,50.87,131a2.56,2.56,0,0,1-1.48.52c-4.81,0-8.72-15.9-8.72-35.51s3.91-35.51,8.72-35.51a2.22,2.22,0,0,1,.67.1,5.57,5.57,0,0,1,1.87,1.47"/><path class="cls-1" d="M50.36,131.27c-1.25,2.38-2.64,3.71-4.13,3.71-5.31,0-9.63-17.18-9.63-38.37s4.32-38.38,9.63-38.38c1.08,0,2.19.94,3.16,2.25"/><path class="cls-1" d="M45.8,135H37.68c-5.76-4.14-10-20-10-38.88,0-17.21,3.55-31.88,8.53-37.49a1.12,1.12,0,0,1,.85-.38h9.21"/><path class="cls-1" d="M57.41,76.62c-.09,0-.3,0-.38,0C53.91,77,51.56,85.67,51.56,96c0,9.94,2.26,18.27,5.21,19.25a2.26,2.26,0,0,0,.64.11"/><path class="cls-1" d="M149.74,77.24H150a2.8,2.8,0,0,1,.65.08c2.95,1,5.2,9.31,5.2,19.25,0,10.33-2.35,19-5.47,19.4,0,0-.22,0-.38,0h-.22"/><line class="cls-1" x1="68.43" y1="106.95" x2="139.45" y2="106.95"/></g></g></svg>