<svg xmlns="http://www.w3.org/2000/svg" viewBox="0 0 1490.83 1490.83"><defs><style>.cls-1,.cls-2,.cls-3{fill:none;}.cls-1{stroke:#0976d4;}.cls-1,.cls-2{stroke-linecap:round;stroke-linejoin:round;stroke-width:16px;}.cls-2{stroke:#63b9fa;}</style></defs><title>Asset 31</title><g id="Layer_2" data-name="Layer 2"><g id="Layer_1-2" data-name="Layer 1"><path class="cls-1" d="M648.14,710.68v49.54a33.42,33.42,0,0,1-33.39,33.39l-107-3"/><path class="cls-1" d="M507.75,996.52v.07l491.12,3.28H1000"/><path class="cls-1" d="M1000,793.89v0h-1.17l-107.34-.25a33.41,33.41,0,0,1-33.4-33.39V710.68h-1.07"/><path class="cls-1" d="M858.13,710.68c0-.44.16-1.58.1-2-2.28-16.56-49.16-29.07-105.14-29.07-53.9,0-99.08,12-104.35,27.7a11.19,11.19,0,0,0-.6,3.39"/><path class="cls-1" d="M956.57,465.34V446.71a10.91,10.91,0,0,0-2.63-7.13C929,410.78,849.47,391,755.21,391c-86.39,0-160.4,23.1-191.37,48.31a13.2,13.2,0,0,0-4.76,10.27v24.48"/><polyline class="cls-2" points="554.44 599.38 528.18 583.46 601.6 524.92 712.51 530.04 845.23 514.77 923.34 556.75 986.67 563.7 962.61 594.53"/><path class="cls-2" d="M986.67,563.7V492s-34.19-53.63-141.44-54.3c0,0-134.06-38.88-243.32,10.73l-.31,76.52"/><path class="cls-2" d="M601.91,448.41s-53.19,19.85-72.19,63.17c-2.87,6.56-1.54,71.88-1.54,71.88"/><line class="cls-2" x1="845.23" y1="437.68" x2="845.23" y2="514.77"/><path class="cls-1" d="M647.71,708c-46-8.4-77.06-22.5-77.06-37.88,0-25.59,82.7-46.35,184.71-46.35s184.69,20.76,184.69,46.35c0,16.52-30,30.29-81.82,38.54"/><path class="cls-1" d="M574.71,659.23c-3.1-2.78-6.86-7-7.79-9.93a12.14,12.14,0,0,1-.55-3.57c0-25.59,84.57-46.35,188.89-46.35s188.85,20.76,188.85,46.35a13.57,13.57,0,0,1-2.74,7.89,51.27,51.27,0,0,1-5.7,6.43"/><path class="cls-1" d="M566.37,645.73c-7-5.15-11.93-11-11.93-16.78,0-28.27,91.36-51.21,204.08-51.21S962.61,600.68,962.61,629c0,7.88-7.08,15.33-19.7,22"/><path class="cls-1" d="M554.44,629V580a6,6,0,0,1,2-4.54C586.28,548.94,664.3,530,755.84,530c100.52,0,184.75,22.81,206.77,53.42v43.19"/><path class="cls-1" d="M1218.26,1094.92h18.62a10.89,10.89,0,0,0,7.14-2.64c28.79-24.91,48.54-104.46,48.54-198.72,0-86.39-23.1-160.41-48.31-191.37a13.2,13.2,0,0,0-10.26-4.76h-24.48"/><polyline class="cls-2" points="1084.21 692.78 1100.14 666.52 1158.67 739.95 1153.56 850.86 1168.83 983.58 1126.85 1061.69 1119.9 1125.01 1089.06 1100.95"/><path class="cls-2" d="M1119.9,1125h71.72s53.62-34.19,54.29-141.43c0,0,38.88-134.06-10.72-243.32l-76.52-.31"/><path class="cls-2" d="M1235.19,740.26s-19.86-53.19-63.17-72.19c-6.56-2.88-71.88-1.55-71.88-1.55"/><line class="cls-2" x1="1245.91" y1="983.58" x2="1168.83" y2="983.58"/><path class="cls-1" d="M974.19,793.8c8.4-46,23.9-84.81,39.29-84.81,25.59,0,46.35,82.71,46.35,184.72s-20.76,184.68-46.35,184.68c-16.19,0-29.73-28.77-38-78.67"/><path class="cls-1" d="M1024.37,713.06c2.78-3.1,7-6.86,9.93-7.8a12.14,12.14,0,0,1,3.57-.55c25.59,0,46.34,84.58,46.34,188.89s-20.75,188.86-46.34,188.86a13.62,13.62,0,0,1-7.9-2.75,51.92,51.92,0,0,1-6.42-5.7"/><path class="cls-1" d="M1037.87,704.71c5.15-7,11-11.93,16.77-11.93,28.28,0,51.22,91.37,51.22,204.09S1082.92,1101,1054.64,1101c-7.88,0-15.32-7.07-22-19.7"/><path class="cls-1" d="M1054.64,692.78h49a6,6,0,0,1,4.54,2c26.5,29.87,45.4,107.88,45.4,199.42,0,100.53-22.81,184.75-53.42,206.77H1057"/><path class="cls-1" d="M293.47,697.43H269a13.2,13.2,0,0,0-10.27,4.76c-25.21,31-48.31,105-48.31,191.37,0,94.26,19.75,173.81,48.55,198.72a10.84,10.84,0,0,0,7.13,2.64h18.63"/><polyline class="cls-2" points="418.76 692.78 402.84 666.52 344.3 739.95 349.42 850.86 334.15 983.58 376.13 1061.69 383.08 1125.01 413.91 1100.95"/><path class="cls-2" d="M383.08,1125H311.36s-53.63-34.19-54.3-141.43c0,0-38.88-134.06,10.73-243.32L344.3,740"/><path class="cls-2" d="M267.79,740.26s19.85-53.19,63.16-72.19c6.57-2.88,71.89-1.55,71.89-1.55"/><line class="cls-2" x1="257.06" y1="983.58" x2="334.15" y2="983.58"/><path class="cls-1" d="M528,996.57c-8.25,51.84-22,81.82-38.55,81.82-25.58,0-46.34-82.67-46.34-184.68S463.91,709,489.49,709c15.39,0,30.14,35.51,38.55,81.48"/><path class="cls-1" d="M479.43,1074a51.27,51.27,0,0,1-6.43,5.7,13.61,13.61,0,0,1-7.89,2.75c-25.59,0-46.35-84.55-46.35-188.86s20.76-188.89,46.35-188.89a12.14,12.14,0,0,1,3.57.55c3,.94,7.14,4.7,9.92,7.8"/><path class="cls-1" d="M470.3,1081.25c-6.64,12.63-14.09,19.7-22,19.7-28.27,0-51.21-91.36-51.21-204.08s22.94-204.09,51.21-204.09c5.75,0,11.62,5,16.78,11.93"/><path class="cls-1" d="M446,1101H402.84c-30.62-22-53.42-106.24-53.42-206.77,0-91.54,18.9-169.55,45.39-199.42a6.06,6.06,0,0,1,4.54-2h49"/><path class="cls-1" d="M507.75,790.57c-.44,0-1.58-.15-2-.09-16.55,2.23-29.06,48.21-29.06,103.12,0,52.87,12,97.18,27.69,102.36a11.48,11.48,0,0,0,3.39.58"/><path class="cls-1" d="M998.87,793.86c.32,0,.73,0,1.17,0a14.33,14.33,0,0,1,3.42.41c15.7,5.18,27.67,49.51,27.67,102.39,0,54.94-12.51,100.94-29.06,103.18-.26,0-1.2,0-2,0h-1.17"/><line class="cls-1" x1="566.37" y1="951.87" x2="944.11" y2="951.87"/><rect class="cls-3" width="1490.83" height="1490.83"/></g></g></svg>