<svg xmlns="http://www.w3.org/2000/svg" viewBox="0 0 182.55 124.78"><defs><style>.cls-1,.cls-2{fill:none;stroke-linecap:round;stroke-linejoin:round;stroke-width:3px;}.cls-1{stroke:#0976d4;}.cls-2{stroke:#63b9fa;}</style></defs><title>Asset 25</title><g id="Layer_2" data-name="Layer 2"><g id="Layer_1-2" data-name="Layer 1"><path class="cls-1" d="M74.13,54.54v8.22a5.55,5.55,0,0,1-5.54,5.54l-17.76-.51"/><path class="cls-1" d="M50.83,102h0l81.49.54h.2"/><path class="cls-1" d="M132.52,68.34h-.2l-17.81,0A5.55,5.55,0,0,1,109,62.76V54.54h-.18"/><path class="cls-1" d="M109,54.54c0-.08,0-.27,0-.34-.38-2.75-8.16-4.82-17.45-4.82-8.94,0-16.44,2-17.31,4.59a1.85,1.85,0,0,0-.1.57"/><path class="cls-1" d="M125.31,13.83V10.74a1.79,1.79,0,0,0-.44-1.18c-4.14-4.78-17.33-8.06-33-8.06-14.33,0-26.61,3.83-31.75,8a2.17,2.17,0,0,0-.79,1.7v4.06"/><polyline class="cls-2" points="58.58 36.07 54.23 33.43 66.41 23.72 84.81 24.56 106.83 22.03 119.79 29 130.3 30.15 126.31 35.27"/><path class="cls-2" d="M130.3,30.15V18.25s-5.67-8.9-23.47-9c0,0-22.24-6.45-40.37,1.78l0,12.7"/><path class="cls-2" d="M66.46,11s-8.83,3.29-12,10.48c-.48,1.09-.25,11.93-.25,11.93"/><line class="cls-2" x1="106.83" y1="9.24" x2="106.83" y2="22.03"/><path class="cls-1" d="M74.06,54.09c-7.63-1.39-12.79-3.73-12.79-6.28,0-4.25,13.72-7.69,30.65-7.69s30.64,3.44,30.64,7.69c0,2.74-5,5-13.57,6.39"/><path class="cls-1" d="M62,46a4.91,4.91,0,0,1-1.3-1.65,2,2,0,0,1-.09-.59c0-4.25,14-7.69,31.34-7.69s31.34,3.44,31.34,7.69a2.24,2.24,0,0,1-.46,1.31,8.28,8.28,0,0,1-.94,1.07"/><path class="cls-1" d="M60.56,43.76c-1.15-.85-2-1.83-2-2.78,0-4.7,15.16-8.5,33.86-8.5s33.87,3.8,33.87,8.5c0,1.3-1.18,2.54-3.27,3.64"/><path class="cls-1" d="M58.58,41V32.85a1,1,0,0,1,.33-.75c5-4.4,17.9-7.54,33.09-7.54,16.68,0,30.65,3.79,34.31,8.87v7.16"/><path class="cls-1" d="M168.73,118.29h3.08a1.79,1.79,0,0,0,1.19-.44c4.78-4.13,8.05-17.33,8.05-33,0-14.33-3.83-26.61-8-31.75a2.2,2.2,0,0,0-1.71-.79h-4.06"/><polyline class="cls-2" points="146.48 51.57 149.13 47.21 158.84 59.39 157.99 77.8 160.52 99.82 153.56 112.78 152.41 123.28 147.29 119.29"/><path class="cls-2" d="M152.4,123.28h11.9s8.9-5.67,9-23.46c0,0,6.45-22.25-1.78-40.38l-12.69,0"/><path class="cls-2" d="M171.53,59.44s-3.29-8.82-10.48-12c-1.09-.48-11.92-.26-11.92-.26"/><line class="cls-2" x1="173.31" y1="99.82" x2="160.52" y2="99.82"/><path class="cls-1" d="M128.23,68.33c1.39-7.63,4-14.07,6.52-14.07,4.24,0,7.69,13.72,7.69,30.65s-3.45,30.64-7.69,30.64c-2.69,0-4.94-4.77-6.31-13.06"/><path class="cls-1" d="M136.55,54.93a5,5,0,0,1,1.65-1.29,2.06,2.06,0,0,1,.59-.09c4.25,0,7.69,14,7.69,31.34s-3.44,31.33-7.69,31.33a2.28,2.28,0,0,1-1.31-.45,9.17,9.17,0,0,1-1.06-1"/><path class="cls-1" d="M138.79,53.55c.86-1.16,1.83-2,2.79-2,4.69,0,8.49,15.16,8.49,33.86s-3.8,33.86-8.49,33.86c-1.31,0-2.55-1.17-3.65-3.27"/><path class="cls-1" d="M141.58,51.57h8.12a1,1,0,0,1,.76.33c4.39,5,7.53,17.9,7.53,33.08,0,16.68-3.78,30.66-8.86,34.31H142"/><path class="cls-1" d="M15.28,52.34H11.22a2.17,2.17,0,0,0-1.7.79c-4.19,5.14-8,17.42-8,31.75,0,15.64,3.28,28.84,8.06,33a1.74,1.74,0,0,0,1.18.44h3.09"/><polyline class="cls-2" points="36.07 51.57 33.43 47.21 23.72 59.39 24.56 77.8 22.03 99.82 29 112.78 30.15 123.28 35.27 119.29"/><path class="cls-2" d="M30.15,123.28H18.25s-8.9-5.67-9-23.46c0,0-6.45-22.25,1.78-40.38l12.7,0"/><path class="cls-2" d="M11,59.44s3.29-8.82,10.48-12c1.09-.48,11.93-.26,11.93-.26"/><line class="cls-2" x1="9.24" y1="99.82" x2="22.03" y2="99.82"/><path class="cls-1" d="M54.2,102c-1.37,8.6-3.65,13.58-6.39,13.58-4.25,0-7.69-13.72-7.69-30.64s3.44-30.65,7.69-30.65c2.55,0,5,5.89,6.39,13.52"/><path class="cls-1" d="M46.14,114.82a9.24,9.24,0,0,1-1.07,1,2.23,2.23,0,0,1-1.31.45c-4.25,0-7.69-14-7.69-31.33s3.44-31.34,7.69-31.34a2,2,0,0,1,.59.09A4.87,4.87,0,0,1,46,54.93"/><path class="cls-1" d="M44.62,116c-1.1,2.1-2.34,3.27-3.64,3.27-4.7,0-8.5-15.16-8.5-33.86s3.8-33.86,8.5-33.86c1,0,1.93.82,2.78,2"/><path class="cls-1" d="M40.59,119.29H33.43c-5.08-3.65-8.87-17.63-8.87-34.31,0-15.18,3.14-28.13,7.54-33.08a1,1,0,0,1,.75-.33H41"/><path class="cls-1" d="M50.84,67.79c-.08,0-.27,0-.34,0-2.75.37-4.82,8-4.82,17.11,0,8.77,2,16.12,4.59,17a1.85,1.85,0,0,0,.57.1"/><path class="cls-1" d="M132.32,68.34h.2a2.66,2.66,0,0,1,.56.07c2.61.86,4.6,8.22,4.6,17,0,9.12-2.08,16.75-4.83,17.12,0,0-.2,0-.33,0h-.2"/><line class="cls-1" x1="60.56" y1="94.56" x2="123.24" y2="94.56"/></g></g></svg>