<svg xmlns="http://www.w3.org/2000/svg" viewBox="0 0 1490.83 1490.83"><defs><style>.cls-1,.cls-2,.cls-5{fill:none;}.cls-1{stroke:#0976d4;stroke-miterlimit:10;}.cls-1,.cls-2{stroke-width:16px;}.cls-2{stroke:#63b9fa;stroke-linecap:round;stroke-linejoin:round;}.cls-3{fill:#0976d4;}.cls-4{fill:#63b9fa;}</style></defs><title>Asset 36</title><g id="Layer_2" data-name="Layer 2"><g id="Layer_1-2" data-name="Layer 1"><path class="cls-1" d="M1171.67,728H1132.5a5.4,5.4,0,0,0-5.4,5.4V859.87a5.41,5.41,0,0,0,5.4,5.41h38.41"/><path class="cls-1" d="M1069.28,728h57.59a0,0,0,0,1,0,0V865.29a0,0,0,0,1,0,0h-57.59a5.11,5.11,0,0,1-5.11-5.11V733.12A5.11,5.11,0,0,1,1069.28,728Z" transform="translate(2191.05 1593.3) rotate(-180)"/><polygon class="cls-1" points="1064.17 728.01 987.57 686.99 987.57 901.39 1064.17 865.29 1064.17 728.01"/><ellipse class="cls-2" cx="1235.35" cy="798.58" rx="10.99" ry="76.95"/><path class="cls-2" d="M1207.47,721.64c-6.06,0-11,34.43-11,76.94s5,76.95,11,76.95"/><path class="cls-2" d="M1231.65,728.5a17.38,17.38,0,0,0-13.88-6.86h-29.19c-5.67,0-10.41,4.28-11.82,9.78-3.36,13.16-5.64,38.3-5.64,67.16,0,35.5,2.51,66.72,7.89,74.08,2.1,2.87,6.23,2.87,9.63,2.87h29.13a17.5,17.5,0,0,0,13.28-6.11"/><line class="cls-2" x1="1235.35" y1="721.64" x2="1218.45" y2="721.64"/><line class="cls-2" x1="1235.35" y1="875.53" x2="1218.45" y2="875.53"/><path class="cls-1" d="M322.23,860.39H361.4a5.4,5.4,0,0,0,5.4-5.4V728.51a5.41,5.41,0,0,0-5.4-5.41H323"/><path class="cls-1" d="M372.14,723.09h57.59a0,0,0,0,1,0,0V860.37a0,0,0,0,1,0,0H372.14a5.11,5.11,0,0,1-5.11-5.11V728.19A5.11,5.11,0,0,1,372.14,723.09Z"/><polygon class="cls-1" points="429.73 860.37 506.33 901.39 506.33 686.99 429.73 723.09 429.73 860.37"/><ellipse class="cls-2" cx="258.55" cy="789.79" rx="10.99" ry="76.95"/><path class="cls-2" d="M286.43,866.74c6.06,0,11-34.43,11-76.94s-4.95-76.95-11-76.95"/><path class="cls-2" d="M262.25,859.87a17.36,17.36,0,0,0,13.88,6.87h29.19c5.67,0,10.41-4.28,11.82-9.78,3.36-13.16,5.64-38.3,5.64-67.16,0-35.5-2.51-66.72-7.89-74.08-2.1-2.87-6.23-2.87-9.63-2.87H276.13A17.5,17.5,0,0,0,262.85,719"/><line class="cls-2" x1="258.55" y1="866.74" x2="275.45" y2="866.74"/><line class="cls-2" x1="258.55" y1="712.85" x2="275.45" y2="712.85"/><path class="cls-1" d="M822.56,599.46H968.71A17.5,17.5,0,0,1,986.2,617v369a17.45,17.45,0,0,1-17.49,17.42h-150"/><path class="cls-1" d="M669.88,1003.33H524.22a17.45,17.45,0,0,1-17.49-17.42V617a17.5,17.5,0,0,1,17.49-17.49H666"/><polyline class="cls-1" points="790.87 599.46 880.98 599.46 880.98 560.51 608.46 560.51 608.46 599.46 698.46 599.46"/><path class="cls-3" d="M897.1,539.19H591.84a1.59,1.59,0,0,0-1.6,1.6v18.13a1.59,1.59,0,0,0,1.6,1.6H897.1a1.59,1.59,0,0,0,1.6-1.6V540.79a1.59,1.59,0,0,0-1.6-1.6Z"/><polygon class="cls-4" points="877.34 525.95 611.23 525.95 611.23 539.19 877.34 539.19 877.34 525.95 877.34 525.95"/><path class="cls-3" d="M876.23,464.54v50.23H613V464.54H876.23m11.74-16H601.24A4.25,4.25,0,0,0,597,452.8v73.71a4.25,4.25,0,0,0,4.25,4.26H888a4.26,4.26,0,0,0,4.26-4.26V452.8a4.26,4.26,0,0,0-4.26-4.26Z"/><path class="cls-4" d="M650.51,486v7.35h-7.34V486h7.34m13-16H630.12a3,3,0,0,0-3,2.95v33.45a3,3,0,0,0,3,2.95h33.44a3,3,0,0,0,3-2.95V472.93a3,3,0,0,0-3-2.95Z"/><path class="cls-4" d="M534.08,615.6a13.09,13.09,0,1,0,13.08,13.08,13.09,13.09,0,0,0-13.08-13.08Z"/><path class="cls-4" d="M958.06,615.6a13.09,13.09,0,1,0,13.08,13.08,13.09,13.09,0,0,0-13.08-13.08Z"/><path class="cls-4" d="M958.46,961a13.09,13.09,0,1,0,13.08,13.09A13.09,13.09,0,0,0,958.46,961Z"/><path class="cls-4" d="M534.48,961a13.09,13.09,0,1,0,13.08,13.09A13.09,13.09,0,0,0,534.48,961Z"/><path class="cls-3" d="M744.28,601.17a203.82,203.82,0,1,1-79.61,16.07,203.24,203.24,0,0,1,79.61-16.07m0-16c-121.79,0-220.53,98.74-220.53,220.54s98.74,220.53,220.53,220.53S964.82,927.5,964.82,805.71,866.08,585.17,744.28,585.17Z"/><line class="cls-2" x1="693.07" y1="756.23" x2="793.72" y2="851.9"/><circle class="cls-1" cx="744.7" cy="802.67" r="69.48"/><rect class="cls-5" width="1490.83" height="1490.83"/></g></g></svg>