<svg xmlns="http://www.w3.org/2000/svg" viewBox="0 0 151.63 86.3"><defs><style>.cls-1,.cls-2{fill:none;stroke-width:3px;}.cls-1{stroke:#0976d4;stroke-miterlimit:10;}.cls-2{stroke:#63b9fa;stroke-linecap:round;stroke-linejoin:round;}.cls-3{fill:#0976d4;}.cls-4{fill:#63b9fa;}</style></defs><title>Asset 30</title><g id="Layer_2" data-name="Layer 2"><g id="Layer_1-2" data-name="Layer 1"><path class="cls-1" d="M139.87,41.74h-7.42c-.22,0-.4.36-.4.81V61.44c0,.45.18.81.4.81h7.36"/><path class="cls-1" d="M128.28,41.75h3.47a0,0,0,0,1,0,0V62.25a0,0,0,0,1,0,0h-3.47a5.11,5.11,0,0,1-5.11-5.11V46.86A5.11,5.11,0,0,1,128.28,41.75Z" transform="translate(254.92 104) rotate(-180)"/><polygon class="cls-1" points="123.17 41.75 111.73 35.62 111.73 67.65 123.17 62.25 123.17 41.75"/><ellipse class="cls-2" cx="148.49" cy="52.29" rx="1.64" ry="11.49"/><path class="cls-2" d="M144.32,40.79c-.9,0-1.64,5.15-1.64,11.5s.74,11.49,1.64,11.49"/><path class="cls-2" d="M147.94,41.82a2.6,2.6,0,0,0-2.08-1H141.5a1.89,1.89,0,0,0-1.76,1.47,47.2,47.2,0,0,0-.85,10c0,5.3.38,10,1.18,11.06.32.43.93.43,1.44.43h4.35a2.62,2.62,0,0,0,2-.91"/><line class="cls-2" x1="148.49" y1="40.79" x2="145.97" y2="40.79"/><line class="cls-2" x1="148.49" y1="63.78" x2="145.97" y2="63.78"/><path class="cls-1" d="M139.87,41.74h-7.42c-.22,0-.4.36-.4.81V61.44c0,.45.18.81.4.81h7.36"/><path class="cls-1" d="M128.28,41.75h3.47a0,0,0,0,1,0,0V62.25a0,0,0,0,1,0,0h-3.47a5.11,5.11,0,0,1-5.11-5.11V46.86A5.11,5.11,0,0,1,128.28,41.75Z" transform="translate(254.92 104) rotate(-180)"/><polygon class="cls-1" points="123.17 41.75 111.73 35.62 111.73 67.65 123.17 62.25 123.17 41.75"/><ellipse class="cls-2" cx="148.49" cy="52.29" rx="1.64" ry="11.49"/><path class="cls-2" d="M144.32,40.79c-.9,0-1.64,5.15-1.64,11.5s.74,11.49,1.64,11.49"/><path class="cls-2" d="M147.94,41.82a2.6,2.6,0,0,0-2.08-1H141.5a1.89,1.89,0,0,0-1.76,1.47,47.2,47.2,0,0,0-.85,10c0,5.3.38,10,1.18,11.06.32.43.93.43,1.44.43h4.35a2.62,2.62,0,0,0,2-.91"/><line class="cls-2" x1="148.49" y1="40.79" x2="145.97" y2="40.79"/><line class="cls-2" x1="148.49" y1="63.78" x2="145.97" y2="63.78"/><path class="cls-1" d="M11.76,62.32h7.42c.22,0,.4-.37.4-.81V42.62c0-.45-.18-.81-.4-.81H11.82"/><path class="cls-1" d="M25,41.81h3.47a0,0,0,0,1,0,0V62.31a0,0,0,0,1,0,0H25a5.11,5.11,0,0,1-5.11-5.11V46.91A5.11,5.11,0,0,1,25,41.81Z"/><polygon class="cls-1" points="28.46 62.31 39.9 68.44 39.9 36.41 28.46 41.81 28.46 62.31"/><ellipse class="cls-2" cx="3.14" cy="51.77" rx="1.64" ry="11.49"/><path class="cls-2" d="M7.31,63.26c.9,0,1.64-5.14,1.64-11.49S8.21,40.28,7.31,40.28"/><path class="cls-2" d="M3.69,62.24a2.59,2.59,0,0,0,2.08,1h4.36a1.87,1.87,0,0,0,1.76-1.46,47.2,47.2,0,0,0,.85-10c0-5.3-.38-10-1.18-11.06-.32-.43-.93-.43-1.44-.43H5.77a2.64,2.64,0,0,0-2,.91"/><line class="cls-2" x1="3.14" y1="63.26" x2="5.67" y2="63.26"/><line class="cls-2" x1="3.14" y1="40.28" x2="5.67" y2="40.28"/><path class="cls-1" d="M87.08,22.54h21.83a2.62,2.62,0,0,1,2.61,2.62V80.27a2.6,2.6,0,0,1-2.61,2.6H86.5"/><path class="cls-1" d="M64.27,82.87H42.51a2.6,2.6,0,0,1-2.61-2.6V25.16a2.62,2.62,0,0,1,2.61-2.62H63.7"/><polyline class="cls-1" points="82.35 22.55 95.81 22.55 95.81 16.73 55.1 16.73 55.1 22.55 68.54 22.55"/><path class="cls-3" d="M97.5,13.54H53.34a1,1,0,0,0-1,1v1.27a1,1,0,0,0,1,1H97.5a1,1,0,0,0,1-1V14.5a1,1,0,0,0-1-1Z"/><polygon class="cls-4" points="95.26 11.56 55.51 11.56 55.51 13.54 95.26 13.54 95.26 11.56 95.26 11.56"/><path class="cls-3" d="M93.79,3a.7.7,0,0,1,.7.7V8.59a.7.7,0,0,1-.7.69H57.08a.7.7,0,0,1-.7-.69V3.7a.7.7,0,0,1,.7-.7H93.79m0-3H57.08a3.7,3.7,0,0,0-3.7,3.7V8.59a3.7,3.7,0,0,0,3.7,3.69H93.79a3.7,3.7,0,0,0,3.7-3.69V3.7A3.7,3.7,0,0,0,93.79,0Z"/><path class="cls-4" d="M62,3.2H59.66A1.77,1.77,0,0,0,57.89,5V7.31a1.77,1.77,0,0,0,1.77,1.77H62a1.77,1.77,0,0,0,1.77-1.77V5A1.77,1.77,0,0,0,62,3.2Z"/><path class="cls-4" d="M44,25a2,2,0,1,0,1.95,2A2,2,0,0,0,44,25Z"/><path class="cls-4" d="M107.32,25a2,2,0,1,0,2,2,2,2,0,0,0-2-2Z"/><path class="cls-4" d="M107.38,76.56a2,2,0,1,0,2,2,1.95,1.95,0,0,0-2-2Z"/><path class="cls-4" d="M44.05,76.56a2,2,0,1,0,2,2,2,2,0,0,0-2-2Z"/><path class="cls-3" d="M75.39,23.41A29.95,29.95,0,1,1,45.44,53.35a30,30,0,0,1,30-29.94m0-3a32.95,32.95,0,1,0,32.94,32.94A32.95,32.95,0,0,0,75.39,20.41Z"/><line class="cls-2" x1="67.74" y1="45.96" x2="82.77" y2="60.25"/><circle class="cls-1" cx="75.45" cy="52.9" r="10.38"/></g></g></svg>