<svg xmlns="http://www.w3.org/2000/svg" viewBox="0 0 231.95 108.62"><defs><style>.cls-1,.cls-2{fill:none;stroke-width:3px;}.cls-1{stroke:#0976d4;stroke-miterlimit:10;}.cls-2{stroke:#63b9fa;stroke-linecap:round;stroke-linejoin:round;}.cls-3{fill:#0976d4;}.cls-4{fill:#63b9fa;}</style></defs><title>Asset 10</title><g id="Layer_2" data-name="Layer 2"><g id="Layer_1-2" data-name="Layer 1"><path class="cls-1" d="M14.71,78.35H33.25a1,1,0,0,0,1-1V53.56a1,1,0,0,0-1-1H14.31"/><path class="cls-1" d="M39.94,52.55H56.43a0,0,0,0,1,0,0V78.36a0,0,0,0,1,0,0H39.94a5.11,5.11,0,0,1-5.11-5.11V57.65A5.11,5.11,0,0,1,39.94,52.55Z"/><polygon class="cls-1" points="56.43 52.55 70.83 44.83 70.83 85.14 56.43 78.36 56.43 52.55"/><ellipse class="cls-2" cx="3.57" cy="65.81" rx="2.07" ry="14.47"/><path class="cls-2" d="M8.81,80.28c1.14,0,2.07-6.47,2.07-14.47S10,51.35,8.81,51.35"/><path class="cls-2" d="M4.37,79.13a3.31,3.31,0,0,0,2.5,1.15h5.48c.64,0,1.41,0,1.81-.54,1-1.38,1.48-7.25,1.48-13.93a59.51,59.51,0,0,0-1.06-12.62,2.35,2.35,0,0,0-2.22-1.84H6.87a3.27,3.27,0,0,0-2.61,1.29"/><line class="cls-2" x1="3.57" y1="51.35" x2="6.74" y2="51.35"/><line class="cls-2" x1="3.57" y1="80.28" x2="6.74" y2="80.28"/><path class="cls-1" d="M217.38,52.54H198.71a1,1,0,0,0-1,1V77.34a1,1,0,0,0,1,1h18.53"/><path class="cls-1" d="M180.63,52.55h16.49a0,0,0,0,1,0,0V78.36a0,0,0,0,1,0,0H180.63a5.11,5.11,0,0,1-5.11-5.11V57.65A5.11,5.11,0,0,1,180.63,52.55Z" transform="translate(372.63 130.9) rotate(-180)"/><polygon class="cls-1" points="175.52 52.55 161.11 44.83 161.11 85.14 175.52 78.36 175.52 52.55"/><ellipse class="cls-2" cx="228.38" cy="65.81" rx="2.07" ry="14.47"/><path class="cls-2" d="M223.14,51.35c-1.14,0-2.07,6.47-2.07,14.46s.93,14.47,2.07,14.47"/><path class="cls-2" d="M227.69,52.64a3.27,3.27,0,0,0-2.61-1.29h-5.49a2.35,2.35,0,0,0-2.22,1.84,59.51,59.51,0,0,0-1.06,12.62c0,6.68.47,12.55,1.48,13.93.39.54,1.17.54,1.81.54h5.48a3.29,3.29,0,0,0,2.49-1.15"/><line class="cls-2" x1="228.38" y1="51.35" x2="225.21" y2="51.35"/><line class="cls-2" x1="228.38" y1="80.28" x2="225.21" y2="80.28"/><path class="cls-1" d="M130.09,28.38h27.48a3.29,3.29,0,0,1,3.29,3.28V101a3.28,3.28,0,0,1-3.29,3.28H129.36"/><path class="cls-1" d="M101.38,104.31H74A3.28,3.28,0,0,1,70.71,101V31.66A3.28,3.28,0,0,1,74,28.38h26.66"/><polyline class="cls-1" points="124.13 28.38 141.07 28.38 141.07 21.05 89.84 21.05 89.84 28.38 106.76 28.38"/><path class="cls-3" d="M142.8,17H88a1.6,1.6,0,0,0-1.6,1.6v.81a1.6,1.6,0,0,0,1.6,1.6H142.8a1.6,1.6,0,0,0,1.61-1.6v-.81A1.61,1.61,0,0,0,142.8,17Z"/><polygon class="cls-4" points="140.39 14.55 90.36 14.55 90.36 17.04 140.39 17.04 140.39 14.55 140.39 14.55"/><path class="cls-3" d="M138.93,3a1.26,1.26,0,0,1,1.26,1.26V11.2a1.26,1.26,0,0,1-1.26,1.26h-47a1.25,1.25,0,0,1-1.25-1.26V4.26A1.25,1.25,0,0,1,91.93,3h47m0-3h-47a4.25,4.25,0,0,0-4.25,4.26V11.2a4.25,4.25,0,0,0,4.25,4.26h47a4.26,4.26,0,0,0,4.26-4.26V4.26A4.26,4.26,0,0,0,138.93,0Z"/><path class="cls-4" d="M97.75,7v1.4h-1.4V7h1.4m0-3H96.3a3,3,0,0,0-3,3v1.5a3,3,0,0,0,3,2.95h1.5a3,3,0,0,0,3-2.95V7A3,3,0,0,0,97.8,4Z"/><path class="cls-4" d="M75.85,31.41a2.46,2.46,0,1,0,2.46,2.46,2.46,2.46,0,0,0-2.46-2.46Z"/><path class="cls-4" d="M155.57,31.41A2.46,2.46,0,1,0,158,33.87a2.46,2.46,0,0,0-2.46-2.46Z"/><path class="cls-4" d="M155.64,96.36a2.46,2.46,0,1,0,2.46,2.46,2.46,2.46,0,0,0-2.46-2.46Z"/><path class="cls-4" d="M75.93,96.36a2.46,2.46,0,1,0,2.46,2.46,2.46,2.46,0,0,0-2.46-2.46Z"/><path class="cls-3" d="M115.37,28.69A38.47,38.47,0,1,1,76.91,67.15a38.51,38.51,0,0,1,38.46-38.46m0-3a41.47,41.47,0,1,0,41.47,41.46,41.46,41.46,0,0,0-41.47-41.46Z"/><line class="cls-2" x1="105.74" y1="57.85" x2="124.67" y2="75.84"/><circle class="cls-1" cx="115.45" cy="66.58" r="13.06"/></g></g></svg>