<svg xmlns="http://www.w3.org/2000/svg" viewBox="0 0 214.25 148.12"><defs><style>.cls-1,.cls-2,.cls-3{fill:none;stroke-linecap:round;stroke-linejoin:round;}.cls-1,.cls-2{stroke:#63b9fa;}.cls-1,.cls-3{stroke-width:3px;}.cls-2{stroke-width:2px;}.cls-3{stroke:#0976d4;}</style></defs><title>Asset 9</title><g id="Layer_2" data-name="Layer 2"><g id="Layer_1-2" data-name="Layer 1"><polyline class="cls-1" points="189.67 16.38 194.99 16.38 194.99 7.91 191.66 7.91"/><rect class="cls-1" x="194.99" y="4.4" width="4.66" height="14.75" rx="1" ry="1"/><polyline class="cls-1" points="202.76 8.44 199.65 8.44 199.65 15.37 202.93 15.37 202.93 15.35"/><circle class="cls-2" cx="207.47" cy="11.78" r="5.78"/><line class="cls-2" x1="212.65" y1="11.77" x2="210.45" y2="11.77"/><line class="cls-2" x1="204.49" y1="11.77" x2="202.35" y2="11.77"/><line class="cls-2" x1="207.5" y1="17.32" x2="207.5" y2="14.73"/><line class="cls-2" x1="207.5" y1="8.77" x2="207.5" y2="6.24"/><line class="cls-2" x1="211.14" y1="15.42" x2="209.57" y2="13.85"/><line class="cls-2" x1="205.36" y1="9.64" x2="203.86" y2="8.14"/><line class="cls-2" x1="205.39" y1="13.88" x2="203.58" y2="15.69"/><line class="cls-2" x1="211.41" y1="7.86" x2="209.6" y2="9.67"/><circle class="cls-2" cx="207.47" cy="11.75" r="2.98"/><polyline class="cls-1" points="190.97 135.93 195.67 135.93 195.67 129.37 191.22 129.37"/><rect class="cls-1" x="195.67" y="126.66" width="3.61" height="11.43" rx="1" ry="1"/><polyline class="cls-1" points="201.69 129.78 199.28 129.78 199.28 135.15 201.82 135.15 201.82 135.14"/><circle class="cls-2" cx="205.34" cy="132.37" r="4.48"/><circle class="cls-2" cx="205.34" cy="132.35" r="2.31"/><polyline class="cls-1" points="16.37 129.37 13.33 129.37 13.33 135.93 16.37 135.93"/><rect class="cls-1" x="9.72" y="126.66" width="3.61" height="11.43" rx="1" ry="1" transform="translate(23.05 264.74) rotate(-180)"/><path class="cls-1" d="M7.24,127.94H9.58a0,0,0,0,1,0,0v9.43a0,0,0,0,1,0,0H7.24a1,1,0,0,1-1-1v-7.43A1,1,0,0,1,7.24,127.94Z"/><polyline class="cls-1" points="15.22 8.42 11.95 8.42 11.95 16.89 17.34 16.89"/><rect class="cls-1" x="7.29" y="4.91" width="4.66" height="14.75" rx="1" ry="1" transform="translate(19.24 24.57) rotate(-180)"/><path class="cls-1" d="M3.5,8.42H6.32a0,0,0,0,1,0,0v8.47a0,0,0,0,1,0,0H3.5a2,2,0,0,1-2-2V10.42A2,2,0,0,1,3.5,8.42Z"/><line class="cls-3" x1="61.63" y1="126.66" x2="58.79" y2="126.66"/><line class="cls-3" x1="61.63" y1="138.08" x2="58.79" y2="138.08"/><line class="cls-3" x1="104.96" y1="126.66" x2="102.12" y2="126.66"/><line class="cls-3" x1="104.96" y1="138.08" x2="102.12" y2="138.08"/><line class="cls-3" x1="127.1" y1="126.66" x2="124.26" y2="126.66"/><line class="cls-3" x1="127.1" y1="138.08" x2="124.26" y2="138.08"/><line class="cls-3" x1="149.24" y1="126.66" x2="146.41" y2="126.66"/><line class="cls-3" x1="149.24" y1="138.08" x2="146.41" y2="138.08"/><line class="cls-3" x1="171.39" y1="126.66" x2="168.56" y2="126.66"/><line class="cls-3" x1="171.39" y1="138.08" x2="168.56" y2="138.08"/><line class="cls-3" x1="82.81" y1="126.66" x2="79.97" y2="126.66"/><line class="cls-3" x1="82.81" y1="138.08" x2="79.97" y2="138.08"/><line class="cls-3" x1="38.52" y1="126.66" x2="35.68" y2="126.66"/><line class="cls-3" x1="38.52" y1="138.08" x2="35.68" y2="138.08"/><path class="cls-3" d="M23.1,14.18H17.64a1,1,0,0,1-1.05-1V2.55a1,1,0,0,1,1.05-1H33.9a1,1,0,0,1,1,1V13.14a1,1,0,0,1-1,1h-4"/><path class="cls-3" d="M51.32,14.18h5.46a1,1,0,0,0,1-1V2.55a1,1,0,0,0-1-1H40.52a1,1,0,0,0-1,1V13.14a1,1,0,0,0,1,1H46"/><path class="cls-3" d="M73.47,14.17h5.46a1,1,0,0,0,1-1V2.54a1,1,0,0,0-1-1H62.68a1,1,0,0,0-1,1V13.13a1,1,0,0,0,1,1h5.46"/><path class="cls-3" d="M95.61,14.18h5.46a1,1,0,0,0,1.05-1V2.55a1,1,0,0,0-1.05-1H84.82a1,1,0,0,0-1,1V13.14a1,1,0,0,0,1,1h5.46"/><path class="cls-3" d="M117.76,14.18h5.46a1,1,0,0,0,1-1V2.55a1,1,0,0,0-1-1H107a1,1,0,0,0-1,1V13.14a1,1,0,0,0,1,1h5.46"/><path class="cls-3" d="M139.91,14.18h5.46a1,1,0,0,0,1-1V2.55a1,1,0,0,0-1-1H129.11a1,1,0,0,0-1.05,1V13.14a1,1,0,0,0,1.05,1h5.46"/><path class="cls-3" d="M162.05,14.18h5.46a1,1,0,0,0,1.05-1V2.55a1,1,0,0,0-1.05-1H151.25a1,1,0,0,0-1,1V13.14a1,1,0,0,0,1,1h5.46"/><path class="cls-3" d="M178.86,14.18H173.4a1,1,0,0,1-1-1V2.55a1,1,0,0,1,1-1h16.25a1,1,0,0,1,1,1V13.14a1,1,0,0,1-1,1H184.2"/><rect class="cls-3" x="17.33" y="35.87" width="18.35" height="110.75" rx="2" ry="2"/><rect class="cls-3" x="39.48" y="35.87" width="18.35" height="110.75" rx="2" ry="2"/><rect class="cls-3" x="61.63" y="35.87" width="18.35" height="110.75" rx="2" ry="2"/><rect class="cls-3" x="83.77" y="35.87" width="18.35" height="110.75" rx="2" ry="2"/><rect class="cls-3" x="105.92" y="35.87" width="18.35" height="110.75" rx="2" ry="2"/><rect class="cls-3" x="128.06" y="35.87" width="18.35" height="110.75" rx="2" ry="2"/><rect class="cls-3" x="150.21" y="35.87" width="18.35" height="110.75" rx="2" ry="2"/><rect class="cls-3" x="172.35" y="35.87" width="18.35" height="110.75" rx="2" ry="2"/><rect class="cls-3" x="23.84" y="10.85" width="5.34" height="25.02" rx="1" ry="1"/><rect class="cls-3" x="45.99" y="10.85" width="5.34" height="25.02" rx="1" ry="1"/><rect class="cls-3" x="68.13" y="10.85" width="5.34" height="25.02" rx="1" ry="1"/><rect class="cls-3" x="90.28" y="10.85" width="5.34" height="25.02" rx="1" ry="1"/><rect class="cls-3" x="112.42" y="10.85" width="5.34" height="25.02" rx="1" ry="1"/><rect class="cls-3" x="134.57" y="10.85" width="5.34" height="25.02" rx="0.52" ry="0.52"/><rect class="cls-3" x="156.71" y="10.85" width="5.34" height="25.02" rx="1" ry="1"/><rect class="cls-3" x="178.86" y="10.85" width="5.34" height="25.02" rx="1" ry="1"/><line class="cls-3" x1="41.76" y1="21.94" x2="34.45" y2="21.94"/><line class="cls-3" x1="85.87" y1="21.94" x2="78.56" y2="21.94"/><line class="cls-3" x1="106.96" y1="21.94" x2="99.65" y2="21.94"/><line class="cls-3" x1="129.01" y1="21.94" x2="121.71" y2="21.94"/><line class="cls-3" x1="151.07" y1="21.94" x2="143.76" y2="21.94"/><polyline class="cls-3" points="166.78 21.94 168.31 21.94 174.44 21.94"/><line class="cls-3" x1="19.54" y1="14.18" x2="19.54" y2="21.94"/><line class="cls-3" x1="61.63" y1="9.64" x2="58.79" y2="9.64"/><line class="cls-3" x1="104.96" y1="9.64" x2="102.12" y2="9.64"/><line class="cls-3" x1="149.24" y1="9.64" x2="146.41" y2="9.64"/><polyline class="cls-3" points="188.38 14.18 188.38 21.94 188.22 21.94"/><line class="cls-3" x1="171.39" y1="9.64" x2="168.56" y2="9.64"/><line class="cls-3" x1="127.1" y1="9.64" x2="124.26" y2="9.64"/><line class="cls-3" x1="82.81" y1="9.64" x2="79.97" y2="9.64"/><line class="cls-3" x1="39.48" y1="9.64" x2="36.65" y2="9.64"/><line class="cls-3" x1="62.85" y1="21.94" x2="55.54" y2="21.94"/><line class="cls-3" x1="172.36" y1="53.78" x2="169.52" y2="53.78"/><line class="cls-3" x1="172.36" y1="40.11" x2="169.52" y2="40.11"/><line class="cls-3" x1="128.06" y1="53.78" x2="125.23" y2="53.78"/><line class="cls-3" x1="128.06" y1="40.11" x2="125.23" y2="40.11"/><line class="cls-3" x1="61.63" y1="53.78" x2="58.79" y2="53.78"/><line class="cls-3" x1="39.48" y1="40.11" x2="36.65" y2="40.11"/><line class="cls-3" x1="61.63" y1="40.11" x2="58.79" y2="40.11"/><line class="cls-3" x1="39.48" y1="53.78" x2="36.65" y2="53.78"/><line class="cls-3" x1="82.81" y1="53.78" x2="79.97" y2="53.78"/><line class="cls-3" x1="82.81" y1="40.11" x2="79.97" y2="40.11"/><line class="cls-3" x1="104.96" y1="53.78" x2="102.12" y2="53.78"/><line class="cls-3" x1="104.96" y1="40.11" x2="102.12" y2="40.11"/><line class="cls-3" x1="150.21" y1="53.78" x2="147.37" y2="53.78"/><line class="cls-3" x1="150.21" y1="40.11" x2="147.37" y2="40.11"/><path class="cls-3" d="M19.54,35.86v-13a2.65,2.65,0,0,1,.16-.89,2.6,2.6,0,0,1,2.46-1.72h1.68"/><path class="cls-3" d="M29.18,20.22H31a2.61,2.61,0,0,1,2.46,1.72,2.7,2.7,0,0,1,.16.9V35.89"/><path class="cls-3" d="M33.65,35.89V29.66A2.63,2.63,0,0,0,31,27H29.18"/><path class="cls-3" d="M19.54,29A2.62,2.62,0,0,1,22.08,27h1.76"/><path class="cls-3" d="M41.6,35.86v-13a2.42,2.42,0,0,1,.16-.89,2.59,2.59,0,0,1,2.45-1.72H46"/><path class="cls-3" d="M51.32,20.22h1.76a2.6,2.6,0,0,1,2.46,1.72,2.48,2.48,0,0,1,.17.9V35.89"/><path class="cls-3" d="M55.71,35.89V29.66A2.63,2.63,0,0,0,53.06,27H51.32"/><path class="cls-3" d="M41.6,29A2.61,2.61,0,0,1,44.14,27H46"/><path class="cls-3" d="M63.65,35.86v-13a2.65,2.65,0,0,1,.16-.89,2.6,2.6,0,0,1,2.46-1.72h1.86"/><path class="cls-3" d="M73.47,20.22h1.67a2.61,2.61,0,0,1,2.46,1.72,2.7,2.7,0,0,1,.16.9V35.89"/><path class="cls-3" d="M77.76,35.89V29.66A2.63,2.63,0,0,0,75.12,27H73.47"/><path class="cls-3" d="M63.65,29A2.62,2.62,0,0,1,66.19,27h1.94"/><path class="cls-3" d="M85.71,35.86v-13a2.42,2.42,0,0,1,.16-.89,2.59,2.59,0,0,1,2.45-1.72h2"/><path class="cls-3" d="M95.61,20.22h1.58a2.6,2.6,0,0,1,2.46,1.72,2.48,2.48,0,0,1,.17.9V35.89"/><path class="cls-3" d="M99.82,35.89V29.66A2.64,2.64,0,0,0,97.17,27H95.61"/><path class="cls-3" d="M85.71,29A2.61,2.61,0,0,1,88.25,27h2"/><path class="cls-3" d="M107.76,35.86v-13a2.65,2.65,0,0,1,.16-.89,2.6,2.6,0,0,1,2.46-1.72h2"/><path class="cls-3" d="M117.76,20.22h1.49a2.61,2.61,0,0,1,2.46,1.72,2.7,2.7,0,0,1,.16.9V35.89"/><path class="cls-3" d="M121.87,35.89V29.66A2.63,2.63,0,0,0,119.23,27h-1.47"/><path class="cls-3" d="M107.76,29A2.62,2.62,0,0,1,110.3,27h2.12"/><path class="cls-3" d="M129.82,35.86v-13a2.42,2.42,0,0,1,.16-.89,2.59,2.59,0,0,1,2.45-1.72h2.14"/><path class="cls-3" d="M139.91,20.22h1.39a2.6,2.6,0,0,1,2.46,1.72,2.47,2.47,0,0,1,.16.9V35.89"/><path class="cls-3" d="M129.82,29A2.61,2.61,0,0,1,132.36,27h2.21"/><path class="cls-3" d="M139.91,27h1.37a2.63,2.63,0,0,1,2.64,2.62v6.23"/><path class="cls-3" d="M151.87,35.86v-13a2.65,2.65,0,0,1,.16-.89,2.6,2.6,0,0,1,2.46-1.72h2.22"/><path class="cls-3" d="M162.05,20.22h1.31a2.61,2.61,0,0,1,2.46,1.72,2.7,2.7,0,0,1,.16.9V35.89"/><path class="cls-3" d="M166,35.89V29.66A2.63,2.63,0,0,0,163.34,27h-1.29"/><path class="cls-3" d="M151.87,29A2.62,2.62,0,0,1,154.41,27h2.3"/><path class="cls-3" d="M174.28,35.86v-13a2.59,2.59,0,0,1,2.61-2.61h2"/><path class="cls-3" d="M184.19,20.22h1.57a2.6,2.6,0,0,1,2.46,1.72,2.47,2.47,0,0,1,.16.9V35.89"/><path class="cls-3" d="M188.38,35.89V29.66A2.63,2.63,0,0,0,185.74,27h-1.55"/><path class="cls-3" d="M174.28,29A2.61,2.61,0,0,1,176.82,27h2"/><line class="cls-1" x1="7.29" y1="15.51" x2="11.95" y2="15.51"/><line class="cls-1" x1="7.29" y1="9.64" x2="11.95" y2="9.64"/></g></g></svg>