<svg xmlns="http://www.w3.org/2000/svg" viewBox="0 0 206.77 153.77"><defs><style>.cls-1,.cls-2,.cls-4,.cls-5{fill:none;}.cls-1,.cls-2,.cls-3{stroke:#0976d4;}.cls-1,.cls-3{stroke-miterlimit:10;}.cls-1,.cls-2,.cls-5{stroke-width:3px;}.cls-2,.cls-4,.cls-5{stroke-linejoin:round;}.cls-3{fill:#0976d4;}.cls-4,.cls-5{stroke:#63b9fa;stroke-linecap:round;}.cls-4{stroke-width:2px;}</style></defs><title>Asset 27</title><g id="Layer_2" data-name="Layer 2"><g id="Layer_1-2" data-name="Layer 1"><polyline class="cls-1" points="116.52 120.94 114.6 119.66 105.25 133.72 106.99 134.88"/><polyline class="cls-1" points="157.33 120.33 159.13 118.99 169.79 133.39 167.83 134.84"/><path class="cls-2" d="M29,51.25l-13.58-4.7L16,46a11.53,11.53,0,0,0,3.06-5c2-6.54,7.24-22.6,13.67-29.87A25.33,25.33,0,0,1,44.2,3.41,37.5,37.5,0,0,1,62.2,2c14,2.14,36.15,15.59,45.43,24.45,12.59,12,18.72,20,22.57,28.88,6.52,14.94,13.33,47.44,13.33,47.44s8.71,5,10,12.72c.81,5.08-6.26,6.62-6.26,6.62l.81,3.29,8.79-5.74,11.51,15.89-12.53,16.71h-37l-12.87-15.94,11.47-16.66,9.16,6.34.49-3.76s-4.87,0-5.85-4.73c-1.28-6.25,9.33-13.65,9.33-13.65s-4.22-23.15-6.18-29.71C119.82,59,116.5,53.86,113.52,49.5,100.16,30,77.69,17.54,62.83,14.27c-3.82-.85-12.63-2.37-20,4.55-5.48,5.14-11.14,19.84-13.36,26a11.64,11.64,0,0,0-.56,5.58Z"/><ellipse class="cls-3" cx="80.05" cy="106.85" rx="15.46" ry="1.61" transform="translate(-53.43 109.71) rotate(-54.39)"/><ellipse class="cls-3" cx="192.36" cy="104.73" rx="1.62" ry="15.51" transform="translate(-24.63 134.53) rotate(-36.38)"/><path class="cls-1" d="M159.83,119.66s6,9.57,8.52,12.4c1.63,1.85,3.75,3.36,9.8,1.17s24-9.58,24-9.58,3.53-1.17,3-5.71-16-26.88-21.18-28.41c-4.29-1.28-6.22,1.85-6.22,1.85s-14.54,15.54-18,21.68C159,114.5,158.32,117.46,159.83,119.66Z"/><path class="cls-1" d="M113.43,120.83s-6,9.57-8.52,12.39c-1.63,1.85-3.75,3.36-9.8,1.18s-24-9.59-24-9.59-3.53-1.17-3-5.71,16-26.88,21.18-28.41c4.29-1.27,6.22,1.85,6.22,1.85s14.54,15.54,18,21.68C114.24,115.66,114.94,118.63,113.43,120.83Z"/><line class="cls-4" x1="16.42" y1="47.21" x2="13.47" y2="55.76"/><line class="cls-4" x1="19.64" y1="48.31" x2="16.69" y2="56.86"/><line class="cls-4" x1="23.32" y1="49.58" x2="20.38" y2="58.14"/><line class="cls-4" x1="27.12" y1="50.89" x2="24.17" y2="59.44"/><path class="cls-5" d="M101.48,122.46c1-1.17-10.39-13.13-14.4-13.87a2.37,2.37,0,0,0-2.53,3.27C85.54,114.52,100.38,123.76,101.48,122.46Z"/><path class="cls-5" d="M106.67,116.75c1.18-.85-7.94-14.76-11.57-16.29-.92-.38-3.42,0-3,2.43C92.44,105.5,105.38,117.69,106.67,116.75Z"/><path class="cls-5" d="M98.62,130.13c.77-1.23-13.69-11.22-17.63-11.29-1,0-3.18,1.27-1.93,3.39C80.4,124.51,97.77,131.48,98.62,130.13Z"/><path class="cls-5" d="M171.68,120.58c-1-1.21,10.74-13.57,14.89-14.34a2.45,2.45,0,0,1,2.61,3.38C188.16,112.37,172.8,121.93,171.68,120.58Z"/><path class="cls-5" d="M165.34,115.63c-1.21-.88,8.22-15.27,12-16.85.95-.4,3.53,0,3.16,2.51C180.06,104,166.68,116.6,165.34,115.63Z"/><path class="cls-5" d="M174.64,128.36c-.8-1.27,14.16-11.61,18.23-11.67,1,0,3.28,1.3,2,3.5C193.48,122.55,175.52,129.76,174.64,128.36Z"/><rect class="cls-1" x="11.1" y="48.8" width="18.46" height="9.05" rx="2.03" ry="2.03" transform="translate(18.33 -3.71) rotate(18.86)"/><path class="cls-1" d="M11.79,54.85,12,56.17a1,1,0,0,0,.68.77l11.19,3.78a1,1,0,0,0,.95-.16l.94-.73"/><path class="cls-5" d="M12.92,76.45l-1.1-2.26a1.54,1.54,0,0,0-2.77,0l-6.26,13,0,.09a8.94,8.94,0,1,0,16.19,7.31"/><path class="cls-4" d="M12.94,83c-.69,4,.45,7,5,8.06"/><path class="cls-5" d="M26.05,81.1,26,81,19.75,68A1.53,1.53,0,0,0,17,68L10.72,81l-.05.09A8.94,8.94,0,1,0,27.3,85.64,8.82,8.82,0,0,0,26.05,81.1Z"/></g></g></svg>