<svg xmlns="http://www.w3.org/2000/svg" viewBox="0 0 173.42 149.05"><defs><style>.cls-1,.cls-2{fill:none;stroke-linecap:round;stroke-linejoin:round;stroke-width:3px;}.cls-1{stroke:#0976d4;}.cls-2{stroke:#63b9fa;}</style></defs><title>Asset 34</title><g id="Layer_2" data-name="Layer 2"><g id="Layer_1-2" data-name="Layer 1"><line class="cls-1" x1="74.35" y1="126.33" x2="165.46" y2="79.34"/><line class="cls-1" x1="131.38" y1="17.16" x2="127.08" y2="19.01"/><path class="cls-1" d="M130.88,17.37l.5-.21c9.23-3.91,23.16,2.35,33.11,21.76,8.95,17.44,10.35,35,1.22,40.28l-.26.15-.38.2"/><line class="cls-1" x1="53.97" y1="50.48" x2="37.36" y2="57.57"/><path class="cls-1" d="M125.06,46.63V70.54c0,2.84-2.13,9.06-10.23,11-5,1.21-10,.74-17.18-6C84.37,63,54.76,55.31,54.76,55.31V47.55s14.86,12.06,53,5.93C124.1,50.86,125.06,46.63,125.06,46.63Z"/><line class="cls-1" x1="53.97" y1="41.25" x2="53.97" y2="54.85"/><line class="cls-1" x1="124.03" y1="40.41" x2="124.03" y2="48.74"/><ellipse class="cls-2" cx="26.93" cy="107.41" rx="19.08" ry="41.2" transform="translate(-44.52 22.81) rotate(-26.11)"/><path class="cls-2" d="M57,137.27c-1.36,4.25-3.73,7.43-7.08,9.07-8.18,4-20-2.25-30.06-14.67l-.51-.63a85.26,85.26,0,0,1-9.7-15.5c-.32-.64-.62-1.28-.91-1.93-.17-.36-.33-.73-.5-1.09C-1.32,91-.71,70.1,10,64.85a11.88,11.88,0,0,1,5-1.2c11.06-.32,25.76,12.61,35.26,32C58,111.42,60.25,127.3,57,137.27Z"/><path class="cls-2" d="M13.82,69.48c-1,9.78,1.6,22.82,8,35.8,7.84,16,19.22,27.59,29.18,31"/><path class="cls-2" d="M8.83,71.2c-1,10.16,2.2,24.58,9,38,8.35,16.51,20.8,28.27,31.19,31.64"/><path class="cls-2" d="M4.93,73.92c-.15,11.34,1.52,25,8.29,38.42,8.36,16.51,21.15,28.38,31.53,31.76"/><path class="cls-2" d="M25.23,57.38a13.51,13.51,0,0,1,9.46-.67h0a32.06,32.06,0,0,1,12.1,6.66l0,0C53.66,69,60.35,77.65,65.51,88.19c11,22.49,10.87,45.2-.34,50.7"/><line class="cls-2" x1="49.95" y1="146.34" x2="65.17" y2="138.89"/><line class="cls-2" x1="10.01" y1="64.85" x2="25.23" y2="57.38"/><path class="cls-2" d="M127.7,16.39c0,3.06-2.51,5.91-6.82,8.29-7.24,4-19.52,6.59-33.47,6.59S61.19,28.65,54,24.68c-4.32-2.38-6.85-5.23-6.85-8.29C47.12,8.16,65.17,1.5,87.41,1.5S127.7,8.16,127.7,16.39Z"/><path class="cls-2" d="M127.7,33c0,8.21-18,14.88-40.29,14.88-12.82,0-24.26-2.22-31.63-5.68-5.42-2.53-8.66-5.72-8.66-9.2"/><path class="cls-2" d="M54,24.68c7.22,4,19.51,6.59,33.44,6.59s26.23-2.62,33.47-6.59"/><line class="cls-2" x1="47.12" y1="16.39" x2="47.13" y2="34.05"/><line class="cls-2" x1="86.63" y1="31.58" x2="86.63" y2="47.85"/><line class="cls-2" x1="72.77" y1="31.27" x2="72.77" y2="46.35"/><line class="cls-2" x1="59.37" y1="28.71" x2="59.37" y2="43.22"/><line class="cls-2" x1="100.6" y1="30.35" x2="100.59" y2="46.63"/><line class="cls-2" x1="114.45" y1="27.97" x2="114.45" y2="42.19"/><line class="cls-2" x1="127.7" y1="19.17" x2="127.7" y2="34.05"/></g></g></svg>