<svg xmlns="http://www.w3.org/2000/svg" viewBox="0 0 1490.83 1490.83"><defs><style>.cls-1,.cls-2,.cls-3{fill:none;}.cls-1{stroke:#0976d4;}.cls-1,.cls-2{stroke-linecap:round;stroke-linejoin:round;stroke-width:16px;}.cls-2{stroke:#63b9fa;}</style></defs><title>Asset 39</title><g id="Layer_2" data-name="Layer 2"><g id="Layer_1-2" data-name="Layer 1"><line class="cls-1" x1="662.51" y1="1034.01" x2="1147.07" y2="784.09"/><line class="cls-1" x1="965.81" y1="453.33" x2="942.94" y2="463.18"/><path class="cls-1" d="M963.18,454.47l2.63-1.14c49.1-20.78,123.22,12.54,176.14,115.73,47.58,92.8,55.06,186.22,6.48,214.27-.43.27-1,.53-1.4.79l-2,1"/><line class="cls-1" x1="554.09" y1="630.55" x2="465.76" y2="668.29"/><path class="cls-1" d="M932.23,610.09V737.25c0,15.14-11.34,48.17-54.42,58.7-26.32,6.43-53.23,3.89-91.35-32.17C715.81,697,558.3,656.26,558.3,656.26V615s79,64.15,282,31.57C927.1,632.6,932.23,610.09,932.23,610.09Z"/><line class="cls-1" x1="554.09" y1="581.49" x2="554.09" y2="653.79"/><line class="cls-1" x1="926.76" y1="577.01" x2="926.76" y2="621.34"/><ellipse class="cls-2" cx="410.32" cy="933.34" rx="101.47" ry="219.11" transform="translate(-368.86 275.8) rotate(-26.11)"/><path class="cls-2" d="M570.42,1092.15c-7.28,22.65-19.87,39.56-37.68,48.27-43.52,21.33-106.37-12-159.87-78-.93-1.12-1.83-2.2-2.71-3.36a453.55,453.55,0,0,1-51.61-82.45c-1.69-3.42-3.3-6.83-4.86-10.25l-2.63-5.82c-51-114.23-47.75-225.6,9.26-253.54A63.37,63.37,0,0,1,347,700.62c58.8-1.69,137,67,187.54,170.18C575.64,954.69,587.53,1039.12,570.42,1092.15Z"/><path class="cls-2" d="M340.59,731.65C335,783.62,349.09,853,382.93,922c41.69,85.08,102.2,146.74,155.16,164.71"/><path class="cls-2" d="M314,740.77c-5.08,54,11.73,130.71,47.77,201.92C406.2,1030.47,472.43,1093,527.66,1111"/><path class="cls-2" d="M293.31,755.26c-.82,60.29,8.05,133.13,44.09,204.34,44.42,87.77,112.46,150.92,167.68,168.88"/><path class="cls-2" d="M401.27,667.26c14.87-7.34,32-8.2,50.29-3.56h.1c20.58,5.21,42.62,17.46,64.35,35.42a.57.57,0,0,1,.18.15c36.26,29.93,71.85,75.79,99.31,131.84,58.68,119.62,57.8,240.43-1.82,269.66"/><line class="cls-2" x1="532.73" y1="1140.43" x2="613.68" y2="1100.77"/><line class="cls-2" x1="320.3" y1="706.97" x2="401.25" y2="667.24"/><path class="cls-2" d="M946.26,449.23c0,16.31-13.33,31.47-36.3,44.1-38.49,21.13-103.8,35.07-178,35.07s-139.49-13.94-177.89-35.07c-23-12.63-36.38-27.79-36.38-44.1,0-43.75,96-79.17,214.27-79.17S946.26,405.48,946.26,449.23Z"/><path class="cls-2" d="M946.26,537.43c0,43.66-95.92,79.17-214.28,79.17-68.21,0-129.05-11.84-168.24-30.25-28.85-13.41-46-30.42-46-48.92"/><path class="cls-2" d="M554.09,493.33C592.49,514.46,657.9,528.4,732,528.4s139.49-13.94,178-35.07"/><line class="cls-2" x1="517.71" y1="449.23" x2="517.74" y2="543.21"/><line class="cls-2" x1="727.83" y1="530.02" x2="727.8" y2="616.6"/><line class="cls-2" x1="654.13" y1="528.4" x2="654.11" y2="608.61"/><line class="cls-2" x1="582.85" y1="514.8" x2="582.83" y2="591.97"/><line class="cls-2" x1="802.12" y1="523.51" x2="802.09" y2="610.09"/><line class="cls-2" x1="875.81" y1="510.86" x2="875.79" y2="586.49"/><line class="cls-2" x1="946.28" y1="464.04" x2="946.28" y2="543.21"/><rect class="cls-3" width="1490.83" height="1490.83"/></g></g></svg>