<svg xmlns="http://www.w3.org/2000/svg" viewBox="0 0 159.49 161.07"><defs><style>.cls-1{fill:#63b9fa;}.cls-2,.cls-3{fill:none;stroke:#0976d4;stroke-width:3px;}.cls-2{stroke-linecap:round;stroke-linejoin:round;}.cls-3{stroke-miterlimit:10;}</style></defs><title>Asset 19</title><g id="Layer_2" data-name="Layer 2"><g id="Layer_1-2" data-name="Layer 1"><path class="cls-1" d="M12.51,39.47a5.07,5.07,0,0,1,.55,0,1.72,1.72,0,0,0,.32,0l35,.26V72L11.25,82.3l-.3,0a2.83,2.83,0,0,1-2.11-1,8.29,8.29,0,0,1-1.69-6.19,1.09,1.09,0,0,0,0-.18l.64-30c.28-3.28,2.13-5.39,4.71-5.39m0-3c-3.88,0-7.29,3-7.71,8.23L4.16,74.85C3.69,80.65,6.77,85.32,11,85.32a5.8,5.8,0,0,0,.91-.08L51.34,74.32V36.8l-37.93-.28c-.3,0-.6-.05-.9-.05Z"/><path class="cls-1" d="M145.48,15.25h0c2.57,0,4.4,2.08,4.71,5.32-.06,2.08-.68,22-.92,28.57-.26,6.92-1.48,8.21-5,8.56h-.06L108.61,62V27.46l36.6-12.2h.27m-36.87,10h0m36.87-13a6.77,6.77,0,0,0-.89.06l-39,13V65.43l39-4.74c6.26-.63,7.45-4.79,7.7-11.44.26-7,.93-28.77.93-28.77-.42-5.23-3.83-8.23-7.72-8.23Z"/><ellipse class="cls-2" cx="16.97" cy="125.55" rx="11.26" ry="25.5" transform="translate(-13.68 2.62) rotate(-6.3)"/><path class="cls-2" d="M17.51,100.92c-4.28,3.62-6.56,13.68-5.3,25.16s5.69,20.76,10.65,23.39"/><path class="cls-2" d="M30.58,88.75c3.17-4.67,7.28-7.64,12-8.17,12.53-1.38,24.62,15,27,36.65s-5.83,40.28-18.36,41.66c-4.41.49-8.76-1.23-12.65-4.6"/><ellipse class="cls-2" cx="16.97" cy="125.55" rx="15.09" ry="34.18" transform="translate(-13.68 2.62) rotate(-6.3)"/><path class="cls-2" d="M13.22,91.58,41.29,87l.28-.06c8.25-1.22,16.93,12.15,19.57,30S59.23,150.15,51,151.37"/><line class="cls-2" x1="23.96" y1="158.32" x2="53.2" y2="150.78"/><path class="cls-2" d="M13.22,91.58,41.29,87l.28-.06c8.25-1.22,16.93,12.15,19.57,30S59.23,150.15,51,151.37"/><line class="cls-2" x1="23.96" y1="158.32" x2="53.2" y2="150.78"/><path class="cls-2" d="M51.23,158.89l3.61-.91L107,144.74s.87-.25,1.14-.38a17.09,17.09,0,0,0,6.68-6.19c4.72-7.19,6.71-18.68,5.4-30.51C118.49,92,111.13,79.44,102,75.26"/><path class="cls-2" d="M55.76,78.85c-7.33,1-12.71,1.67-13.15,1.73h0"/><path class="cls-2" d="M114.82,138.17h4.51a21.59,21.59,0,0,0,5.12-.61c6.46-1.58,23.15-5.65,23.42-5.78,7.51-3.53,11.85-18.8,9.46-31.93-3.16-17.38-13-26.66-21.27-25.43l-.28.06L107.7,79.05"/><path class="cls-2" d="M55.76,80.35c0,3.6,10.35,6.52,23.12,6.52S102,84,102,80.35"/><polyline class="cls-2" points="55.76 80.35 55.76 78.85 55.76 76.85"/><polyline class="cls-2" points="102.01 66 102.01 75.26 102.01 80.35"/><path class="cls-2" d="M50,36.81V37c.05,1.13.93,2.21,2.48,3.18C56.94,43,67,45,78.57,45c10.87,0,20.32-1.71,25.14-4.23,2.17-1.13,3.41-2.43,3.41-3.82,0-.06,0-.12,0-.19"/><line class="cls-2" x1="50.01" y1="61.4" x2="50.01" y2="36.9"/><line class="cls-2" x1="107.12" y1="61.4" x2="107.12" y2="36.9"/><path class="cls-2" d="M107.12,61.4c0,1.71-1.89,3.3-5.11,4.6-5.17,2.09-13.74,3.45-23.44,3.45a93.48,93.48,0,0,1-10.65-.58v10h0C56.39,78.85,50,74.69,50,71.44V53.53"/><path class="cls-2" d="M50,38.14V30.6C50,22.54,64.06,9.39,68.51,9.39H88c5.87,0,19.15,13.15,19.15,21.21v7.54"/><path class="cls-3" d="M70,9.37V7.54a6,6,0,0,1,6-6h6.31a6,6,0,0,1,6,6V9.37"/></g></g></svg>