<svg xmlns="http://www.w3.org/2000/svg" viewBox="0 0 230.6 165.25"><defs><style>.cls-1,.cls-2{fill:none;stroke-linejoin:round;stroke-width:3px;}.cls-1{stroke:#71b9f4;}.cls-2{stroke:#0976d4;}</style></defs><title>Asset 6</title><g id="Layer_2" data-name="Layer 2"><g id="Layer_1-2" data-name="Layer 1"><line class="cls-1" x1="9.75" y1="73.4" x2="126.35" y2="7.15"/><polyline class="cls-1" points="134.33 11.84 93.93 34.79 60.74 53.65 17.86 78.01"/><polyline class="cls-1" points="143.38 17.15 103.03 40.07 69.73 58.99 26.73 83.43"/><polyline class="cls-1" points="151.8 22.32 111.69 45.1 78.28 64.08 35.31 88.5"/><polyline class="cls-1" points="159.91 26.99 119.77 49.8 86.26 68.84 43.31 93.24"/><polyline class="cls-1" points="51.33 97.96 94.24 73.59 94.25 73.59 127.84 54.49 127.85 54.49 168.06 31.65"/><polyline class="cls-1" points="176.1 36.37 135.93 59.19 102.22 78.34 59.5 102.61"/><line class="cls-1" x1="144.36" y1="64.09" x2="135.93" y2="59.19"/><line class="cls-1" x1="111.69" y1="45.11" x2="103.03" y2="40.08"/><polyline class="cls-1" points="119.77 49.8 127.84 54.49 127.85 54.49"/><line class="cls-1" x1="85.91" y1="30.13" x2="76.71" y2="24.78"/><line class="cls-1" x1="69.73" y1="59" x2="60.74" y2="53.64"/><line class="cls-1" x1="86.26" y1="68.84" x2="78.28" y2="64.09"/><polyline class="cls-1" points="102.22 78.34 94.25 73.59 94.24 73.59"/><line class="cls-1" x1="52.82" y1="48.93" x2="44.1" y2="43.74"/><path class="cls-1" d="M107.36,90.83l26.05,15.49c3.25,1.82,4.68,5.19,1.93,7.56a6.94,6.94,0,0,1-5,1.62,8.63,8.63,0,0,1-4.22-1.34L97.1,97"/><path class="cls-1" d="M130.5,76.27,156,91.19c3.25,1.83,4.67,5.19,1.93,7.56a6.94,6.94,0,0,1-5,1.62A8.57,8.57,0,0,1,148.7,99L120.24,82.4"/><path class="cls-1" d="M154.92,62.74l25.53,14.93c3.25,1.82,4.67,5.18,1.93,7.55a6.9,6.9,0,0,1-5,1.62,8.56,8.56,0,0,1-4.21-1.34L144.66,68.87"/><path class="cls-1" d="M81.88,105.68l25.53,14.93c3.25,1.82,4.68,5.18,1.93,7.55a6.89,6.89,0,0,1-5,1.62,8.57,8.57,0,0,1-4.22-1.34L71.62,111.81"/><path class="cls-1" d="M176.82,48.85,203.21,64.4c3.25,1.82,4.68,5.19,1.93,7.56a6.94,6.94,0,0,1-5,1.62,8.63,8.63,0,0,1-4.22-1.34L166.56,55"/><polyline class="cls-1" points="1.5 89.6 113.88 153.2 229.1 86.46"/><path class="cls-2" d="M4.84,75.36,2.33,76.84A1.71,1.71,0,0,0,1.5,78.3V98.72l112.38,65L228.82,97.18a.56.56,0,0,0,.28-.5V76.23a.57.57,0,0,0-.27-.49L181.24,47.5"/><polygon class="cls-2" points="1.5 68.53 69.1 108.46 183.75 40.86 116.73 1.5 1.5 68.53"/><line class="cls-2" x1="155.47" y1="118.92" x2="135.13" y2="130.81"/><line class="cls-2" x1="203.5" y1="90.86" x2="183.83" y2="102.35"/><line class="cls-2" x1="229.1" y1="75.91" x2="207.25" y2="88.67"/><line class="cls-2" x1="179.97" y1="104.61" x2="159.44" y2="116.6"/><path class="cls-2" d="M1.5,77.33l112.09,65.72a.58.58,0,0,0,.57,0L131.37,133"/><path class="cls-2" d="M183.75,40.86v3.89a1.15,1.15,0,0,1-.56,1l-.9.53L69.1,113,3.68,74.36l-1.9-1.12a.58.58,0,0,1-.28-.49V68.53"/><polygon class="cls-2" points="87.81 102.86 92.25 100.24 135.13 125.73 135.13 133.99 131.43 136.26 131.28 127.86 87.81 102.86"/><polygon class="cls-2" points="111.9 88.06 116.34 85.44 159.21 110.93 159.21 119.18 155.51 121.46 155.37 113.06 111.9 88.06"/><polygon class="cls-2" points="136.4 73.91 140.84 71.29 183.71 96.78 183.71 105.04 180.01 107.31 179.87 98.92 136.4 73.91"/><polygon class="cls-2" points="159.94 60.25 164.37 57.63 207.25 83.12 207.25 91.37 203.55 93.65 203.41 85.25 159.94 60.25"/></g></g></svg>