<?xml version="1.0" encoding="utf-8"?>
<!-- Generator: Adobe Illustrator 16.0.0, SVG Export Plug-In . SVG Version: 6.00 Build 0)  -->
<!DOCTYPE svg PUBLIC "-//W3C//DTD SVG 1.1//EN" "http://www.w3.org/Graphics/SVG/1.1/DTD/svg11.dtd">
<svg version="1.1" id="Layer_1" xmlns="http://www.w3.org/2000/svg" xmlns:xlink="http://www.w3.org/1999/xlink" x="0px" y="0px"
	 width="128px" height="128px" viewBox="0 0 128 128" enable-background="new 0 0 128 128" xml:space="preserve">
<g id="User">
	<g>
		<path d="M118.95,92.012c-3.778-3.777-10.1-7.074-20.066-12.059c-5.024-2.512-13.386-6.691-15.413-8.605
			c8.489-10.434,13.416-22.219,13.416-32.535c0-7,0-15.711-3.918-23.48C89.437,8.336,81.544,0,64.002,0
			C46.456,0,38.563,8.336,35.035,15.332c-3.923,7.77-3.923,16.48-3.923,23.48c0,10.32,4.923,22.102,13.417,32.535
			c-2.032,1.918-10.393,6.098-15.417,8.605c-9.963,4.984-16.285,8.281-20.066,12.059c-8.369,8.375-9.002,22.426-9.045,25.16
			c-0.043,2.852,1.059,5.609,3.067,7.648c2,2.031,4.743,3.18,7.595,3.18h106.669c2.86,0,5.596-1.148,7.6-3.18
			c2.004-2.039,3.11-4.797,3.067-7.652C127.956,114.438,127.318,100.387,118.95,92.012z M119.235,119.203
			c-0.508,0.512-1.184,0.797-1.903,0.797H10.663c-0.707,0-1.398-0.289-1.895-0.797c-0.496-0.504-0.777-1.199-0.77-1.91
			c0.023-1.34,0.391-13.305,6.705-19.621c2.915-2.914,9.017-6.074,17.988-10.563c9.576-4.785,14.886-7.637,17.332-9.949l5.399-5.105
			l-4.688-5.758c-7.384-9.07-11.623-19.09-11.623-27.484c0-6.473,0-13.805,3.063-19.875C45.842,11.68,53.179,8,64.002,8
			c10.814,0,18.159,3.68,21.824,10.934c3.063,6.074,3.063,13.406,3.063,19.879c0,8.391-4.235,18.41-11.628,27.484l-4.688,5.762
			l5.4,5.102c2.445,2.309,7.751,5.16,17.331,9.949c8.971,4.484,15.073,7.645,17.988,10.563c5.138,5.137,6.634,14.75,6.704,19.621
			C120.009,118.004,119.731,118.699,119.235,119.203z"/>
	</g>
</g>
</svg>
