<?xml version="1.0" encoding="iso-8859-1"?>
<!-- Generator: Adobe Illustrator 19.0.0, SVG Export Plug-In . SVG Version: 6.00 Build 0)  -->
<svg version="1.1" id="Capa_1" xmlns="http://www.w3.org/2000/svg" xmlns:xlink="http://www.w3.org/1999/xlink" x="0px" y="0px"
	 viewBox="0 0 508 508" style="enable-background:new 0 0 508 508;" xml:space="preserve">
<g>
	<g>
		<path fill="#b1ff00" d="M122.9,163.9v73.7h73.7v-73.7H122.9z M180.3,221.3h-41v-41h41V221.3z"/>
	</g>
</g>
<g>
	<g>
		<path fill="#b1ff00" d="M213,163.9v73.7h73.7v-73.7H213z M270.4,221.3h-41v-41h41V221.3z"/>
	</g>
</g>
<g>
	<g>
		<path fill="#b1ff00" d="M303.2,163.9v73.7h73.7v-73.7H303.2z M360.5,221.2h-41v-41h41V221.2z"/>
	</g>
</g>
<g>
	<g>
		<path fill="#b1ff00" d="M32.8,254v73.7h73.7V254H32.8z M90.2,311.4h-41v-41h41V311.4z"/>
	</g>
</g>
<g>
	<g>
		<path fill="#b1ff00" d="M122.9,254v73.7h73.7V254H122.9z M180.3,311.4h-41v-41h41V311.4z"/>
	</g>
</g>
<g>
	<g>
		<path fill="#b1ff00" d="M213,254v73.7h73.7V254H213z M270.4,311.4h-41v-41h41V311.4z"/>
	</g>
</g>
<g>
	<g>
		<rect fill="#b1ff00" x="163.9" y="81.9" width="16.4" height="16.4"/>
	</g>
</g>
<g>
	<g>
		<rect fill="#b1ff00" x="196.6" y="81.9" width="16.4" height="16.4"/>
	</g>
</g>
<g>
	<g>
		<rect fill="#b1ff00" x="229.4" y="81.9" width="16.4" height="16.4"/>
	</g>
</g>
<g>
	<g>
		<path fill="#b1ff00" d="M409.7,279.9V41h-65.5V28.7c0-15.8-12.9-28.7-28.7-28.7c-15.8,0-28.7,12.9-28.7,28.7V41H122.9V28.7
			C122.9,12.9,110,0,94.2,0S65.5,12.9,65.5,28.7V41H0v327.7h281.3c-1.7,7.9-2.7,16.1-2.7,24.6c0,63.3,51.5,114.7,114.7,114.7
			S508,456.5,508,393.3C508,335.6,465.2,287.9,409.7,279.9z M303.2,41V28.7c0-6.8,5.5-12.3,12.3-12.3s12.3,5.5,12.3,12.3V41v41
			h-24.6V41z M81.9,41V28.7c0-6.8,5.5-12.3,12.3-12.3s12.3,5.5,12.3,12.3V41v41H81.9V41z M16.4,57.4h49.1v41h57.4v-41h163.9v41h57.4
			v-41h49.2V123h-377V57.4z M16.4,352.3v-213h376.9v139.3c-48.8,0-90.5,30.7-107,73.7H16.4z M393.3,491.6
			c-54.2,0-98.3-44.1-98.3-98.3s44.1-98.3,98.3-98.3c54.2,0,98.3,44.1,98.3,98.3C491.6,447.5,447.5,491.6,393.3,491.6z"/>
	</g>
</g>
<g>
	<g>
		<polygon fill="#b1ff00" points="401.5,393.3 401.5,327.7 385.1,327.7 385.1,409.7 442.5,409.7 442.5,393.3 		"/>
	</g>
</g>
<g>
</g>
<g>
</g>
<g>
</g>
<g>
</g>
<g>
</g>
<g>
</g>
<g>
</g>
<g>
</g>
<g>
</g>
<g>
</g>
<g>
</g>
<g>
</g>
<g>
</g>
<g>
</g>
<g>
</g>
</svg>
