<?xml version="1.0" encoding="iso-8859-1"?>
<!-- Generator: Adobe Illustrator 19.0.0, SVG Export Plug-In . SVG Version: 6.00 Build 0)  -->
<svg version="1.1" id="Capa_1" xmlns="http://www.w3.org/2000/svg" xmlns:xlink="http://www.w3.org/1999/xlink" x="0px" y="0px"
	 viewBox="0 0 368.697 368.697" style="enable-background:new 0 0 368.697 368.697;" xml:space="preserve">
<g>
	<g>
		<g>
			<path fill="#167dd6" d="M246.885,39.439v-0.12c-49.52-28.764-112.981-11.968-141.79,37.526c-28.828,49.526-12.048,113.044,37.478,141.872
				c49.526,28.828,113.044,12.048,141.872-37.478C313.209,131.707,296.397,68.237,246.885,39.439z M274.125,174.799l-0.4,0.68
				c-25.45,43.365-81.098,58.109-124.68,33.034c-43.85-25.228-58.945-81.227-33.717-125.077
				c25.229-43.85,81.227-58.945,125.077-33.717l0.68,0.4v-0.04C284.475,75.528,299.225,131.206,274.125,174.799z"/>
			<path fill="#167dd6" d="M281.244,33.083c-52.974-47.64-134.538-43.316-182.178,9.658c-47.64,52.974-43.316,134.538,9.658,182.178l-60.4,104
				c-7.287,12.488-3.21,28.513,9.16,36l0.84,0.48c12.414,6.849,28.019,2.705,35.4-9.4c0.18-0.254,0.34-0.522,0.48-0.8l60-103.56
				l0.16-0.2c48.658,16.143,102.257,1.941,136.538-36.178C338.542,162.287,334.218,80.723,281.244,33.083z M83.165,349.479h-0.04
				c-3.993,6.756-12.681,9.04-19.48,5.12c-6.756-3.993-9.04-12.681-5.12-19.48l59.36-102.4c3.08,2.36,8.84,6.16,12,8
				c3.16,1.84,11.24,5.84,12.72,6.48L83.165,349.479z M224.845,242.159c-23.452,6.155-48.232,4.926-70.96-3.52
				c-6.15-2.302-12.092-5.125-17.76-8.44c-5.726-3.214-11.125-6.978-16.12-11.24c-18.588-15.499-31.906-36.387-38.116-59.779
				C65.327,96.79,102.478,32.786,164.868,16.224c62.39-16.562,126.394,20.589,142.956,82.979
				C324.386,161.593,287.235,225.597,224.845,242.159z"/>
		</g>
	</g>
</g>
<g>
</g>
<g>
</g>
<g>
</g>
<g>
</g>
<g>
</g>
<g>
</g>
<g>
</g>
<g>
</g>
<g>
</g>
<g>
</g>
<g>
</g>
<g>
</g>
<g>
</g>
<g>
</g>
<g>
</g>
</svg>
