<?xml version="1.0" encoding="iso-8859-1"?>
<!-- Generator: Adobe Illustrator 18.1.1, SVG Export Plug-In . SVG Version: 6.00 Build 0)  -->
<svg version="1.1" id="Capa_1" xmlns="http://www.w3.org/2000/svg" xmlns:xlink="http://www.w3.org/1999/xlink" x="0px" y="0px"
	 viewBox="0 0 611.932 611.932" style="enable-background:new 0 0 611.932 611.932;" xml:space="preserve">
<g>
	<path d="M559.017,210.569H422.774V100.102c0-28.708-23.594-52.301-52.301-52.301H52.301C23.594,47.801,0,71.394,0,100.102v191.476
		c0,28.708,23.594,52.301,52.301,52.301h30.958l39.004,52.301c2.182,3.682,6.614,5.182,11.047,5.182s8.115-2.182,11.047-5.182
		l39.004-52.301h5.864v110.467c0,28.708,23.594,52.301,52.301,52.301H428.57l39.004,52.301c2.182,3.682,6.614,5.182,11.047,5.182
		s8.115-2.182,11.047-5.182l39.004-52.301h30.958c28.708,0,52.301-23.594,52.301-52.301V262.87
		C612,234.094,588.475,210.569,559.017,210.569z M176.065,316.603c-4.432,0-8.115,2.182-11.047,5.182l-32.39,42.687l-32.39-42.687
		c-2.182-3.682-6.614-5.182-11.047-5.182H50.869c-13.979,0-25.026-11.047-25.026-25.026V100.102
		c0-13.979,11.047-25.026,25.026-25.026h318.172c13.979,0,25.025,11.047,25.025,25.026v124.446v67.03
		c0,13.979-11.047,25.026-25.025,25.026H202.523L176.065,316.603L176.065,316.603z M584.792,454.346
		c0,13.979-11.047,25.026-25.025,25.026h-38.322c-4.432,0-8.115,2.182-11.047,5.182l-32.39,42.687l-32.39-42.687
		c-2.182-3.682-6.614-5.182-11.047-5.182H241.595c-13.979,0-25.026-11.047-25.026-25.026V343.879h153.904
		c10.297,0,19.911-2.932,27.958-8.115h103.102c7.364,0,13.229-5.864,13.229-13.229c0-7.365-5.864-13.229-13.229-13.229h-81.009
		c2.182-5.182,2.932-11.047,2.932-17.661v-53.051h136.242c13.979,0,25.026,11.047,25.026,25.026v190.726H584.792z M514.08,398.363
		c0,7.364-5.864,13.229-13.229,13.229h-200.34c-7.364,0-13.229-5.864-13.229-13.229s5.864-13.229,13.229-13.229h200.34
		C508.148,385.066,514.08,390.998,514.08,398.363z M310.057,248.823h-199.59c-7.364,0-13.229-5.864-13.229-13.229
		s5.864-13.229,13.229-13.229h199.59c7.364,0,13.229,5.864,13.229,13.229C324.036,242.959,317.422,248.823,310.057,248.823z
		 M97.238,159.018c0-7.364,5.864-13.229,13.229-13.229H230.48c7.364,0,13.229,5.864,13.229,13.229
		c0,7.364-5.864,13.229-13.229,13.229H110.467C103.102,172.246,97.238,166.382,97.238,159.018z"/>
</g>
<g>
</g>
<g>
</g>
<g>
</g>
<g>
</g>
<g>
</g>
<g>
</g>
<g>
</g>
<g>
</g>
<g>
</g>
<g>
</g>
<g>
</g>
<g>
</g>
<g>
</g>
<g>
</g>
<g>
</g>
</svg>
