<svg xmlns="http://www.w3.org/2000/svg" xmlns:xlink="http://www.w3.org/1999/xlink" viewBox="0 0 158.79 57.57"><defs><style>.cls-1{fill:url(#linear-gradient);}.cls-2{fill:url(#linear-gradient-2);}.cls-3{fill:url(#linear-gradient-3);}.cls-4{fill:#0976d4;}.cls-5{fill:#63b9fa;}</style><linearGradient id="linear-gradient" x1="19.62" y1="-1.1" x2="47.8" y2="47.72" gradientUnits="userSpaceOnUse"><stop offset="0.05" stop-color="#fff"/><stop offset="0.62" stop-color="#63b9fa"/></linearGradient><linearGradient id="linear-gradient-2" x1="11.35" y1="-4.21" x2="43.9" y2="52.18" gradientUnits="userSpaceOnUse"><stop offset="0.09" stop-color="#fff"/><stop offset="0.43" stop-color="#63b9fa"/></linearGradient><linearGradient id="linear-gradient-3" x1="17.66" y1="-10" x2="51.28" y2="48.23" gradientUnits="userSpaceOnUse"><stop offset="0.03" stop-color="#fff"/><stop offset="0.4" stop-color="#63b9fa"/><stop offset="1" stop-color="#0976d4"/></linearGradient></defs><title>Asset 8</title><g id="Layer_2" data-name="Layer 2"><g id="Layer_1-2" data-name="Layer 1"><path class="cls-1" d="M48.49,41a84.47,84.47,0,0,1-6.22,8.65,22.9,22.9,0,0,1-2.35,2.66l.13-.85c-2.56-5.07-1.89-6.93-2.47-11.59s-1.61-10.51-6-19.74C28.85,14.21,12.86,2.8,12.86,2.8h0c.46,0,15.51,1.22,24.06,9.87,7.42,7.52,8.7,16.26,10.19,22.73a22.2,22.2,0,0,0,2,6C49.24,41.59,48.14,40.39,48.49,41Z"/><path class="cls-2" d="M50,40.78,49.3,42c-2.25,3.59-5.17,6.29-6.88,8.37a28.78,28.78,0,0,1-2.51,2.54c-1.86,1.68-3.41,3.89-5.19,4.55a30.53,30.53,0,0,1-4-6.16C25.55,41,30,36.37,21.43,18.09,18.74,12.39,3.65,1.51,2.71.83l0,0h0a50.31,50.31,0,0,1,10,2h0c4.67,1.42,10.07,3.83,14.06,7.87,10.31,10.44,8.76,23.26,12.4,29a6.06,6.06,0,0,0,3.39,2.72c1.93.62,4.11.16,6.42-1C49.31,41.2,49.67,41,50,40.78Z"/><path class="cls-3" d="M61,19.65c.38-.54,1.3,0,1,.52a21.78,21.78,0,0,1-1,2.08c-1,1.54-1.82,3.19-2.71,4.79q-2.84,5.06-5.78,10a102.27,102.27,0,0,1-13.34,17.7C37.56,56.47,34,58.7,31,56.92c-2.66-1.57-4.53-4.54-6-7.17-3.66-6.63-5.31-14-7.85-21.11-2.46-6.85-5.11-13.77-9.74-19.48C6.29,7.75,5.1,6.37,3.89,5,3.25,4.29,2.6,3.58,2,2.87A16.72,16.72,0,0,1,.28,1.07C-.69-.37,1.1-.07,1.92.33,3.47,1.09,5,1.8,6.57,2.58,13,5.83,19.07,10,23.46,15.75a33.48,33.48,0,0,1,5,9.16c1,2.76,1.57,5.63,2.5,8.4.71,2.14,1.74,4.41,3.72,5.64,2.43,1.51,5.49.91,7.89-.31a32.11,32.11,0,0,0,7.65-6,89.21,89.21,0,0,0,7.31-8.34C58.67,22.75,59.84,21.22,61,19.65Z"/><path class="cls-4" d="M92.16,18.38,80.57,43.31h-3L66,18.38h6.58l6.54,14.17,6.57-14.17Z"/><path class="cls-4" d="M95.14,18.41h6.54v24.9H95.14Z"/><path class="cls-4" d="M121.31,43.31l-3.86-6.61h-4v6.61h-6.54V18.41h10.49a9.14,9.14,0,0,1,6.21,15.87l5.28,9ZM113.4,31.06h4a3.57,3.57,0,1,0,0-7.14h-4Z"/><path class="cls-4" d="M131.23,43.31l11.62-24.9h3l11.73,24.9H151l-1.52-3.25h-10.2l-1.49,3.25Zm10.59-8.76h5.08l-2.52-5.48Z"/><path class="cls-5" d="M145.48,50a4.45,4.45,0,0,1-.77,2.72,2.46,2.46,0,0,1-2.09,1,2.7,2.7,0,0,1-2.12-.85v3.56h-1.27V46.18h1.16l.06.82a2.6,2.6,0,0,1,2.15-1,2.52,2.52,0,0,1,2.11,1,4.52,4.52,0,0,1,.77,2.8Zm-1.26-.14a3.25,3.25,0,0,0-.54-2,1.71,1.71,0,0,0-1.46-.72,1.86,1.86,0,0,0-1.72,1v3.53a1.86,1.86,0,0,0,1.74,1,1.71,1.71,0,0,0,1.44-.72A3.53,3.53,0,0,0,144.22,49.82Z"/><path class="cls-5" d="M151,47.32a3,3,0,0,0-.62,0,1.67,1.67,0,0,0-1.69,1.06v5.25h-1.26v-7.4h1.23l0,.86a2,2,0,0,1,1.76-1,1.33,1.33,0,0,1,.56.09Z"/><path class="cls-5" d="M152.05,49.81a4.43,4.43,0,0,1,.43-2,3.14,3.14,0,0,1,2.93-1.81,3.09,3.09,0,0,1,2.44,1,4,4,0,0,1,.94,2.78V50a4.35,4.35,0,0,1-.42,1.94,3.14,3.14,0,0,1-1.18,1.34,3.25,3.25,0,0,1-1.77.47,3.08,3.08,0,0,1-2.43-1,4,4,0,0,1-.94-2.77Zm1.28.15a3.19,3.19,0,0,0,.57,2,1.94,1.94,0,0,0,3.06,0,3.54,3.54,0,0,0,.56-2.12,3.18,3.18,0,0,0-.57-2,1.86,1.86,0,0,0-1.54-.76,1.81,1.81,0,0,0-1.51.75A3.46,3.46,0,0,0,153.33,50Z"/></g></g></svg>