<svg xmlns="http://www.w3.org/2000/svg" xmlns:xlink="http://www.w3.org/1999/xlink" viewBox="0 0 1000 171.7"><defs><style>.cls-1{fill:url(#linear-gradient);}.cls-2{fill:url(#linear-gradient-2);}.cls-3{fill:url(#linear-gradient-3);}.cls-4{fill:url(#linear-gradient-4);}.cls-5{fill:url(#linear-gradient-5);}.cls-6{fill:url(#linear-gradient-6);}.cls-7{fill:#fff;}</style><linearGradient id="linear-gradient" x1="923.05" y1="80" x2="923.05" y2="5.7" gradientTransform="matrix(1, 0, 0, -1, 0, 174)" gradientUnits="userSpaceOnUse"><stop offset="0.08" stop-color="#5e77ff"/><stop offset="1" stop-color="#650091"/></linearGradient><linearGradient id="linear-gradient-2" x1="923.05" y1="170.4" x2="923.05" y2="96.11" gradientTransform="matrix(1, 0, 0, -1, 0, 174)" gradientUnits="userSpaceOnUse"><stop offset="0" stop-color="#3cffa2"/><stop offset="0.83" stop-color="#5e77ff"/></linearGradient><linearGradient id="linear-gradient-3" x1="865.65" y1="170.5" x2="865.65" y2="5.7" gradientTransform="matrix(1, 0, 0, -1, 0, 174)" gradientUnits="userSpaceOnUse"><stop offset="0" stop-color="#3cffa2"/><stop offset="0.53" stop-color="#5e77ff"/><stop offset="1" stop-color="#650091"/></linearGradient><linearGradient id="linear-gradient-4" x1="980.45" y1="170.4" x2="980.45" y2="5.6" xlink:href="#linear-gradient-3"/><linearGradient id="linear-gradient-5" x1="894.35" y1="153.6" x2="894.35" y2="80" gradientTransform="matrix(1, 0, 0, -1, 0, 174)" gradientUnits="userSpaceOnUse"><stop offset="0" stop-color="#3cffa2"/><stop offset="0.67" stop-color="#5e77ff"/></linearGradient><linearGradient id="linear-gradient-6" x1="951.75" y1="96.2" x2="951.75" y2="22.6" gradientTransform="matrix(1, 0, 0, -1, 0, 174)" gradientUnits="userSpaceOnUse"><stop offset="0.08" stop-color="#5e77ff"/><stop offset="0.54" stop-color="#5e72fa"/><stop offset="1" stop-color="#650091"/></linearGradient></defs><title>Asset 1</title><g id="Layer_2" data-name="Layer 2"><g id="Layer_1-2" data-name="Layer 1"><polygon class="cls-1" points="903.5 168.3 942.6 168.3 942.6 133.1 903.5 94 903.5 168.3"/><polygon class="cls-2" points="903.5 3.6 942.6 3.6 942.6 77.8 903.5 38.8 903.5 3.6"/><polygon class="cls-3" points="846.1 168.3 885.2 168.3 885.2 75.7 851 41.5 878.7 13.9 885.2 20.4 885.2 3.5 846.1 3.5 846.1 168.3"/><polygon class="cls-4" points="1000 3.6 1000 168.4 960.9 168.4 960.9 151.4 967.5 158.1 995.2 130.4 960.9 96.1 960.9 3.6 1000 3.6"/><polygon class="cls-5" points="885.2 20.4 903.5 38.8 903.5 94 885.2 75.7 885.2 20.4"/><polygon class="cls-6" points="960.9 96.2 960.9 151.4 942.6 133.1 942.6 77.8 960.9 96.2"/><path class="cls-7" d="M61.7,53V66.4C37.1,64.5,19.2,79.8,13.4,99.2V168H0V55.4H12v26C20.2,64.8,39.4,51.8,61.7,53Z"/><path class="cls-7" d="M124.1,52.8c42.7,0,57.2,35.4,51.4,65H81.9c1.6,28.6,25.3,40.6,50.4,40.6,13.6,0,27.2-3.5,36.8-9.1v13.1c-10.1,5.4-24.4,8.2-38.7,8.2-32.8,0-61.9-18.3-61.9-58.9C68.5,73,96.9,52.8,124.1,52.8ZM125,65c-22,0-42,14.3-43.1,41h81.9C165.6,90.1,156.7,65,125,65Z"/><path class="cls-7" d="M211.6,84c-4.9,0-9.4-3.1-9.4-9.2,0-5.9,4.5-9.2,9.4-9.2,5.2,0,9.4,3.3,9.4,9.2C221,80.9,216.8,84,211.6,84Zm0,85.9c-4.9,0-9.4-3.3-9.4-9.2s4.5-9.1,9.4-9.1c5.2,0,9.4,3.3,9.4,9.1S216.8,169.9,211.6,169.9Z"/><path class="cls-7" d="M401.8,3.8V168h-54V109.6H303.2V168H249V3.8h54.2V62.2h44.6V3.8Z"/><path class="cls-7" d="M480.9,3.8V168H426.7V3.8Z"/><path class="cls-7" d="M589.7,0c19.2,0,38,3.8,53,9.9V58.2c-11.3-7-28.4-11-43.2-11-23.9,0-45,10.8-45,38.7,0,31,23,37.5,35,37.5a41.31,41.31,0,0,0,6.6-.5V76.2l43.9,3v84.5c-11,4-30.3,8-49,8-47.4,0-92-27.4-92-85.9C498.9,25.6,543.7,0,589.7,0Z"/><path class="cls-7" d="M821.3,3.8V168h-54V109.6H722.7V168H668.5V3.8h54.2V62.2h44.6V3.8Z"/></g></g></svg>