<svg xmlns="http://www.w3.org/2000/svg" viewBox="0 0 147.56 145.61"><defs><style>.cls-1{fill:#dfeffb;}.cls-2{fill:#fff;}.cls-2,.cls-3,.cls-4{stroke:#0976d4;stroke-width:3px;}.cls-3{fill:#63b9fa;}.cls-3,.cls-4{stroke-linecap:round;stroke-linejoin:round;}.cls-4{fill:none;}</style></defs><title>Asset 3</title><g id="Layer_2" data-name="Layer 2"><g id="Layer_1-2" data-name="Layer 1"><circle class="cls-1" cx="76.22" cy="71.34" r="71.34"/><path class="cls-2" d="M47.71,55.23c7,6.12,14.77,10.38,20.21,9.59,15.3-2.22,28.05-51.7,21.44-58-6-5.78-55.24,6.77-57.46,22C31.08,34.41,35.63,42.52,42,49.64Z"/><path class="cls-2" d="M37.89,54.33a3.94,3.94,0,0,1,.93-1.48L57.71,34a4.14,4.14,0,0,1,5.95,0,4,4,0,0,1-.15,5.47l-19,19.06a4,4,0,0,1-1.47.93l-2.5-2.76-.17-.16Z"/><rect class="cls-3" x="13.46" y="49.21" width="17.87" height="51.42" rx="8.71" ry="8.71" transform="translate(59.53 6.11) rotate(45)"/><line class="cls-4" x1="7.72" y1="84.02" x2="32.91" y2="59.42"/><path class="cls-3" d="M84.2,116.6a7.9,7.9,0,0,1,1.26,10.26,10.2,10.2,0,0,0-1.79,5.7v3.77a7.69,7.69,0,0,0,6.54,7.72,7.53,7.53,0,0,0,8.51-7.47v-4a10.3,10.3,0,0,0-1.79-5.7,7.88,7.88,0,0,1,1.28-10.24"/><polygon class="cls-2" points="130.69 103.85 52.47 103.85 45.35 69.76 137.04 69.76 130.69 103.85"/><line class="cls-4" x1="52.17" y1="78.69" x2="54.99" y2="93.97"/><path class="cls-3" d="M125.42,116.12H57.54a5.92,5.92,0,0,1-5.92-5.92l.84-6.35h78.23l.65,6.35A5.92,5.92,0,0,1,125.42,116.12Z"/><circle class="cls-4" cx="91.19" cy="135.72" r="3.2"/><line class="cls-4" x1="62.67" y1="109.98" x2="119.62" y2="109.98"/></g></g></svg>