<svg xmlns="http://www.w3.org/2000/svg" viewBox="0 0 1490.83 1490.83"><defs><style>.cls-1,.cls-2,.cls-3,.cls-4,.cls-5,.cls-8,.cls-9{fill:none;}.cls-1,.cls-2,.cls-4,.cls-8{stroke:#0976d4;}.cls-1,.cls-4,.cls-5,.cls-8{stroke-miterlimit:10;}.cls-1,.cls-2,.cls-3{stroke-width:16px;}.cls-2,.cls-3{stroke-linejoin:round;}.cls-3{stroke:#71b9f4;}.cls-4{stroke-width:19px;}.cls-5{stroke:#63b9fa;stroke-width:9px;}.cls-6{fill:#0976d4;}.cls-7{fill:#63b9fa;}.cls-8{stroke-width:11px;}</style></defs><title>Asset 38</title><g id="Layer_2" data-name="Layer 2"><g id="Layer_1-2" data-name="Layer 1"><path class="cls-1" d="M613.88,1228.47v-84.19c13.09,2.8,26.19,4.71,26.19,4.71v79.48"/><path class="cls-1" d="M848.75,1228.41l-.64-81.27s13.44-2.35,26.89-5.37v86.8"/><rect class="cls-1" x="601.21" y="1221.89" width="51.54" height="51.54" rx="2.2" ry="2.2"/><rect class="cls-1" x="835.78" y="1221.89" width="51.54" height="51.54" rx="2.2" ry="2.2"/><rect class="cls-2" x="480.51" y="309.89" width="519.51" height="775.73"/><path class="cls-3" d="M479.54,1085.62H1001S929.86,1156,737.29,1156C548.71,1156,479.54,1085.62,479.54,1085.62Z"/><path class="cls-3" d="M479.54,309.89H1001s-71.14-70.37-263.71-70.37C548.71,239.52,479.54,309.89,479.54,309.89Z"/><circle class="cls-4" cx="741.7" cy="549.35" r="94.21"/><circle class="cls-5" cx="741.58" cy="565.5" r="15.93"/><path class="cls-6" d="M742.69,495.16c-14,0-28.18,5.77-51.17,19.17,17.05-8.87,32-12,44.46-12,29.36,0,45.54,17.14,45.54,17.14l8.07-10.33c-20.43-8.8-33.59-14-46.9-14Z"/><polygon class="cls-7" points="741.58 565.5 728.16 556.93 706.15 495.16 741.58 549.57 741.58 565.5"/><circle class="cls-1" cx="737.07" cy="959.5" r="52.75"/><path class="cls-7" d="M726.76,964.45H707.23a.3.3,0,0,0-.3.3v6.8a.3.3,0,0,0,.3.3h19.53a.3.3,0,0,0,.3-.3v-6.8a.3.3,0,0,0-.3-.3Z"/><path class="cls-6" d="M740.47,866.11h-6.8a.29.29,0,0,0-.3.3v19.52a.29.29,0,0,0,.3.3h6.8a.29.29,0,0,0,.3-.3V866.41a.29.29,0,0,0-.3-.3Z"/><path class="cls-6" d="M657.81,964.45H638.28a.3.3,0,0,0-.3.3v6.8a.3.3,0,0,0,.3.3h19.53a.3.3,0,0,0,.3-.3v-6.8a.3.3,0,0,0-.3-.3Z"/><path class="cls-6" d="M835.8,964.45H816.27a.3.3,0,0,0-.3.3v6.8a.3.3,0,0,0,.3.3H835.8a.3.3,0,0,0,.3-.3v-6.8a.3.3,0,0,0-.3-.3Z"/><path class="cls-7" d="M818.85,902.66h0m-11.1-11.4a.3.3,0,0,0-.21.09l-13.8,13.8a.3.3,0,0,0,0,.43l4.81,4.81a.29.29,0,0,0,.42,0l13.81-13.81a.29.29,0,0,0,0-.42L808,891.35a.31.31,0,0,0-.22-.09Z"/><path class="cls-7" d="M677.31,902.66h0m-11.1-11.4a.3.3,0,0,0-.21.09l-4.81,4.81a.29.29,0,0,0,0,.42L675,910.39a.31.31,0,0,0,.22.09.3.3,0,0,0,.21-.09l4.81-4.81a.3.3,0,0,0,0-.43l-13.81-13.8a.27.27,0,0,0-.21-.09Z"/><line class="cls-8" x1="607.53" y1="1240.75" x2="655.12" y2="1240.75"/><line class="cls-8" x1="607.53" y1="1254.89" x2="646.42" y2="1254.89"/><line class="cls-8" x1="842.11" y1="1240.59" x2="885.01" y2="1240.59"/><line class="cls-8" x1="842.11" y1="1254.73" x2="881" y2="1254.73"/><path class="cls-7" d="M690.43,1113.71h-21a.3.3,0,0,0-.3.3v13.6a.3.3,0,0,0,.3.3h21a.31.31,0,0,0,.3-.3V1114a.31.31,0,0,0-.3-.3Z"/><path class="cls-7" d="M779.71,1113.71h-21a.3.3,0,0,0-.3.3v13.6a.3.3,0,0,0,.3.3h21a.31.31,0,0,0,.3-.3V1114a.31.31,0,0,0-.3-.3Z"/><circle class="cls-2" cx="697.01" cy="1120.81" r="9.14"/><circle class="cls-2" cx="786.04" cy="1120.81" r="9.14"/><rect class="cls-9" width="1490.83" height="1490.83"/></g></g></svg>