<svg xmlns="http://www.w3.org/2000/svg" viewBox="0 0 1490.83 1490.83"><defs><style>.cls-1,.cls-2,.cls-4{fill:none;}.cls-1{stroke:#71b9f4;}.cls-1,.cls-2{stroke-linejoin:round;stroke-width:16px;}.cls-2{stroke:#0976d4;}.cls-3{fill:#0976d4;}</style></defs><title>Asset 34</title><g id="Layer_2" data-name="Layer 2"><g id="Layer_1-2" data-name="Layer 1"><path class="cls-1" d="M480.18,704.55S540.78,717,731.11,717C923.62,717,982,704.55,982,704.55"/><path class="cls-1" d="M480.18,655.16s60.6,12.48,250.93,12.48c192.51,0,250.92-12.48,250.92-12.48"/><path class="cls-2" d="M709.61,1150.64c7.09.38,14.24.59,21.48.59C869.68,1151.23,982,1080,982,1017.09"/><path class="cls-2" d="M480.18,1017.09c0,51.27,74.6,108.07,177.21,127.31"/><path class="cls-2" d="M982,1017.09V647.26a22.56,22.56,0,0,0-20.63-22.72h0c-.53,0-1.05-.07-1.6-.07"/><path class="cls-2" d="M501.14,624.52h-.07a22.57,22.57,0,0,0-20.89,22.74V1021"/><path class="cls-2" d="M492.2,623.48l5.21.59c.61.06,1.27.13,1.95.22.09,0,.2,0,.31.05.46,0,.92.11,1.42.18h.05c31.23,3.68,100.65,9.45,230,9.45,130.58,0,199.45-5.75,230.27-9.43h0"/><rect class="cls-1" x="663.26" y="745.01" width="150.42" height="86.97"/><rect class="cls-1" x="663.26" y="550.47" width="150.42" height="57.82"/><path class="cls-2" d="M982,394.59c0-82.5-112.35-149.38-250.94-149.38-82,0-154.73,23.39-200.52,59.6-16.57,13.07-29.63,27.84-38.26,43.8a95.49,95.49,0,0,0-12.13,46"/><path class="cls-2" d="M982,394.59V604.67A19.31,19.31,0,0,1,968,623.39c-.11.05-12.11,1.77-12.22,1.79"/><path class="cls-2" d="M501.14,624.52s-6.65-1.06-6.68-1.06l-.17,0-.07,0a19.28,19.28,0,0,1-14-18.72V394.59"/><path class="cls-2" d="M633.82,1235.78c-18,1.85-39.67,4.14-54.16,6.79a1.6,1.6,0,0,0-.21,0,.2.2,0,0,0-.11,0c-40.13,7.36-72.65,16.46-72.65,31.34,0,24.83,107.41,38.2,230.37,38.2s222.7-18.25,222.7-40.77c0-7.08-19.65-16-37-21.8"/><path class="cls-2" d="M892.66,1245.78c-2.35-.47-4.79-.94-7.27-1.39h0c-38-7-90.38-11.25-148.29-11.25-3,0-6,0-9,0"/><path class="cls-2" d="M591.73,1240.52c-23.44,5.68-48.18,18-48.18,25.65,0,18.79,91,32.66,193.51,32.66,65.43,0,122.94-6.19,156-15.58h0c18.74-5.32,29.63-11.65,29.63-18.43a5.78,5.78,0,0,0-.22-1.64v0"/><polyline class="cls-2" points="622.1 1291.54 657.39 1144.4 709.61 1150.64 742.68 1298.81"/><path class="cls-2" d="M587.27,1128.53v96c-6.78,3.46-4.52,17.33-4.52,17.33l-34.38,13,15.73-135.5Z"/><polyline class="cls-2" points="922.75 1264.82 922.53 1263.18 902.21 1111.2 891.19 1119.28 892.66 1246.28 893.08 1283.25 893.08 1283.27 893.12 1283.25"/><path class="cls-2" d="M884.24,1128.85,876.83,1139a16.78,16.78,0,0,0-4.41,10.83l-2.82,88.32"/><polyline class="cls-2" points="742 1233.17 742 1207.93 755.67 1153.18"/><polyline class="cls-2" points="832.98 1237.39 832.98 1214.13 816.63 1144.4 790.64 1146.78 790.51 1146.8"/><line class="cls-2" x1="745.58" y1="1150.96" x2="745.03" y2="1153.18"/><polyline class="cls-2" points="669.56 1145.86 651.3 1271.6 709.61 1271.6 696.09 1149.03"/><path class="cls-3" d="M782.18,197H676.49a1.63,1.63,0,0,0-1.64,1.64v14.12a1.63,1.63,0,0,0,1.64,1.64H782.18a1.63,1.63,0,0,0,1.64-1.64V198.62a1.63,1.63,0,0,0-1.64-1.64Z"/><rect class="cls-2" x="693.85" y="210.51" width="70.96" height="35.4"/><rect class="cls-4" width="1490.83" height="1490.83"/></g></g></svg>