<svg xmlns="http://www.w3.org/2000/svg" viewBox="0 0 1490.83 1490.83"><defs><style>.cls-1,.cls-2,.cls-3{fill:none;}.cls-1{stroke:#71b9f4;}.cls-1,.cls-2{stroke-linejoin:round;stroke-width:16px;}.cls-2{stroke:#0976d4;}</style></defs><title>Asset 30</title><g id="Layer_2" data-name="Layer 2"><g id="Layer_1-2" data-name="Layer 1"><path class="cls-1" d="M892.16,825.71c-26.11,61.21-76.37,98.45-112.22,83.18-1.44-.64-2.82-1.33-4.2-2.07-32.23-18.25-38.46-77.76-13.35-136.53,26.11-61.22,76.37-98.45,112.22-83.19S918.33,764.44,892.16,825.71Z"/><path class="cls-1" d="M762.81,895.68h0c35.26,9.1,81.5-27.34,106.23-85.2,21.25-49.76,20-100.07-.44-125.39l-.55-.66"/><path class="cls-1" d="M850.86,682.08c13,27,12.69,69.22-3.57,111.73-19.64,51.24-56.18,86.82-88.82,89.94h0"/><path class="cls-1" d="M831.17,690.12c9.13,27.34,6.2,66.38-10.31,105.13s-42.68,67.85-68.77,80.18"/><path class="cls-1" d="M874.61,687.1c-35.85-15.26-86.11,22-112.22,83.19-25.11,58.77-18.88,118.28,13.35,136.53l-67.07-28.41h0C672.82,863.1,664.9,801,691.06,739.86c23.83-55.84,67.76-91.74,102.44-86L811.11,661v.05Z"/><ellipse class="cls-2" cx="1165.66" cy="918.42" rx="140.02" ry="81.88" transform="translate(-135.9 1631.29) rotate(-66.94)"/><path class="cls-2" d="M1259,954.32c-36.2,83.57-108.83,133.13-162.23,110.7-12.27-5.15-22.43-13.66-30.4-24.71-26.69-37.07-28.54-102.86-.61-167.21,22.08-50.85,57.59-89.13,94.06-106.23,23.43-11,47.29-13.24,68.18-4.46C1281.37,784.8,1295.26,870.75,1259,954.32Z"/><line class="cls-2" x1="1216.75" y1="756.76" x2="1216.71" y2="756.72"/><path class="cls-2" d="M1090.86,1031.9h0c40.91,10.58,94.55-31.75,123.24-99,24.65-57.8,23.21-116.25-.51-145.66l-.63-.77"/><path class="cls-2" d="M1194,786c14,31.41,13.28,79.33-5.18,127.54-22.78,59.52-65.17,100.88-103,104.47h0"/><path class="cls-2" d="M1170.17,793.1c10.6,31.76,7.19,77.11-12,122.13s-49.51,78.82-79.78,93.14"/><path class="cls-2" d="M1155.47,801.53v0c2.79,28.41-2.68,62.64-17.17,96.73-16.07,37.76-40,67.59-65.13,84.69"/><line class="cls-2" x1="1095.7" y1="1063.85" x2="1095.66" y2="1063.85"/><path class="cls-2" d="M1228,762.41l-51.16-17.29a17.27,17.27,0,0,0-6.45-.93c-12.17.72-24.68,4.11-37.09,9.89-37.61,17.47-74.23,56.55-97,108.43-28.81,65.65-26.9,132.8.62,170.63a77.07,77.07,0,0,0,17.55,17.54,18.65,18.65,0,0,0,5.61,2.65l31.77,9.39"/><ellipse class="cls-2" cx="646.58" cy="687.94" rx="72.71" ry="40.02" transform="translate(-272.49 903.92) rotate(-60)"/><path class="cls-2" d="M682.41,707.3c-24.18,41.9-66.16,62.93-93.72,47a39.69,39.69,0,0,1-13.24-12.51,45.83,45.83,0,0,1-4-7.16c-9.87-21.9-6.45-54.78,11-85,13.91-24.07,33.69-41.28,53.25-48.47a60.94,60.94,0,0,1,12.91-3.37,51.58,51.58,0,0,1,10.13-.37,40,40,0,0,1,17.47,5.21C703.84,618.57,706.59,665.43,682.41,707.3Z"/><path class="cls-2" d="M623.42,538.25l-4.78-6.54a53.26,53.26,0,0,0-10-8.62c-6.13-4-14.64-5.45-21.65-6.4h0c-.92-.15-1.87-.22-2.79-.29a.43.43,0,0,0-.22,0,59.91,59.91,0,0,0-13.25.55l-1,.18a73.27,73.27,0,0,0-15.89,4.85c-25.61,10.71-51.48,36.29-69.68,72.1-22.82,45-27.3,93.87-14.38,126.45a75,75,0,0,0,5.17,10.64c3.53,6.42,9.38,12.6,14.72,17.3a48.55,48.55,0,0,0,12.1,8.34c4.79,2.2,14.85,2.88,22.31,2.85"/><path class="cls-2" d="M561.06,740.14a.15.15,0,0,0-.07,0h0c-12.07,9.4-24.58,16-36.87,19.45,0,0,0,0,0,0-17.39,4.88-31.92,5.1-46.12-4,0,0-2.43-1.76-2.43-1.76s-4.33-3-6.31-4.73a55.85,55.85,0,0,1-8.22-8.66,58,58,0,0,1-4.44-6.46,75.89,75.89,0,0,1-5.69-11.37c-14.2-34.83-9.28-87.08,15.82-135.15,20-38.27,48.36-65.61,76.47-77.06a82.33,82.33,0,0,1,18.57-5.35c1.69-.22,3.34-.41,5-.55a68.65,68.65,0,0,1,9.51,0c.11,0,.25,0,.36,0,1,.07,1.88.18,2.83.29a53.51,53.51,0,0,1,21.91,8,61.13,61.13,0,0,1,20.22,21.94l0,0c7.3,13,11.38,29.17,12.15,47.19"/><path class="cls-2" d="M589.54,505.66a95.09,95.09,0,0,0-8.77-19.19l0,0a73,73,0,0,0-25.1-25.4,69.88,69.88,0,0,0-27.22-9.24c-1.18-.11-2.32-.26-3.49-.33-.15,0-.33,0-.48,0a89.12,89.12,0,0,0-11.78,0c-2.09.18-4.14.4-6.23.66a104.66,104.66,0,0,0-23.09,6.2c-34.89,13.24-70.15,44.87-95,89.16-31.15,55.67-37.24,116.14-19.63,156.43a82.41,82.41,0,0,0,7.08,13.17,65.05,65.05,0,0,0,5.51,7.49,67.11,67.11,0,0,0,10.2,10,70.9,70.9,0,0,0,7.78,5.46h.07s2.52,1.48,2.56,1.48c14.83,8.79,34.17,10.67,54.68,5.94h0c.62-.15,1.21-.3,1.83-.48,0,0,0,0,0,0"/><path class="cls-2" d="M515.82,439.47c-.11-.33-.22-.63-.33-.92"/><path class="cls-2" d="M482.36,757.7c-6.9-.52-15-4.92-21.14-8h0a47.24,47.24,0,0,1-4.92-2.79,64,64,0,0,1-5.46-3.93,62.8,62.8,0,0,1-13.58-16,74,74,0,0,1-5.69-11.37c-14.2-34.83-9.28-87.08,15.82-135.15,20-38.23,48.4-65.61,76.47-77a80.46,80.46,0,0,1,18.57-5.39,69.14,69.14,0,0,1,14.53-.59,55,55,0,0,1,10.2,1.73,53.8,53.8,0,0,1,14.9,6.56"/><line class="cls-2" x1="597.13" y1="518.65" x2="597.1" y2="518.65"/><path class="cls-2" d="M461.22,748.43h0a56.23,56.23,0,0,1-20.91-7.85c-.08,0-.15-.11-.22-.15a62.36,62.36,0,0,1-19.71-20.18,77.93,77.93,0,0,1-5.94-11.63C399.54,673,404.67,619.52,431,570.35c20.91-39.15,50.67-67.11,80.1-78.81A87.71,87.71,0,0,1,530.5,486a73.68,73.68,0,0,1,15.22-.59,52.06,52.06,0,0,1,8.3,1.22,56.3,56.3,0,0,1,18,7.26,58,58,0,0,1,12.84,10.9"/><path class="cls-2" d="M440.05,740.43a56.27,56.27,0,0,1-18.06-7.3,62.18,62.18,0,0,1-19.92-20.33,78.43,78.43,0,0,1-5.95-11.63c-14.86-35.63-9.72-89.09,16.55-138.26,20.92-39.16,50.68-67.12,80.11-78.82a87.63,87.63,0,0,1,19.44-5.51,73.79,73.79,0,0,1,15.23-.58,57.07,57.07,0,0,1,26.27,8.47c.11.08.19.11.3.19"/><path class="cls-2" d="M646.58,584.43c-1.29-1-11.7-5.49-13.13-6.3-2.42-1.39-2.42-2.49-5.06-3.34-27.22-8.73-64.14,12.11-86.19,50.31-21,36.29-21.69,76.29-3.6,96.69,2.83,3.16,3.56,5.87,7.26,8a39,39,0,0,0,9.87,4,.12.12,0,0,0,.08,0"/><line class="cls-2" x1="544.51" y1="723.7" x2="544.48" y2="723.7"/><path class="cls-2" d="M534.17,721.79a37.74,37.74,0,0,1-7.56-3.34c-27.6-15.92-30.35-62.78-6.17-104.69s66.16-62.89,93.76-47a39.59,39.59,0,0,1,9.76,8,43.65,43.65,0,0,1,3.7,4.85"/><path class="cls-2" d="M676.25,602.61c-2.06-1.91-15.9-11.43-18.36-12.86-27.6-15.93-69.57,5.1-93.76,47s-21.39,88.76,6.21,104.69a35.22,35.22,0,0,0,7.77,3.37"/><path class="cls-2" d="M671.4,621.87c9.76,16,6.28,46.09-10.16,74.53s-40.7,46.53-59.48,46.09"/><line class="cls-2" x1="330.89" y1="655.57" x2="212.94" y2="598"/><line class="cls-2" x1="395.01" y1="472.11" x2="282.78" y2="419.39"/><path class="cls-2" d="M537,451.25,518.3,421.06a29.54,29.54,0,0,0-11.78-10.8l-88.13-44.45A26,26,0,0,0,406.86,363c-24.42-.17-112.28,7.07-162.41,114.84-46,99-29.67,167-20.9,186.35a26.26,26.26,0,0,0,10.1,11.48l126,66.63a26.42,26.42,0,0,0,21.09,3L397,740.71"/><path class="cls-2" d="M380.77,745.28,335.45,667a33.94,33.94,0,0,1-2.57-28.45l56.54-158A21.12,21.12,0,0,1,404,467.21l123.23-31.66"/><path class="cls-2" d="M1066.83,1055.33h-33a3.76,3.76,0,0,1-3.49-2.38l-36.59-93.27a10.15,10.15,0,0,1,0-7.3l65.49-172.7a10.17,10.17,0,0,1,5-5.5L1193.62,710a5.43,5.43,0,0,1,6.37,1.15l55.16,48.81-2.65,20"/><path class="cls-2" d="M1031.31,1055.33l-57.41-32a10.14,10.14,0,0,1-4.18-4.42L920.48,917.78a10.12,10.12,0,0,1-.27-8.26l65.74-162a10.21,10.21,0,0,1,4.49-5.06l129-71.49a10.16,10.16,0,0,1,9.87,0l68.27,38.12"/><line class="cls-2" x1="948.57" y1="975.48" x2="913.79" y2="952.26"/><line class="cls-2" x1="1090.86" y1="684.45" x2="1061.96" y2="673.8"/><line class="cls-2" x1="1099.48" y1="816.72" x2="1099.48" y2="816.68"/><line class="cls-2" x1="1114.01" y1="749.5" x2="1114.01" y2="749.46"/><path class="cls-2" d="M927.53,961.44c-.77-.4-1.54-.81-2.31-1.25a43.19,43.19,0,0,1-6.72-4.77l-.07-.07C886,927.28,892,851.25,933.88,778.74c36.87-63.92,90.12-105,130-104.25h0"/><line class="cls-2" x1="1058.49" y1="891.8" x2="1058.45" y2="891.83"/><rect class="cls-3" width="1490.83" height="1490.83"/></g></g></svg>