<svg xmlns="http://www.w3.org/2000/svg" xmlns:xlink="http://www.w3.org/1999/xlink" viewBox="0 0 1490.83 1490.83"><defs><style>.cls-1,.cls-4{fill:#63b9fa;}.cls-1,.cls-2,.cls-6,.cls-7{stroke:#0976d4;}.cls-1,.cls-2,.cls-3,.cls-6,.cls-7{stroke-linejoin:round;stroke-width:16px;}.cls-2,.cls-3,.cls-7,.cls-8{fill:none;}.cls-3{stroke:#63b9fa;}.cls-3,.cls-7{stroke-linecap:round;}.cls-5{clip-path:url(#clip-path);}.cls-6{fill:#fffffa;}</style><clipPath id="clip-path"><ellipse id="_Ellipse_" data-name="&lt;Ellipse&gt;" class="cls-1" cx="751.79" cy="1249.04" rx="366.39" ry="42.58"/></clipPath></defs><title>Asset 29</title><g id="Layer_2" data-name="Layer 2"><g id="Layer_1-2" data-name="Layer 1"><path class="cls-2" d="M697.59,361.56l-35-126.39c18.4-10.32,54.52-17.35,96-17.35,39,0,73.16,6.2,92.44,15.49h0L817.55,361.48"/><path class="cls-2" d="M817.92,360c0,7.32-28.22,13.25-60.34,13.25s-60.41-5.93-60.41-13.25,28.29-13.24,60.41-13.24S817.92,352.73,817.92,360Z"/><path class="cls-3" d="M757.55,393h0a8.59,8.59,0,0,1-8.6-8.59L749,360h17.19l0,24.35A8.59,8.59,0,0,1,757.55,393Z"/><path class="cls-2" d="M782.12,360c0,3-11.49,5.39-24.56,5.39S733,363,733,360s11.52-5.39,24.59-5.39S782.12,357.07,782.12,360Z"/><path class="cls-3" d="M745.49,642h24.14a2.4,2.4,0,0,1,2.4,2.4v16.11a0,0,0,0,1,0,0H743.09a0,0,0,0,1,0,0V644.42A2.4,2.4,0,0,1,745.49,642Z"/><path class="cls-2" d="M843,818.27h.46L822.63,698.09c-7.06-37.56-26-36.55-41.83-37.56H727.63c-18.7,0-37.16,4.77-43.88,40L662.6,818.27h5.72"/><ellipse id="_Ellipse_2" data-name="&lt;Ellipse&gt;" class="cls-4" cx="751.79" cy="1249.04" rx="366.39" ry="42.58"/><g class="cls-5"><ellipse class="cls-6" cx="743.7" cy="1214.68" rx="355.32" ry="38.21"/></g><ellipse id="_Ellipse_3" data-name="&lt;Ellipse&gt;" class="cls-2" cx="751.79" cy="1249.04" rx="366.39" ry="42.58"/><path class="cls-2" d="M388.38,1243.59c44.52-216,191.11-337.63,227.87-365.26l3.82-2.92v0l6.81-20.87c12.19-35.26,45.84-40,79.88-40H803.5c28.75,1,63.32,0,76.15,37.55l8.42,26.74a8.14,8.14,0,0,0,2.79,4c43.74,33.7,182.19,154.45,224.81,361.23"/><line class="cls-3" x1="757.58" y1="382.8" x2="757.58" y2="638.04"/><path class="cls-7" d="M617.61,943.87s-99.49,77-149.23,227.86"/><rect class="cls-8" width="1490.83" height="1490.83"/></g></g></svg>