<svg xmlns="http://www.w3.org/2000/svg" viewBox="0 0 1490.83 1490.83"><defs><style>.cls-1,.cls-2,.cls-3{fill:none;}.cls-1{stroke:#0976d4;}.cls-1,.cls-2{stroke-linejoin:round;stroke-width:16px;}.cls-2{stroke:#63b9fa;stroke-linecap:round;}</style></defs><title>Asset 28</title><g id="Layer_2" data-name="Layer 2"><g id="Layer_1-2" data-name="Layer 1"><rect class="cls-1" x="980.07" y="281.64" width="175.08" height="37.19" rx="3.5" ry="3.5" transform="translate(449.8 -620.76) rotate(40.44)"/><path class="cls-1" d="M1112.1,362.57l-30.4,31.71a70.79,70.79,0,0,1-109.51-89.22l28.16-37.72"/><path class="cls-1" d="M1089.18,343.09l-25.79,30.41a42.64,42.64,0,0,1-66-53.74l24.45-34"/><rect class="cls-1" x="321.31" y="287.12" width="175.08" height="37.19" rx="3.5" ry="3.5" transform="translate(918.32 273.2) rotate(139.56)"/><path class="cls-1" d="M476.11,272.83l28.16,37.71a70.79,70.79,0,0,1-109.51,89.22l-30.4-31.71"/><path class="cls-1" d="M450.94,293.5l25.85,33a40.14,40.14,0,0,1-62.09,50.59L387.58,347.5"/><path class="cls-2" d="M989.87,432,788.8,667.11l-35-40L950.25,397.38A69.08,69.08,0,0,0,989.87,432Z"/><path class="cls-2" d="M484.15,437.23l267.26,320,41.74-36.61L523,402.19a69.21,69.21,0,0,1-15.64,21.11A66.58,66.58,0,0,1,484.15,437.23Z"/><path class="cls-1" d="M841.21,879.62c1.17-2.35,3.3-7.82,3.3-10.64a17.5,17.5,0,0,0-21.35-17.07,2,2,0,0,1-2-.63l-63.33-75.17L810.18,732l63,74.85a2,2,0,0,1,.2,2.24,17.52,17.52,0,0,0,15.52,25.63,32.13,32.13,0,0,0,9-1.81"/><path class="cls-1" d="M823,870.5H967.47a0,0,0,0,1,0,0v14.87a3.44,3.44,0,0,1-3.44,3.44H826.43a3.44,3.44,0,0,1-3.44-3.44V870.5A0,0,0,0,1,823,870.5Z" transform="translate(-355.48 774.92) rotate(-39.71)"/><path class="cls-1" d="M1231.9,1026l-179.14-215.7a80,80,0,0,0-112.68-10.43l-137,113.74a80,80,0,0,0-10.43,112.68l181.78,218.9,22.47,10.63h0l-7.54-23.14L813.6,1021a69.8,69.8,0,0,1,9.1-98.29L946.06,820.27a69.78,69.78,0,0,1,98.27,9.09l173.31,208.69,24.9,13.74h0Z"/><polyline class="cls-1" points="859.69 914.13 1071.17 1168.76 1079.43 1194.44 1055.99 1181.99 842.03 924.36"/><polyline class="cls-1" points="943.65 840.25 1156.45 1096.45 1165.92 1123.82 1141.79 1110.29 930.23 855.55"/><circle class="cls-2" cx="809.45" cy="770.7" r="7.94"/><circle class="cls-2" cx="682.88" cy="769.04" r="7.94"/><path class="cls-1" d="M328.27,917.52s0,0,0,0a263.76,263.76,0,0,0,4.13,252.71v0"/><path class="cls-1" d="M332.37,1170.27v0c31.91,13.87,79.07,21.58,104.39,21.61,109.58.1,154.66-60.11,154.68-60.13h0c22.14-22.8,62.19-77.55,91.1-118.3l0,0c19.8-28,34.39-49.31,34.39-49.31a21.9,21.9,0,0,0-2.73-30.86l-22.17-18.6-17.83-14.95c-.45-.27-.92-.57-1.37-.86a42.39,42.39,0,0,1-7.68-6.44c-.37-.39-.72-.76-1-1.18a43.23,43.23,0,0,1-2.66-54,40.26,40.26,0,0,1,4-4.81l1.17-1.39.61-.73,53.59-63.92-44.58-53.1-49.41,58.95L614.94,786.5a43,43,0,0,1-6.83,8.14,41.37,41.37,0,0,1-5.93,4.64A43.33,43.33,0,0,1,552,797.21c-.88-.69-1.74-1.41-2.56-2.16l-.08-.06-6.77-5.67-34.06-28.58a21.9,21.9,0,0,0-30.88,2.7s-29.36,27.46-62.7,60.44c0,0,0,0,0,0-32.48,32.12-68.73,69.47-85.23,91.72l-1.37,1.88s0,0,0,0"/><line class="cls-1" x1="682.57" y1="1013.45" x2="682.55" y2="1013.47"/><path class="cls-1" d="M631.62,879.62s-120,185.2-181.32,152.85"/><rect class="cls-3" width="1490.83" height="1490.83"/></g></g></svg>