<svg xmlns="http://www.w3.org/2000/svg" viewBox="0 0 1490.83 1490.83"><defs><style>.cls-1,.cls-2,.cls-3,.cls-4,.cls-5{fill:none;}.cls-1,.cls-4{stroke:#0976d4;}.cls-1,.cls-3,.cls-4{stroke-miterlimit:10;}.cls-1,.cls-2,.cls-3,.cls-4{stroke-width:16px;}.cls-2,.cls-3{stroke:#63b9fa;}.cls-2,.cls-4{stroke-linecap:round;}.cls-2{stroke-linejoin:round;}</style></defs><title>Asset 37</title><g id="Layer_2" data-name="Layer 2"><g id="Layer_1-2" data-name="Layer 1"><rect class="cls-1" x="958.98" y="976.37" width="130.37" height="74.66" rx="6.84" ry="6.84" transform="translate(-307.33 462.68) rotate(-22.22)"/><rect class="cls-1" x="1131.88" y="834.06" width="127.1" height="63.29" rx="5.95" ry="5.95" transform="translate(-152.01 1468.12) rotate(-60)"/><path class="cls-1" d="M1182.32,660.65c1-.41,2-.79,3-1.13a37.27,37.27,0,0,1,47.25,23.53l17.74,52.81a37.36,37.36,0,0,1-2.89,30.25"/><path class="cls-1" d="M292.19,777.14l6.74,45.68c2.61,17.71-7.83,35.9-23.86,40.34h0c-16.58,4.59-32.1-7.37-34.08-26.38l-5.1-48.9c-1.8-17.24,9.7-33,25.19-35.41h0C276.09,750.07,289.81,761,292.19,777.14Z"/><rect class="cls-1" x="348.17" y="951.75" width="130.37" height="74.66" rx="6.84" ry="6.84" transform="translate(232.1 2045.63) rotate(-147.58)"/><rect class="cls-1" x="593.82" y="1030.61" width="130.37" height="74.66" rx="6.84" ry="6.84" transform="translate(1203.88 2198.37) rotate(-174.06)"/><path class="cls-1" d="M253.86,681.93a33.81,33.81,0,0,1-.41-5.41,37.3,37.3,0,0,1,4.33-17.44l26.05-49.23a37.29,37.29,0,0,1,27.83-19.49"/><path class="cls-1" d="M331.94,838.41c-16.2-27.85-25-57.84-25-89.07"/><path class="cls-1" d="M1062.1,930.38c-36.81,24.26-80.94,44.32-130.22,58.87"/><path class="cls-1" d="M584,997.39a683.53,683.53,0,0,0,158.66,18.23q11.48,0,22.82-.37h.22"/><path class="cls-1" d="M369.45,886.84c39.14,39.6,94.68,72.47,160.89,95.07"/><polyline class="cls-2" points="1178.3 759.32 1178.3 780.86 1255.17 795.12 1255.17 776.92 1247.37 766.12 1178.3 670.24 1178.3 689.36 1178.3 749.34"/><line class="cls-2" x1="1178.3" y1="689.37" x2="1255.16" y2="795.12"/><polygon class="cls-2" points="554.76 886.84 580.08 892.95 583.96 997.41 531.74 1078.15 507.3 1071.63 554.76 886.84"/><line class="cls-2" x1="580.07" y1="892.95" x2="531.74" y2="1078.15"/><polygon class="cls-2" points="367.28 781.18 379.97 795.32 369.45 886.84 296.11 932.33 282.94 917.7 367.28 781.18"/><line class="cls-2" x1="379.97" y1="795.32" x2="296.11" y2="932.33"/><polyline class="cls-2" points="226.76 731.16 306.94 731.16 306.94 650.4"/><polyline class="cls-2" points="260 697.68 306.94 650.4 306.94 629.71 306.94 627.9 253.86 681.93 226.76 709.52 226.76 731.16 260 697.68"/><line class="cls-2" x1="1072.72" y1="834.68" x2="1141.08" y2="989.42"/><path class="cls-1" d="M1124.76,592a164.46,164.46,0,0,0-11-45.4,193.54,193.54,0,0,0-21.09-39,238.08,238.08,0,0,0-28.88-33.92A294.22,294.22,0,0,0,1028.22,444a358.9,358.9,0,0,0-41.9-25.66,418.56,418.56,0,0,0-48.25-21.54q-18.83-7.15-39-12.85c-5.33-1.51-10.74-2.93-16.19-4.28a544.63,544.63,0,0,0-63.59-11.76h0q-16.5-2.06-33.48-3.2c-.22,0-.44,0-.66-.05-4.48-.3-9-.52-13.5-.69-8.37-.39-16.78-.56-25.27-.56-.66,0-1.34,0-2,0a1.69,1.69,0,0,0-.45,0,580.51,580.51,0,0,0-70.07,4.43q-12.08,1.5-23.85,3.47a526.23,526.23,0,0,0-54.39,12.09,467.19,467.19,0,0,0-65.11,23.28,381.61,381.61,0,0,0-54.59,29.55h0C430.6,465.81,397,502.79,380,544.08a167.31,167.31,0,0,0-9.34,30.18,157.14,157.14,0,0,0-3.33,30.35c0,.69,0,1.37,0,2.06a160.18,160.18,0,0,0,5.55,41.68c.39,1.46.81,2.93,1.22,4.37a181.56,181.56,0,0,0,18.13,40.83A220.62,220.62,0,0,0,418.69,729a276.85,276.85,0,0,0,33.46,31A337.26,337.26,0,0,0,492,787a402.76,402.76,0,0,0,46.13,22.92,469.26,469.26,0,0,0,52.8,18.66,527.64,527.64,0,0,0,60.61,13.65h0a568.84,568.84,0,0,0,59.55,6.63c3.69.22,7.41.41,11.13.54h0q12,.51,24.09.51a589.77,589.77,0,0,0,62.25-3.28h0l0,0q9-.92,17.78-2.15a527,527,0,0,0,86.81-19.35c67.26-21.18,123.32-54.81,160.86-96.17a216.79,216.79,0,0,0,31-43.51,174.81,174.81,0,0,0,15-38.09c1.15-4.37,2.1-8.78,2.89-13.2a158.05,158.05,0,0,0,2.39-27.47C1125.44,601.73,1125.22,596.84,1124.76,592ZM823,522.87c14.75,8.42,26.18,19.18,32.93,31.36M655,630.32c13.09,9.47,29.82,16.85,48.77,21.21"/><path class="cls-1" d="M1028.22,444c-56.83,80.81-168.83,89-191.61,88.08L823,522.87c-15.11-8.68-33.75-14.89-54.32-17.68a181,181,0,0,0-24.73-1.66A177.92,177.92,0,0,0,702,508.4C679,514,659.34,524,645.67,536.89c-13,12.2-20.55,27-20.55,42.88a49.59,49.59,0,0,0,.51,7.11,51.77,51.77,0,0,0,2,8.51h0c4.28,13.21,13.89,25.2,27.34,34.93"/><path class="cls-1" d="M703.75,651.53A177.18,177.18,0,0,0,742.23,656h0c.54,0,1.1,0,1.66,0a178.56,178.56,0,0,0,42.76-5.09l.05,0h0a144.71,144.71,0,0,0,31.58-11.69c16-8.29,28.66-19.2,36.27-31.7a58.06,58.06,0,0,0,3.5-6.6,51.29,51.29,0,0,0,4.62-21.13,52.32,52.32,0,0,0-6.82-25.54"/><path class="cls-1" d="M1115.46,887.16c39.9-40.19,62.84-87.37,62.84-137.82"/><polygon class="cls-2" points="1072.72 834.68 1062.09 930.39 1141.08 989.42 1156.49 974.97 1086.01 824.11 1072.72 834.68"/><path class="cls-1" d="M359,503.38C263,570.67,203.8,663.07,203.8,765c0,205.8,241.26,372.61,538.87,372.61S1281.54,970.81,1281.54,765c0-64.74-23.9-125.66-65.94-178.71a380.15,380.15,0,0,0-29.82-33.37,446.38,446.38,0,0,0-59.73-49.74"/><polyline class="cls-1" points="306.94 749.34 306.94 731.16 306.94 650.4 306.94 629.71"/><polyline class="cls-1" points="1178.3 749.34 1178.3 689.36 1178.3 670.24 1178.3 662.68 1178.3 635.55"/><path class="cls-3" d="M636.18,371l5.48-25.81c0-4.36,4-8,9.2-8.31L719,332.64a10.6,10.6,0,0,1,9.41,4.14l16.18,26.64H724.32l-7.88-15.57c-1.64-3.31-5.63-5.37-9.9-5.12l-38.71,1.81c-5.36.31-9.46,4.1-9.28,8.59l-2.14,14.13Z"/><line class="cls-3" x1="790.61" y1="949.72" x2="784.96" y2="1061.44"/><path class="cls-3" d="M919.7,873.1l.24-.05,6.44,55.76a25.17,25.17,0,0,1-21,28.67l-86.12,13.25a25.11,25.11,0,0,1-28.64-21l-15.07-54.44.22,0"/><path class="cls-3" d="M931.34,989.42l3.42,31.7c2.11,13.72-9.29,26.85-25.48,29.35l-27.71,4.26"/><path class="cls-3" d="M798.91,896.91l99.74-15.36,4.44,38.54a17.35,17.35,0,0,1-14.51,19.78L829.11,949a17.35,17.35,0,0,1-19.79-14.51Z"/><line class="cls-3" x1="926.38" y1="928.81" x2="934.76" y2="1021.12"/><polygon class="cls-2" points="857.75 1112.38 841.63 1059.13 851.12 989.25 857.75 1112.38"/><polyline class="cls-2" points="851.11 988.28 877.89 984.65 884.49 1109.92 858.59 1113.58"/><path class="cls-2" d="M775.54,895.28l-9.92,117.79a11.41,11.41,0,0,0,.45,4.27l8.52,28.46c2.1,13.69,16.92,22.79,33.11,20.3l32.6-4.42"/><path class="cls-1" d="M1177.22,610.85a172.94,172.94,0,0,0-11.54-45.05c-8.9-22.09-22.33-43.1-39.62-62.61a304.64,304.64,0,0,0-44.52-40.83h0c-37.62-28.42-84.61-52-138.07-69a592.55,592.55,0,0,0-58-15.29,663.28,663.28,0,0,0-65.58-10.49h0q-16.8-1.84-34-2.86c-.22,0-.44,0-.66-.05-4.45-.27-8.91-.47-13.41-.64q-13.58-.59-27.36-.59a1.69,1.69,0,0,0-.45,0c-.44,0-.85,0-1.29,0q-36,0-70.44,3.47c-6.19.61-12.35,1.3-18.44,2.08h0q-32.76,4.15-63.54,11.23C490.92,402.86,408.81,447,359,503.38c-23.5,26.59-39.82,55.91-47.35,87a166.69,166.69,0,0,0-4.72,39.35c0,114.91,119,212.79,285.8,250.14a648.34,648.34,0,0,0,64.64,11,696.31,696.31,0,0,0,74.18,5c3.67.07,7.37.09,11.06.09q16.73,0,33.14-.75A666.25,666.25,0,0,0,919.7,873.1c152.37-41.49,258.6-134.84,258.6-243.39A166.61,166.61,0,0,0,1177.22,610.85ZM823,522.87c14.75,8.42,26.18,19.18,32.93,31.36M655,630.32c13.09,9.47,29.82,16.85,48.77,21.21"/><path class="cls-4" d="M734.64,656c-37.58,143.79,30.94,190.61,30.94,190.61"/><path class="cls-4" d="M818.32,639.2s23.36,146.62,205.84,133"/><path class="cls-4" d="M861.78,589.05s96.05,90.48,263,2.92"/><path class="cls-1" d="M783.23,507.82s68.36-68.05,36.07-139.89"/><path class="cls-1" d="M723.28,503.19S706.66,404.27,595.6,383.44"/><path class="cls-1" d="M645.67,536.89s-83-72.06-242.41-33.7"/><path class="cls-1" d="M627.64,595.39S457.42,570,384.6,679.53"/><path class="cls-1" d="M669.58,639.2S532.53,689.81,538.1,809.92"/><rect class="cls-5" width="1490.83" height="1490.83"/></g></g></svg>