<svg xmlns="http://www.w3.org/2000/svg" viewBox="0 0 1490.83 1490.83"><defs><style>.cls-1,.cls-2,.cls-3{fill:none;}.cls-1{stroke:#0976d4;}.cls-1,.cls-2{stroke-linecap:round;stroke-linejoin:round;stroke-width:16px;}.cls-2{stroke:#63b9fa;}</style></defs><title>Asset 40</title><g id="Layer_2" data-name="Layer 2"><g id="Layer_1-2" data-name="Layer 1"><path class="cls-1" d="M904.1,1019.08l111.66-375.84a61.17,61.17,0,0,1,30-36.78,56.18,56.18,0,0,1,11.41-4.74,89.14,89.14,0,0,0,45.5-54.48,91.26,91.26,0,0,0-16.92-83.74L1066,529.83l-54,12.49L973.76,501.4l20.38-68.6a89.09,89.09,0,0,0-64,61.3,90.53,90.53,0,0,0,10.38,74.44,30.64,30.64,0,0,1,2.93,4.46,62,62,0,0,1,6.76,50.58L838.71,998.93a89.27,89.27,0,0,0-77.35,63.58,91.37,91.37,0,0,0,60.55,113.09,89.17,89.17,0,0,0,112-59.94A91.49,91.49,0,0,0,904.1,1019.08ZM858.49,1135l-44.89-13.83-10.86-45.91,34-32.07L881.65,1057l10.86,45.91Z"/><path class="cls-1" d="M1057.14,601.72a56.18,56.18,0,0,0-11.41,4.74A76.87,76.87,0,0,0,1057.14,601.72Z"/><polygon class="cls-1" points="836.76 1043.16 802.74 1075.24 813.6 1121.15 858.49 1134.98 892.51 1102.9 881.65 1057 836.76 1043.16"/><polygon class="cls-2" points="897.94 974.38 867.03 964.86 970.47 623.39 1001.38 632.91 897.94 974.38"/><rect class="cls-2" x="486.52" y="719.83" width="33.26" height="180.15" transform="translate(-115.63 84.49) rotate(-8.61)"/><path class="cls-1" d="M413.57,429s-4.69,2-4.9,2.06c-1.18.51-5.1,2.48-6.63,3.13-26.12,11-18.43,32.14-16.81,41.28,3.17,17.57,35.29,157.75,61.44,294.74,16.69,87.39,30.95,173.48,33.72,225.6,1.95,36.12,3.23,61.29,9,95.53a204.12,204.12,0,0,0,18,56.69c12.83,26.09,28.22,43,37,57.74,6.57,11,11.08,29.21,10.87,38.08-.36,11.51-9,22.2-6.71,26.91,2.55,5.34,15.54,13.25,21,10.78,13.44-6.14,17.63-42.62,14.89-57-7.7-40.58-28.77-66.65-35.18-89.93-7.22-25.81-11.46-67.54-2.9-107.26s1.53-55.16-1.66-73.09c-2.67-15.23-16.85-105.85-29-183.86-8.12-52.12-15.33-98.61-17.6-113.25a4.9,4.9,0,0,1,4.05-5.56l39-7a2,2,0,0,0,1.66-2.08c-.23-6.64-2-30.31-13.84-30.11-13.78.18-17.77-7.05-19-12.62-4.52-20.06-17.26-103.93-24.53-152.91-.25-1.51-.45-3.11-.7-4.55-2.24-15-3.89-26-4.42-30a3.33,3.33,0,0,0-1.59-2.32c-3.14-1.81-11.3-7.24-18.86-19.25l0-.15c-4.88-7.66-9.41-18.06-12.26-31.81-6.68-32.3,9.92-62,17.47-73.41a3.32,3.32,0,0,0-2.88-5.13,82.27,82.27,0,0,0-15.44,1.37c-43.32,7.8-74.7,48-73.16,89.21,0,.28,0,.66.08.95"/><path class="cls-1" d="M481.45,261.15l-10.7-.5c-11.09-.34-20.51-.16-30.91,2.53a91.56,91.56,0,0,0-67.15,104c.32,2.2.78,4.36,1.31,6.5a89.44,89.44,0,0,0,30.43,48.07,6.72,6.72,0,0,0,.74.57c2.39,2,3.88,3.3,6.54,5.37"/><polyline class="cls-1" points="447.61 358.72 468.94 319.12 523.08 305.1"/><polyline class="cls-1" points="478.76 261.03 487.46 261.72 568.01 269.23 568.19 269.94"/><path class="cls-1" d="M478.76,409.93,494.29,430a53.53,53.53,0,0,1,8.28,15.3l47,135.81L570.66,587l17.56,66.83-7.88,8.27,15,60.28,48.8-12.63L571.46,410.25s-14.28,3.24-20.42-6.8c-2.7-4.47-7.35-15.28,0-24.4l29.5-46.1"/><polyline class="cls-1" points="465.02 391.05 465.17 391.32 498.34 331.58 527.76 323.96"/><polygon class="cls-1" points="650.22 759.64 618.67 767.81 606.68 719.48 638.23 711.31 650.22 759.64"/><path class="cls-1" d="M758.42,1239.8l-5,1.29a8.27,8.27,0,0,1-10.12-6L688.48,1013.9l21.16-5.48,54.87,221.17A8.46,8.46,0,0,1,758.42,1239.8Z"/><polygon class="cls-1" points="672.76 807.09 624.98 819.92 617.62 790.69 665.41 777.86 672.76 807.09"/><polygon class="cls-1" points="714.1 1004.13 682.55 1012.28 639.5 838.36 671.05 830.21 714.1 1004.13"/><path class="cls-2" d="M606.89,288l-79.47,20.57a3.34,3.34,0,0,1-4.09-2.43l-4.92-19.83a3.43,3.43,0,0,1,2.46-4.12l79.47-20.57a3.34,3.34,0,0,1,4.09,2.43l4.92,19.82A3.43,3.43,0,0,1,606.89,288Z"/><path class="cls-2" d="M615.78,323.81l-79.47,20.57a3.35,3.35,0,0,1-4.09-2.44l-4.91-19.82a3.43,3.43,0,0,1,2.45-4.13l79.47-20.57a3.35,3.35,0,0,1,4.09,2.44l4.92,19.82A3.42,3.42,0,0,1,615.78,323.81Z"/><polygon class="cls-2" points="679.62 774.04 605.6 793.2 600.47 772.52 674.49 753.36 679.62 774.04"/><polygon class="cls-2" points="692.44 824.59 618.42 843.74 613.29 823.06 687.31 803.91 692.44 824.59"/><ellipse class="cls-2" cx="534.41" cy="435.86" rx="14.97" ry="14.82" transform="translate(-113.53 671.96) rotate(-59.22)"/><polyline class="cls-1" points="421.13 461.66 450.05 632.04 499.11 653.46"/><polygon class="cls-1" points="752.17 441.92 671.91 441.92 631.79 511.42 671.91 580.92 752.17 580.92 792.3 511.42 752.17 441.92"/><polygon class="cls-1" points="729.91 480.46 694.17 480.46 676.3 511.42 694.17 542.37 729.91 542.37 747.78 511.42 729.91 480.46"/><polygon class="cls-1" points="867.5 623.39 806.4 623.39 775.86 676.3 806.4 729.21 867.5 729.21 898.05 676.3 867.5 623.39"/><polygon class="cls-1" points="849.62 654.36 824.29 654.36 811.63 676.3 824.29 698.23 849.62 698.23 862.28 676.3 849.62 654.36"/><rect class="cls-3" width="1490.83" height="1490.83"/></g></g></svg>