<svg xmlns="http://www.w3.org/2000/svg" viewBox="0 0 1490.83 1490.83"><defs><style>.cls-1,.cls-2,.cls-3,.cls-7,.cls-8{fill:none;}.cls-1{stroke:#63b9fa;}.cls-1,.cls-3,.cls-7{stroke-linecap:round;}.cls-1,.cls-3{stroke-linejoin:round;}.cls-1,.cls-2,.cls-3,.cls-7{stroke-width:16px;}.cls-2,.cls-3,.cls-7{stroke:#0976d4;}.cls-2,.cls-7{stroke-miterlimit:10;}.cls-4{fill:#63b9fa;}.cls-5{fill:#0976d4;}.cls-6{fill:#fff;}</style></defs><title>Asset 41</title><g id="Layer_2" data-name="Layer 2"><g id="Layer_1-2" data-name="Layer 1"><polyline class="cls-1" points="1223.27 900.7 1223.31 900.59 1201.39 891.76 1178.37 882.49 1155.31 873.2"/><polyline class="cls-1" points="1144.43 1096.4 1144.39 1096.51 1122.47 1087.67 1099.45 1078.4 1076.39 1069.11"/><polyline class="cls-1" points="1038.77 1019.23 1037.5 1018.76 962.32 988.5"/><polyline class="cls-1" points="1032.78 858.62 1092.34 882.59 1093.67 883.11"/><path class="cls-1" d="M1223.27,900.7a5.22,5.22,0,0,1,1,.28c12.72,5.12,5.4,53.14-16.41,107.27s-49.79,93.77-62.51,88.64a5.32,5.32,0,0,1-.92-.49"/><path class="cls-1" d="M1189.55,887c4.19,1.69,6.21,8,6.25,17.47.16,19.69-8,53.34-22.66,89.81s-32.13,66.29-45.89,80.38c-6.63,6.82-12.43,9.94-16.62,8.25"/><path class="cls-1" d="M1155.31,873.2c4.24,1.71,6.21,8.08,6.22,17.82.09,19.72-8,53.19-22.63,89.45s-31.94,66-45.68,80.12c-6.75,7-12.59,10.23-16.83,8.52"/><path class="cls-1" d="M1093.77,882.39c0,.23-.07.45-.12.73-3.09,19.22-10.27,44.19-20.94,70.69s-22.81,49.46-34,65.44a1.6,1.6,0,0,1-.41.62"/><line class="cls-1" x1="1155.31" y1="873.2" x2="1092.35" y2="882.58"/><line class="cls-1" x1="1076.39" y1="1069.11" x2="1037.5" y2="1018.74"/><polyline class="cls-1" points="230.06 715.39 230.01 715.49 251.07 726.21 273.19 737.45 295.36 748.72"/><polyline class="cls-1" points="325.69 527.32 325.74 527.22 346.81 537.93 368.93 549.18 391.09 560.45"/><polyline class="cls-1" points="468.97 636.13 451.92 627.47 451.72 627.36 425.43 614.01 424.21 613.43"/><polyline class="cls-1" points="357.63 744.25 358.9 744.88 361.2 746.04 361.45 746.2 406.16 768.89 406.42 769.04 439.86 786.02"/><path class="cls-1" d="M230.06,715.39a6.09,6.09,0,0,1-1-.36c-12.23-6.22-.74-53.42,25.71-105.43s57.79-89.06,70-82.84a5.66,5.66,0,0,1,.87.56"/><path class="cls-1" d="M262.45,732c-4-2-5.48-8.47-4.7-18,1.56-19.63,12.6-52.44,30.42-87.48s37.8-63.24,52.74-76.07c7.19-6.21,13.25-8.82,17.28-6.77"/><path class="cls-1" d="M295.36,748.72c-4.07-2.07-5.48-8.59-4.65-18.29,1.64-19.66,12.65-52.29,30.36-87.14s37.58-62.91,52.5-75.81c7.34-6.39,13.45-9.1,17.52-7"/><path class="cls-1" d="M357.46,744.94c.06-.22.11-.44.19-.71,4.76-18.89,14.09-43.13,27-68.59s27-47.28,39.54-62.23a1.67,1.67,0,0,1,.46-.58"/><line class="cls-1" x1="295.36" y1="748.72" x2="358.9" y2="744.88"/><line class="cls-1" x1="391.09" y1="560.45" x2="425.43" y2="614.03"/><path class="cls-2" d="M1017,707.64a243.75,243.75,0,0,1,19,94.47c0,148-114.43,268-297.47,268-164.3,0-297.5-120-297.5-268A245.35,245.35,0,0,1,470.36,686"/><path class="cls-3" d="M472.49,699.69v0l5.84,62.7v.07s4.37,58.78,7.26,78.21c.06.4.32,1.57.35,1.6,29.41,95,131.06,163.38,252.37,163.38,95.7,0,206.68-34.3,247.68-141,.07-.17,25.06-135.85,25.06-135.85"/><path class="cls-2" d="M745.59,424.09C592.81,424.09,469,530.5,469,661.79S592.81,899.47,745.59,899.47s276.62-106.41,276.62-237.68S898.35,424.09,745.59,424.09Zm1.11,437c-132.16,0-239.31-89.26-239.31-199.34S614.54,462.46,746.7,462.46,986,551.69,986,661.79,878.84,861.13,746.7,861.13Z"/><path class="cls-2" d="M986,661.79c0,110.08-107.15,199.34-239.29,199.34S507.39,771.87,507.39,661.79,614.54,462.46,746.7,462.46,986,551.69,986,661.79Z"/><path class="cls-2" d="M986,661.79c0,110.08-107.15,199.34-239.29,199.34S507.39,771.87,507.39,661.79,614.54,462.46,746.7,462.46,986,551.69,986,661.79Z"/><line class="cls-2" x1="483.11" y1="736.95" x2="483.11" y2="736.93"/><ellipse class="cls-2" cx="755.82" cy="625.65" rx="31.12" ry="38.11" transform="translate(-115.2 1077.33) rotate(-67.03)"/><ellipse class="cls-4" cx="755.23" cy="625.65" rx="16.75" ry="20.51" transform="translate(-115.57 1076.78) rotate(-67.03)"/><rect class="cls-4" x="539.92" y="687.85" width="325.8" height="66.6" rx="0.4" ry="0.4" transform="matrix(0.92, 0.39, -0.39, 0.92, 337.21, -217.12)"/><rect class="cls-3" x="536.84" y="659.21" width="227.85" height="79.75" rx="0.4" ry="0.4" transform="translate(324.47 -198.55) rotate(22.97)"/><rect class="cls-4" x="716.54" y="510.67" width="162" height="33.11" rx="0.4" ry="0.4" transform="translate(269.03 -269.47) rotate(22.97)"/><rect class="cls-4" x="586.94" y="550.12" width="87.94" height="33.11" rx="0.4" ry="0.4" transform="translate(271.22 -201.3) rotate(22.97)"/><rect class="cls-5" x="573.51" y="645.27" width="19.73" height="49.86" rx="0.4" ry="0.4" transform="translate(307.85 -174.54) rotate(22.97)"/><rect class="cls-5" x="608.26" y="659.99" width="19.73" height="49.86" rx="0.4" ry="0.4" transform="translate(316.35 -186.93) rotate(22.97)"/><rect class="cls-5" x="642.74" y="674.61" width="19.73" height="49.86" rx="0.4" ry="0.4" transform="translate(324.79 -199.23) rotate(22.97)"/><rect class="cls-5" x="677.26" y="689.25" width="19.73" height="49.86" rx="0.4" ry="0.4" transform="translate(333.24 -211.54) rotate(22.97)"/><rect class="cls-5" x="711.79" y="703.88" width="19.73" height="49.86" rx="0.4" ry="0.4" transform="translate(341.7 -223.86) rotate(22.97)"/><rect class="cls-6" x="746.39" y="718.55" width="19.73" height="49.86" rx="0.4" ry="0.4" transform="translate(350.17 -236.2) rotate(22.97)"/><rect class="cls-6" x="780.17" y="732.87" width="19.73" height="49.86" rx="0.4" ry="0.4" transform="translate(358.43 -248.25) rotate(22.97)"/><rect class="cls-6" x="813.89" y="747.17" width="19.73" height="49.86" rx="0.4" ry="0.4" transform="translate(366.69 -260.28) rotate(22.97)"/><path class="cls-5" d="M866.83,791.48l18.37,14.94a.1.1,0,0,0,.16,0l5.31-15.14a.1.1,0,0,0-.1-.13l-23.68.2A.1.1,0,0,0,866.83,791.48Z"/><path class="cls-5" d="M735.56,791.72,719.47,809.1a.1.1,0,0,0,0,.16l14.77,6.27a.1.1,0,0,0,.14-.09l1.31-23.65A.1.1,0,0,0,735.56,791.72Z"/><line class="cls-7" x1="849.76" y1="624.57" x2="954.09" y2="668.8"/><line class="cls-7" x1="835.25" y1="639.67" x2="955.61" y2="690.69"/><rect class="cls-8" width="1490.83" height="1490.83"/></g></g></svg>