<?xml version="1.0" encoding="iso-8859-1"?>
<!-- Generator: Adobe Illustrator 19.0.0, SVG Export Plug-In . SVG Version: 6.00 Build 0)  -->
<svg version="1.1" id="Capa_1" xmlns="http://www.w3.org/2000/svg" xmlns:xlink="http://www.w3.org/1999/xlink" x="0px" y="0px"
	 viewBox="0 0 512.004 512.004" style="enable-background:new 0 0 512.004 512.004;" xml:space="preserve">
<polygon style="fill:#E6E6E6;" points="507,207.107 356,468.608 142.6,345.408 307,345.408 307,91.607 "/>
<polygon style="fill:#BDBDBD;" points="356,468.608 507,207.107 428.8,161.907 307,283.807 307,345.408 245.4,345.408 
	207.8,383.008 "/>
<polygon style="fill:#757575;" points="356,468.608 442.1,319.408 316,445.508 "/>
<polygon style="fill:#90CAF9;" points="445.1,223.707 358.3,374.008 307,344.408 307,143.907 "/>
<polygon style="fill:#64B5F6;" points="445.1,223.707 395.7,195.107 307,283.807 307,344.408 358.3,374.008 "/>
<path style="fill:#42A5F5;" d="M358.3,379.008c-0.9,0-1.7-0.2-2.5-0.7l-51.3-29.6c-1.5-0.9-2.5-2.5-2.5-4.3v-200.5c0-2.8,2.2-5,5-5
	c0.9,0,1.7,0.2,2.5,0.7l138.1,79.8c2.4,1.4,3.2,4.4,1.8,6.8l-86.8,150.4C361.7,378.108,360.1,379.008,358.3,379.008z M312,341.508
	l44.5,25.7l81.8-141.7l-126.3-72.9V341.508z"/>
<rect x="5" y="43.407" style="fill:#E6E6E6;" width="302" height="302"/>
<polygon style="fill:#BDBDBD;" points="307,283.807 245.4,345.408 307,345.408 "/>
<path style="fill:#424242;" d="M511.8,205.807c-0.4-1.3-1.2-2.3-2.3-3L312,88.707v-45.3c0-2.8-2.2-5-5-5H5c-2.8,0-5,2.2-5,5v302
	c0,2.8,2.2,5,5,5h136.3l212.2,122.5c2.4,1.4,5.4,0.6,6.8-1.8l151-261.5C512,208.407,512.2,207.107,511.8,205.807z M10,48.407h292
	v292H10V48.407z M354.2,461.807l-192.9-111.4H307c2.8,0,5-2.2,5-5v-245.2l188.2,108.7L354.2,461.807z"/>
<rect x="50.3" y="88.707" style="fill:#90CAF9;" width="211.4" height="173.6"/>
<path style="fill:#42A5F5;" d="M261.7,267.307H50.3c-2.8,0-5-2.2-5-5v-173.6c0-2.8,2.2-5,5-5h211.4c2.8,0,5,2.2,5,5v173.6
	C266.7,265.108,264.4,267.307,261.7,267.307z M55.3,257.307h201.4v-163.6H55.3V257.307z"/>
<g>
</g>
<g>
</g>
<g>
</g>
<g>
</g>
<g>
</g>
<g>
</g>
<g>
</g>
<g>
</g>
<g>
</g>
<g>
</g>
<g>
</g>
<g>
</g>
<g>
</g>
<g>
</g>
<g>
</g>
</svg>
