<svg xmlns="http://www.w3.org/2000/svg" viewBox="0 0 1490.83 1490.83"><defs><style>.cls-1,.cls-2,.cls-3{fill:none;}.cls-1{stroke:#63b9fa;}.cls-1,.cls-2{stroke-linecap:round;stroke-linejoin:round;stroke-width:16px;}.cls-2{stroke:#0976d4;}</style></defs><title>Asset 35</title><g id="Layer_2" data-name="Layer 2"><g id="Layer_1-2" data-name="Layer 1"><polyline class="cls-1" points="1164.42 427.52 1192.71 427.52 1192.71 382.48 1175.03 382.48"/><rect class="cls-1" x="1192.71" y="363.82" width="24.81" height="78.45" rx="1" ry="1"/><polyline class="cls-1" points="1234.04 385.28 1217.53 385.28 1217.53 422.16 1234.95 422.16 1234.95 422.05"/><circle class="cls-1" cx="1259.09" cy="403.05" r="30.74"/><line class="cls-1" x1="1286.64" y1="403.04" x2="1274.94" y2="403.04"/><line class="cls-1" x1="1243.26" y1="403.04" x2="1231.87" y2="403.04"/><line class="cls-1" x1="1259.27" y1="432.52" x2="1259.27" y2="418.74"/><line class="cls-1" x1="1259.27" y1="387.06" x2="1259.27" y2="373.58"/><line class="cls-1" x1="1278.61" y1="422.41" x2="1270.3" y2="414.1"/><line class="cls-1" x1="1247.9" y1="391.7" x2="1239.9" y2="383.7"/><line class="cls-1" x1="1248.07" y1="414.24" x2="1238.43" y2="423.88"/><line class="cls-1" x1="1280.08" y1="382.23" x2="1270.44" y2="391.87"/><circle class="cls-1" cx="1259.09" cy="402.89" r="15.84"/><polyline class="cls-1" points="1171.38 1063.4 1196.34 1063.4 1196.34 1028.51 1172.71 1028.51"/><rect class="cls-1" x="1196.34" y="1014.06" width="19.22" height="60.77" rx="1" ry="1"/><polyline class="cls-1" points="1228.35 1030.68 1215.56 1030.68 1215.56 1059.24 1229.06 1059.24 1229.06 1059.16"/><circle class="cls-1" cx="1247.76" cy="1044.44" r="23.81"/><circle class="cls-1" cx="1247.76" cy="1044.32" r="12.27"/><polyline class="cls-1" points="242.72 1028.51 226.54 1028.51 226.54 1063.4 242.72 1063.4"/><rect class="cls-1" x="207.32" y="1014.06" width="19.22" height="60.77" rx="1" ry="1" transform="translate(433.87 2088.89) rotate(-180)"/><path class="cls-1" d="M189.85,1020.88h16.73a0,0,0,0,1,0,0V1071a0,0,0,0,1,0,0H189.85a1,1,0,0,1-1-1v-48.14A1,1,0,0,1,189.85,1020.88Z"/><polyline class="cls-1" points="236.63 385.19 219.2 385.19 219.2 430.23 247.86 430.23"/><rect class="cls-1" x="194.4" y="366.54" width="24.81" height="78.45" rx="1" ry="1" transform="translate(413.61 811.52) rotate(-180)"/><path class="cls-1" d="M165.63,385.19h23.65a0,0,0,0,1,0,0v45a0,0,0,0,1,0,0H165.63a2,2,0,0,1-2-2v-41A2,2,0,0,1,165.63,385.19Z"/><line class="cls-2" x1="483.42" y1="1014.07" x2="468.33" y2="1014.07"/><line class="cls-2" x1="483.42" y1="1074.84" x2="468.33" y2="1074.84"/><line class="cls-2" x1="713.88" y1="1014.07" x2="698.79" y2="1014.07"/><line class="cls-2" x1="713.88" y1="1074.84" x2="698.79" y2="1074.84"/><line class="cls-2" x1="831.65" y1="1014.07" x2="816.56" y2="1014.07"/><line class="cls-2" x1="831.65" y1="1074.84" x2="816.56" y2="1074.84"/><line class="cls-2" x1="949.42" y1="1014.07" x2="934.36" y2="1014.07"/><line class="cls-2" x1="949.42" y1="1074.84" x2="934.36" y2="1074.84"/><line class="cls-2" x1="1067.23" y1="1014.07" x2="1052.14" y2="1014.07"/><line class="cls-2" x1="1067.23" y1="1074.84" x2="1052.14" y2="1074.84"/><line class="cls-2" x1="596.07" y1="1014.07" x2="580.98" y2="1014.07"/><line class="cls-2" x1="596.07" y1="1074.84" x2="580.98" y2="1074.84"/><line class="cls-2" x1="360.5" y1="1014.07" x2="345.44" y2="1014.07"/><line class="cls-2" x1="360.5" y1="1074.84" x2="345.44" y2="1074.84"/><path class="cls-2" d="M278.49,415.85h-29a5.57,5.57,0,0,1-5.56-5.56V354a5.57,5.57,0,0,1,5.56-5.55h86.47a5.57,5.57,0,0,1,5.56,5.55v56.3a5.57,5.57,0,0,1-5.56,5.56h-21"/><path class="cls-2" d="M428.62,415.85h29a5.56,5.56,0,0,0,5.56-5.56V354a5.55,5.55,0,0,0-5.56-5.55H371.18a5.54,5.54,0,0,0-5.55,5.55v56.3a5.55,5.55,0,0,0,5.55,5.56h29"/><path class="cls-2" d="M546.43,415.81h29a5.56,5.56,0,0,0,5.56-5.56V354a5.56,5.56,0,0,0-5.56-5.56H489a5.56,5.56,0,0,0-5.56,5.56v56.3a5.56,5.56,0,0,0,5.56,5.56h29"/><path class="cls-2" d="M664.19,415.85h29a5.56,5.56,0,0,0,5.56-5.56V354a5.55,5.55,0,0,0-5.56-5.55H606.75A5.54,5.54,0,0,0,601.2,354v56.3a5.55,5.55,0,0,0,5.55,5.56h29"/><path class="cls-2" d="M782,415.85h29a5.56,5.56,0,0,0,5.56-5.56V354a5.55,5.55,0,0,0-5.56-5.55H724.55A5.54,5.54,0,0,0,719,354v56.3a5.55,5.55,0,0,0,5.55,5.56h29"/><path class="cls-2" d="M899.76,415.85h29a5.56,5.56,0,0,0,5.56-5.56V354a5.55,5.55,0,0,0-5.56-5.55H842.32a5.55,5.55,0,0,0-5.55,5.55v56.3a5.56,5.56,0,0,0,5.55,5.56h29"/><path class="cls-2" d="M1017.55,415.85h29a5.56,5.56,0,0,0,5.55-5.56V354a5.55,5.55,0,0,0-5.55-5.55H960.11a5.55,5.55,0,0,0-5.56,5.55v56.3a5.56,5.56,0,0,0,5.56,5.56h29"/><path class="cls-2" d="M1107,415.85h-29a5.57,5.57,0,0,1-5.56-5.56V354a5.57,5.57,0,0,1,5.56-5.55h86.45a5.57,5.57,0,0,1,5.55,5.55v56.3a5.57,5.57,0,0,1-5.55,5.56h-29"/><rect class="cls-2" x="247.85" y="531.18" width="97.58" height="589.04" rx="2" ry="2"/><rect class="cls-2" x="365.63" y="531.18" width="97.58" height="589.04" rx="2" ry="2"/><rect class="cls-2" x="483.42" y="531.18" width="97.58" height="589.04" rx="2" ry="2"/><rect class="cls-2" x="601.2" y="531.18" width="97.58" height="589.04" rx="2" ry="2"/><rect class="cls-2" x="718.99" y="531.18" width="97.58" height="589.04" rx="2" ry="2"/><rect class="cls-2" x="836.77" y="531.18" width="97.58" height="589.04" rx="2" ry="2"/><rect class="cls-2" x="954.56" y="531.18" width="97.58" height="589.04" rx="2" ry="2"/><rect class="cls-2" x="1072.34" y="531.18" width="97.58" height="589.04" rx="2" ry="2"/><rect class="cls-2" x="282.44" y="398.11" width="28.39" height="133.07" rx="1" ry="1"/><rect class="cls-2" x="400.23" y="398.11" width="28.39" height="133.07" rx="1" ry="1"/><rect class="cls-2" x="518.01" y="398.11" width="28.39" height="133.07" rx="1" ry="1"/><rect class="cls-2" x="635.8" y="398.11" width="28.39" height="133.07" rx="1" ry="1"/><rect class="cls-2" x="753.58" y="398.11" width="28.39" height="133.07" rx="1" ry="1"/><path class="cls-2" d="M899.76,400.9V528.39a2.77,2.77,0,0,1-2.78,2.78H874.14a2.77,2.77,0,0,1-2.78-2.78V400.9a2.77,2.77,0,0,1,2.78-2.78H897A2.77,2.77,0,0,1,899.76,400.9Z"/><rect class="cls-2" x="989.15" y="398.11" width="28.39" height="133.07" rx="1" ry="1"/><rect class="cls-2" x="1106.94" y="398.11" width="28.39" height="133.07" rx="1" ry="1"/><line class="cls-2" x1="377.73" y1="457.11" x2="338.89" y2="457.11"/><line class="cls-2" x1="612.34" y1="457.11" x2="573.49" y2="457.11"/><line class="cls-2" x1="724.52" y1="457.11" x2="685.67" y2="457.11"/><line class="cls-2" x1="841.82" y1="457.11" x2="802.97" y2="457.11"/><line class="cls-2" x1="959.12" y1="457.11" x2="920.27" y2="457.11"/><polyline class="cls-2" points="1042.7 457.11 1050.81 457.11 1083.41 457.11"/><line class="cls-2" x1="259.6" y1="415.85" x2="259.6" y2="457.11"/><line class="cls-2" x1="483.42" y1="391.7" x2="468.33" y2="391.7"/><line class="cls-2" x1="713.88" y1="391.7" x2="698.79" y2="391.7"/><line class="cls-2" x1="949.42" y1="391.7" x2="934.36" y2="391.7"/><polyline class="cls-2" points="1157.6 415.85 1157.6 457.11 1156.74 457.11"/><line class="cls-2" x1="1067.23" y1="391.7" x2="1052.14" y2="391.7"/><line class="cls-2" x1="831.65" y1="391.7" x2="816.56" y2="391.7"/><line class="cls-2" x1="596.07" y1="391.7" x2="580.98" y2="391.7"/><line class="cls-2" x1="365.62" y1="391.7" x2="350.56" y2="391.7"/><line class="cls-2" x1="489.91" y1="457.11" x2="451.07" y2="457.11"/><line class="cls-2" x1="1072.35" y1="626.45" x2="1057.26" y2="626.45"/><line class="cls-2" x1="1072.35" y1="553.73" x2="1057.26" y2="553.73"/><line class="cls-2" x1="836.77" y1="626.45" x2="821.68" y2="626.45"/><line class="cls-2" x1="836.77" y1="553.73" x2="821.68" y2="553.73"/><line class="cls-2" x1="483.42" y1="626.45" x2="468.33" y2="626.45"/><line class="cls-2" x1="365.62" y1="553.73" x2="350.56" y2="553.73"/><line class="cls-2" x1="483.42" y1="553.73" x2="468.33" y2="553.73"/><line class="cls-2" x1="365.62" y1="626.45" x2="350.56" y2="626.45"/><line class="cls-2" x1="596.07" y1="626.45" x2="580.98" y2="626.45"/><line class="cls-2" x1="596.07" y1="553.73" x2="580.98" y2="553.73"/><line class="cls-2" x1="713.88" y1="626.45" x2="698.79" y2="626.45"/><line class="cls-2" x1="713.88" y1="553.73" x2="698.79" y2="553.73"/><line class="cls-2" x1="954.55" y1="626.45" x2="939.48" y2="626.45"/><line class="cls-2" x1="954.55" y1="553.73" x2="939.48" y2="553.73"/><path class="cls-2" d="M259.6,531.17V461.84a13.48,13.48,0,0,1,.83-4.73,13.87,13.87,0,0,1,13.06-9.17h8.95"/><path class="cls-2" d="M310.84,447.94h9.84a14,14,0,0,1,13.95,13.95v69.42"/><path class="cls-2" d="M334.63,531.31V498.18a14,14,0,0,0-14.06-14h-9.73"/><path class="cls-2" d="M259.6,494.57a13.92,13.92,0,0,1,13.5-10.36h9.34"/><path class="cls-2" d="M376.9,531.17V461.84a13.48,13.48,0,0,1,.83-4.73,13.87,13.87,0,0,1,13.07-9.17h9.42"/><path class="cls-2" d="M428.61,447.94H438a14,14,0,0,1,13.95,13.95v69.42"/><path class="cls-2" d="M451.93,531.31V498.18a14,14,0,0,0-14.06-14h-9.26"/><path class="cls-2" d="M376.9,494.57a13.92,13.92,0,0,1,13.51-10.36h9.81"/><path class="cls-2" d="M494.2,531.17V461.84a13.27,13.27,0,0,1,.84-4.73,13.85,13.85,0,0,1,13.06-9.17H518"/><path class="cls-2" d="M546.39,447.94h8.89a14,14,0,0,1,14,13.95v69.42"/><path class="cls-2" d="M569.23,531.31V498.18a14,14,0,0,0-14.06-14h-8.78"/><path class="cls-2" d="M494.2,494.57a13.92,13.92,0,0,1,13.51-10.36H518"/><path class="cls-2" d="M611.5,531.17V461.84a13.27,13.27,0,0,1,.84-4.73,13.87,13.87,0,0,1,13.06-9.17h10.39"/><path class="cls-2" d="M664.19,447.94h8.39a13.93,13.93,0,0,1,13.09,9.17,13.68,13.68,0,0,1,.86,4.78v69.42"/><path class="cls-2" d="M686.53,531.31V498.18a14,14,0,0,0-14.06-14h-8.28"/><path class="cls-2" d="M611.5,494.57A13.93,13.93,0,0,1,625,484.21h10.78"/><path class="cls-2" d="M728.81,531.17V461.84a13.26,13.26,0,0,1,.83-4.73,13.87,13.87,0,0,1,13.06-9.17h10.89"/><path class="cls-2" d="M782,447.94h7.92A13.92,13.92,0,0,1,803,457.11a13.68,13.68,0,0,1,.86,4.78v69.42"/><path class="cls-2" d="M803.83,531.31V498.18a14,14,0,0,0-14.06-14H782"/><path class="cls-2" d="M728.81,494.57a13.91,13.91,0,0,1,13.5-10.36h11.28"/><path class="cls-2" d="M846.11,531.17V461.84a13.48,13.48,0,0,1,.83-4.73A13.87,13.87,0,0,1,860,447.94h11.37"/><path class="cls-2" d="M899.77,447.94h7.42a13.92,13.92,0,0,1,13.08,9.17,13.68,13.68,0,0,1,.87,4.78v69.42"/><path class="cls-2" d="M846.11,494.57a13.92,13.92,0,0,1,13.5-10.36h11.76"/><path class="cls-2" d="M899.77,484.21h7.3a14,14,0,0,1,14.07,14v33.13"/><path class="cls-2" d="M963.41,531.17V461.84a13.48,13.48,0,0,1,.83-4.73,13.87,13.87,0,0,1,13.06-9.17h11.84"/><path class="cls-2" d="M1017.54,447.94h7a14,14,0,0,1,14,13.95v69.42"/><path class="cls-2" d="M1038.44,531.31V498.18a14,14,0,0,0-14.06-14h-6.84"/><path class="cls-2" d="M963.41,494.57a13.92,13.92,0,0,1,13.5-10.36h12.23"/><path class="cls-2" d="M1082.57,531.17V461.84a13.27,13.27,0,0,1,.84-4.73,13.86,13.86,0,0,1,13.06-9.17h10.47"/><path class="cls-2" d="M1135.31,447.94h8.34a14,14,0,0,1,13.95,13.95v69.42"/><path class="cls-2" d="M1157.6,531.31V498.18a14,14,0,0,0-14.06-14h-8.23"/><path class="cls-2" d="M1082.57,494.57a13.92,13.92,0,0,1,13.51-10.36h10.86"/><line class="cls-1" x1="194.4" y1="422.91" x2="219.2" y2="422.91"/><line class="cls-1" x1="194.4" y1="391.7" x2="219.21" y2="391.7"/><rect class="cls-3" width="1490.83" height="1490.83"/></g></g></svg>