<svg xmlns="http://www.w3.org/2000/svg" viewBox="0 0 1490.83 1490.83"><defs><style>.cls-1,.cls-2,.cls-4,.cls-5,.cls-6{fill:none;}.cls-1,.cls-2,.cls-3{stroke:#0976d4;}.cls-1,.cls-3{stroke-miterlimit:10;}.cls-1,.cls-2,.cls-4{stroke-width:16px;}.cls-2,.cls-4,.cls-5{stroke-linejoin:round;}.cls-3{fill:#0976d4;stroke-width:9px;}.cls-4,.cls-5{stroke:#63b9fa;stroke-linecap:round;}.cls-5{stroke-width:13px;}</style></defs><title>Asset 33</title><g id="Layer_2" data-name="Layer 2"><g id="Layer_1-2" data-name="Layer 1"><polyline class="cls-1" points="805.68 970.22 795.5 963.43 745.74 1038.17 755.01 1044.36"/><polyline class="cls-1" points="1022.75 966.96 1032.32 959.85 1089.02 1036.44 1078.59 1044.16"/><path class="cls-2" d="M340.4,599.58l-72.19-25,2.92-2.82A62,62,0,0,0,287.41,545c10.46-34.82,38.52-120.2,72.68-158.88,12.17-13.77,31.19-31.56,61-41,35.27-11.24,65-12.23,95.73-7.47,74.37,11.42,192.27,83,241.62,130.07,67,64,99.57,106.54,120.07,153.61,34.65,79.42,70.91,252.3,70.91,252.3s46.32,26.31,53,67.63c4.32,27-33.29,35.21-33.29,35.21L973.4,994l46.76-30.58,61.2,84.56-66.64,88.88H817.88l-68.43-84.81,61-88.63,48.73,33.73,2.59-19.95s-25.88,0-31.06-25.2c-6.86-33.23,49.59-72.57,49.59-72.57S857.84,756.28,847.4,721.38c-24.15-80.41-41.81-108-57.68-131.12-71-103.58-190.54-170-269.6-187.39-20.32-4.51-67.14-12.6-106.36,24.21-29.12,27.34-59.27,105.52-71,138.3a61.86,61.86,0,0,0-3,29.67Z"/><ellipse class="cls-3" cx="611.7" cy="895.29" rx="82.2" ry="8.56" transform="translate(-472.34 871.32) rotate(-54.39)"/><ellipse class="cls-3" cx="1209.07" cy="884" rx="8.59" ry="82.51" transform="translate(-288.69 889.56) rotate(-36.38)"/><path class="cls-1" d="M1036.05,963.43s32.12,50.9,45.32,65.92c8.67,9.86,19.94,17.88,52.13,6.26s127.85-51,127.85-51,18.78-6.26,16.09-30.4-85.21-142.94-112.65-151.1c-22.78-6.78-33.08,9.83-33.08,9.83s-77.32,82.68-95.66,115.34C1031.75,936,1028,951.73,1036.05,963.43Z"/><path class="cls-1" d="M789.26,969.61s-32.12,50.89-45.32,65.92c-8.67,9.85-20,17.88-52.13,6.25s-127.85-51-127.85-51-18.78-6.26-16.1-30.4,85.22-142.93,112.66-151.09c22.77-6.78,33.08,9.83,33.08,9.83s77.32,82.67,95.66,115.34C793.56,942.15,797.31,957.9,789.26,969.61Z"/><line class="cls-4" x1="273.28" y1="578.05" x2="257.62" y2="623.55"/><line class="cls-4" x1="290.42" y1="583.9" x2="274.76" y2="629.41"/><line class="cls-4" x1="310.01" y1="590.69" x2="294.35" y2="636.19"/><line class="cls-4" x1="330.19" y1="597.63" x2="314.53" y2="643.13"/><path class="cls-4" d="M725.68,978.3c5.25-6.24-55.24-69.83-76.58-73.77-5.41-1-18.39,4.27-13.46,17.41C640.93,936,719.87,985.2,725.68,978.3Z"/><path class="cls-4" d="M753.34,948c6.23-4.53-42.27-78.51-61.56-86.65-4.88-2.06-18.18-.06-16.25,12.89C677.61,888.1,746.45,953,753.34,948Z"/><path class="cls-4" d="M710.49,1019.08c4.09-6.52-72.83-59.67-93.75-60-5.31-.08-16.9,6.73-10.28,18C613.58,989.21,706,1026.3,710.49,1019.08Z"/><path class="cls-4" d="M1099.05,968.33c-5.43-6.46,57.13-72.22,79.2-76.3,5.6-1,19,4.42,13.93,18C1186.7,924.62,1105.06,975.46,1099.05,968.33Z"/><path class="cls-4" d="M1065.35,942c-6.44-4.68,43.71-81.2,63.66-89.61,5-2.13,18.81-.06,16.81,13.33C1143.67,880.06,1072.47,947.14,1065.35,942Z"/><path class="cls-4" d="M1114.8,1009.66c-4.23-6.74,75.32-61.71,97-62.07,5.48-.09,17.48,7,10.62,18.64C1215,978.77,1119.48,1017.12,1114.8,1009.66Z"/><rect class="cls-1" x="245.02" y="586.53" width="98.17" height="48.12" rx="2.03" ry="2.03" transform="translate(213.2 -62.29) rotate(18.86)"/><path class="cls-1" d="M248.7,618.68l1.31,7a5.43,5.43,0,0,0,3.6,4.14l59.51,20.08a5.44,5.44,0,0,0,5.06-.85l5-3.9"/><path class="cls-4" d="M254.66,733.61l-5.8-12a8.2,8.2,0,0,0-14.77,0l-33.29,69-.24.49a47.51,47.51,0,1,0,86.09,38.85"/><path class="cls-5" d="M254.78,768.43c-3.65,21.42,2.38,37.27,26.86,42.84"/><path class="cls-4" d="M324.52,758.32l-.25-.5-33.23-69a8.2,8.2,0,0,0-14.76,0l-33.29,69-.25.5a47.53,47.53,0,1,0,88.45,24.15A46.82,46.82,0,0,0,324.52,758.32Z"/><rect class="cls-6" width="1490.83" height="1490.83"/></g></g></svg>