<svg xmlns="http://www.w3.org/2000/svg" viewBox="0 0 1490.83 1490.83"><defs><style>.cls-1{fill:#63b9fa;}.cls-2,.cls-3,.cls-4{fill:none;}.cls-2,.cls-3{stroke:#0976d4;stroke-width:16px;}.cls-2{stroke-linecap:round;stroke-linejoin:round;}.cls-3{stroke-miterlimit:10;}</style></defs><title>Asset 42</title><g id="Layer_2" data-name="Layer 2"><g id="Layer_1-2" data-name="Layer 1"><path class="cls-1" d="M398.36,502.07a23.62,23.62,0,0,1,2.9.17,16.91,16.91,0,0,0,1.74.1l185.86,1.34V675.2L391.63,729.76a14.39,14.39,0,0,1-1.59.09c-4.07,0-7.84-1.85-11.19-5.49-6.69-7.25-10-19.55-9-32.9,0-.32,0-.63,0-1l3.38-159.85c1.53-17.39,11.33-28.59,25-28.59m0-16c-20.66,0-38.81,15.9-41,43.75L354,690.17c-2.5,30.89,13.89,55.68,36.09,55.68a30.94,30.94,0,0,0,4.84-.39l210-58.09V487.8l-201.75-1.46a42.28,42.28,0,0,0-4.75-.27Z"/><path class="cls-1" d="M1105.59,372.82v.44c13.61,0,23.36,11,25,28.21-.34,11.11-3.6,116.95-4.91,151.95-.45,11.91-1.57,26.66-6.39,35.12-2.51,4.39-6.86,9.07-20.15,10.4l-.33,0L909.54,622V438.15l194.59-64.85c.49,0,1,0,1.45,0v-.44h0m-196,53.79h0m196-69.35a40.2,40.2,0,0,0-4.75.28L893.54,426.61V640.07l207.2-25.21c33.28-3.35,39.6-25.44,40.93-60.84,1.39-37.25,4.94-153,4.94-153-2.22-27.85-20.36-43.76-41-43.76Z"/><ellipse class="cls-2" cx="422.07" cy="959.85" rx="59.89" ry="135.63" transform="matrix(0.99, -0.11, 0.11, 0.99, -102.83, 52.14)"/><path class="cls-2" d="M424.93,828.84c-22.73,19.28-34.9,72.77-28.16,133.79S427,1073.08,453.4,1087.08"/><path class="cls-2" d="M494.48,764.11c16.82-24.82,38.68-40.66,63.81-43.43,66.62-7.36,130.93,79.91,143.63,194.91s-31,214.21-97.63,221.57c-23.43,2.59-46.58-6.53-67.29-24.44"/><ellipse class="cls-2" cx="422.07" cy="959.85" rx="80.28" ry="181.81" transform="translate(-102.83 52.14) rotate(-6.3)"/><path class="cls-2" d="M402.11,779.15l149.34-24.3,1.48-.32C596.79,748,643,819.16,657,913.89s-10.15,176.79-54,183.28"/><line class="cls-2" x1="459.25" y1="1134.13" x2="614.77" y2="1094.05"/><path class="cls-2" d="M402.11,779.15l149.34-24.3,1.48-.32C596.79,748,643,819.16,657,913.89s-10.15,176.79-54,183.28"/><line class="cls-2" x1="459.25" y1="1134.13" x2="614.77" y2="1094.05"/><path class="cls-2" d="M604.29,1137.16l19.18-4.86,277.45-70.39s4.64-1.36,6.08-2.05c13.88-6.72,25.79-18.07,35.51-32.9,25.1-38.23,35.68-99.34,28.74-162.28-9.22-83.55-48.37-150.1-96.9-172.31"/><path class="cls-2" d="M628.36,711.45c-39,5.08-67.58,8.91-69.91,9.21a.72.72,0,0,1-.17,0"/><path class="cls-2" d="M942.5,1027h24a114.53,114.53,0,0,0,27.22-3.27c34.4-8.38,123.16-30,124.57-30.71,40-18.79,63-100,50.34-169.84-16.82-92.43-69.3-141.81-113.15-135.25l-1.49.31L904.64,712.5"/><path class="cls-2" d="M628.36,719.44c0,19.16,55.06,34.68,123,34.68s123-15.52,123-34.68"/><polyline class="cls-2" points="628.36 719.44 628.36 711.45 628.36 700.81"/><polyline class="cls-2" points="874.35 643.12 874.35 692.37 874.35 719.44"/><path class="cls-2" d="M597.82,487.86a2.8,2.8,0,0,0,0,.5,3.38,3.38,0,0,0,0,.55c.25,6,4.94,11.75,13.16,16.91,23.68,14.94,76.91,25.35,138.71,25.35,57.83,0,108.11-9.11,133.74-22.52,11.55-6,18.1-12.93,18.1-20.29,0-.34,0-.68,0-1"/><line class="cls-2" x1="597.81" y1="618.65" x2="597.81" y2="488.34"/><line class="cls-2" x1="901.55" y1="618.65" x2="901.55" y2="488.34"/><path class="cls-2" d="M901.56,618.66c0,9.1-10,17.52-27.21,24.46-27.46,11.1-73.05,18.35-124.66,18.35a501.83,501.83,0,0,1-56.61-3.08v53.06h0c-61.33,0-95.38-22.12-95.38-39.41V576.77"/><path class="cls-2" d="M597.71,494.94V454.85C597.71,412,672.52,342,696.22,342H799.7c31.23,0,101.85,70,101.85,112.85v40.09"/><path class="cls-3" d="M704.13,341.9v-9.69a32.15,32.15,0,0,1,32.15-32.15h33.59A32.17,32.17,0,0,1,802,332.21v9.69"/><rect class="cls-4" width="1490.83" height="1490.83"/></g></g></svg>