<svg xmlns="http://www.w3.org/2000/svg" viewBox="0 0 1490.83 1490.83"><defs><style>.cls-1,.cls-2,.cls-3{fill:none;}.cls-1{stroke:#71b9f4;}.cls-1,.cls-2{stroke-linejoin:round;stroke-width:16px;}.cls-2{stroke:#0976d4;}</style></defs><title>Asset 32</title><g id="Layer_2" data-name="Layer 2"><g id="Layer_1-2" data-name="Layer 1"><line class="cls-1" x1="174.01" y1="727.09" x2="794.18" y2="374.74"/><polyline class="cls-1" points="836.58 399.65 621.73 521.72 445.2 622.02 217.13 751.6"/><polyline class="cls-1" points="884.72 427.91 670.12 549.83 493 650.47 264.29 780.41"/><polyline class="cls-1" points="929.51 455.39 716.19 576.59 538.49 677.54 309.96 807.4"/><polyline class="cls-1" points="972.68 480.25 759.17 601.55 580.93 702.81 352.51 832.59"/><polyline class="cls-1" points="395.17 857.72 623.36 728.08 623.41 728.08 802.1 626.51 802.14 626.51 1016.01 505.02"/><polyline class="cls-1" points="1058.76 530.11 845.11 651.5 665.83 753.35 438.63 882.43"/><line class="cls-1" x1="889.94" y1="677.54" x2="845.12" y2="651.51"/><line class="cls-1" x1="716.2" y1="576.6" x2="670.12" y2="549.84"/><polyline class="cls-1" points="759.17 601.55 802.1 626.51 802.14 626.51"/><line class="cls-1" x1="579.08" y1="496.96" x2="530.12" y2="468.49"/><line class="cls-1" x1="493.01" y1="650.47" x2="445.21" y2="622"/><line class="cls-1" x1="580.93" y1="702.81" x2="538.5" y2="677.54"/><polyline class="cls-1" points="665.84 753.35 623.41 728.08 623.36 728.08"/><line class="cls-1" x1="403.1" y1="596.96" x2="356.7" y2="569.35"/><path class="cls-1" d="M693.14,819.79l138.57,82.4c17.29,9.68,24.88,27.57,10.27,40.17-9,7.75-17.53,8.63-26.82,8.63-8.31,0-16.28-3.5-22.43-7.1L638.57,852.36"/><path class="cls-1" d="M816.24,742.37,952,821.73c17.28,9.68,24.88,27.56,10.27,40.17-9,7.75-17.54,8.63-26.82,8.63-8.31,0-16.29-3.51-22.43-7.1L761.68,774.94"/><path class="cls-1" d="M946.12,670.41l135.76,79.36c17.28,9.68,24.87,27.56,10.26,40.17-9,7.75-17.53,8.63-26.82,8.63-8.31,0-16.28-3.51-22.43-7.1L891.56,703"/><path class="cls-1" d="M557.66,898.79l135.75,79.36c17.28,9.68,24.88,27.57,10.27,40.17-9,7.75-17.54,8.63-26.82,8.63-8.31,0-16.29-3.5-22.43-7.1L503.09,931.37"/><path class="cls-1" d="M1062.6,596.53,1203,679.24c17.28,9.68,24.87,27.56,10.26,40.16-9,7.76-17.53,8.64-26.81,8.64-8.32,0-16.29-3.51-22.44-7.1L1008,629.11"/><polyline class="cls-1" points="130.12 813.23 727.81 1151.52 1340.67 796.55"/><path class="cls-2" d="M147.91,737.53l-13.35,7.86a9,9,0,0,0-4.44,7.77V861.78l597.69,345.87,611.35-354.1a3,3,0,0,0,1.51-2.62V742.14a3,3,0,0,0-1.48-2.6L1086.11,589.32"/><polygon class="cls-2" points="130.12 701.16 489.65 913.54 1099.47 554.02 742.98 344.67 130.12 701.16"/><line class="cls-2" x1="949.02" y1="969.2" x2="840.83" y2="1032.41"/><line class="cls-2" x1="1204.49" y1="819.97" x2="1099.87" y2="881.08"/><line class="cls-2" x1="1340.67" y1="740.42" x2="1224.42" y2="808.32"/><line class="cls-2" x1="1079.33" y1="893.08" x2="970.13" y2="956.87"/><path class="cls-2" d="M130.12,748l596.16,349.53a3.06,3.06,0,0,0,3.07,0l91.51-53.46"/><path class="cls-2" d="M1099.47,554v20.71a6.06,6.06,0,0,1-3,5.23l-4.79,2.82-602,354.94L141.7,732.18l-10.09-6a3,3,0,0,1-1.49-2.61V701.16"/><polygon class="cls-2" points="589.2 883.77 612.81 869.85 840.84 1005.41 840.84 1049.32 821.15 1061.43 820.4 1016.76 589.2 883.77"/><polygon class="cls-2" points="717.3 805.04 740.91 791.12 968.93 926.68 968.93 970.59 949.25 982.7 948.5 938.04 717.3 805.04"/><polygon class="cls-2" points="847.62 729.8 871.22 715.88 1099.25 851.44 1099.25 895.35 1079.57 907.46 1078.81 862.79 847.62 729.8"/><polygon class="cls-2" points="972.79 657.12 996.4 643.21 1224.42 778.76 1224.42 822.67 1204.74 834.78 1203.98 790.12 972.79 657.12"/><rect class="cls-3" width="1490.83" height="1490.83"/></g></g></svg>