<?xml version="1.0" encoding="iso-8859-1"?>
<!-- Generator: Adobe Illustrator 16.0.0, SVG Export Plug-In . SVG Version: 6.00 Build 0)  -->
<!DOCTYPE svg PUBLIC "-//W3C//DTD SVG 1.1//EN" "http://www.w3.org/Graphics/SVG/1.1/DTD/svg11.dtd">
<svg version="1.1" id="Capa_1" xmlns="http://www.w3.org/2000/svg" xmlns:xlink="http://www.w3.org/1999/xlink" x="0px" y="0px"
	 width="612px" height="612px" viewBox="0 0 612 612" style="enable-background:new 0 0 612 612;" xml:space="preserve">
<g>
	<g id="Search">
		<g>
			<path fill="#63B9FA" d="M382.5,0C255.759,0,153,102.759,153,229.5c0,53.034,18.149,101.707,48.367,140.568L8.415,563.021
				C2.812,568.625,0,575.949,0,583.312c0,7.344,2.812,14.688,8.415,20.292C14,609.208,21.343,612,28.688,612
				s14.688-2.792,20.272-8.396l192.971-192.972C280.793,440.851,329.467,459,382.5,459C509.241,459,612,356.241,612,229.5
				S509.241,0,382.5,0z M382.5,401.625c-94.917,0-172.125-77.208-172.125-172.125c0-94.917,77.208-172.125,172.125-172.125
				c94.917,0,172.125,77.208,172.125,172.125C554.625,324.417,477.417,401.625,382.5,401.625z"/>
		</g>
	</g>
</g>
<g>
</g>
<g>
</g>
<g>
</g>
<g>
</g>
<g>
</g>
<g>
</g>
<g>
</g>
<g>
</g>
<g>
</g>
<g>
</g>
<g>
</g>
<g>
</g>
<g>
</g>
<g>
</g>
<g>
</g>
</svg>
